<svg width="942" height="252" viewBox="0 0 942 252" fill="none" xmlns="http://www.w3.org/2000/svg">
<path d="M267.55 70.5234L211.23 246.543H161.94L133.78 152.553L105.61 246.543H56.32L0 70.5234H56.32L81.67 164.873L109.13 70.5234H158.42L185.88 164.873L211.23 70.5234H267.55Z" fill="white"/>
<path d="M366.46 204.304C380.9 204.304 393.22 198.674 400.26 190.924L442.5 215.214C425.25 239.154 399.19 251.474 365.75 251.474C305.55 251.474 268.23 210.994 268.23 158.534C268.23 106.074 306.25 65.5938 361.87 65.5938C413.27 65.5938 451.29 105.374 451.29 158.534C451.29 165.924 450.58 172.964 449.18 179.654H324.2C330.88 197.964 347.08 204.304 366.44 204.304M398.83 140.234C393.19 119.814 377.35 112.424 361.51 112.424C341.44 112.424 328.07 122.284 323.13 140.234H398.83Z" fill="white"/>
<path d="M655.47 0.113281V246.553H602.66V230.003C591.04 243.383 573.79 251.473 550.21 251.473C504.09 251.473 466.07 210.993 466.07 158.533C466.07 106.073 504.09 65.5933 550.21 65.5933C573.8 65.5933 591.04 73.6933 602.66 87.0733V0.113281H655.47ZM602.66 158.533C602.66 132.133 585.06 115.583 560.77 115.583C536.48 115.583 518.88 132.133 518.88 158.533C518.88 184.933 536.48 201.483 560.77 201.483C585.06 201.483 602.66 184.933 602.66 158.533Z" fill="white"/>
<path d="M680.8 158.534C680.8 106.074 722.34 65.5938 774.09 65.5938C825.84 65.5938 867.38 106.084 867.38 158.534C867.38 210.984 825.83 251.474 774.09 251.474C722.35 251.474 680.8 210.994 680.8 158.534ZM814.58 158.534C814.58 133.534 796.98 116.984 774.1 116.984C751.22 116.984 733.61 133.534 733.61 158.534C733.61 183.534 751.21 200.074 774.1 200.074C796.99 200.074 814.58 183.534 814.58 158.534Z" fill="white"/>
<path d="M875.11 218.034C875.11 199.734 890.25 184.594 908.55 184.594C926.85 184.594 941.99 199.734 941.99 218.034C941.99 236.334 926.85 251.484 908.55 251.484C890.25 251.484 875.11 236.354 875.11 218.034Z" fill="white"/>
</svg>
