<svg width="917" height="246" viewBox="0 0 917 246" fill="none" xmlns="http://www.w3.org/2000/svg">
<path d="M260.367 69.041L205.559 240.335H157.592L130.188 148.869L102.775 240.335H54.8079L0 69.041H54.8079L79.4773 160.858L106.2 69.041H154.167L180.889 160.858L205.559 69.041H260.367Z" fill="#0A0A0A"/>
<path d="M356.622 199.23C370.674 199.23 382.663 193.751 389.514 186.209L430.62 209.847C413.833 233.144 388.473 245.134 355.931 245.134C297.347 245.134 261.029 205.74 261.029 154.689C261.029 103.637 298.028 64.2441 352.155 64.2441C402.175 64.2441 439.174 102.956 439.174 154.689C439.174 161.88 438.483 168.731 437.121 175.242H315.496C321.997 193.06 337.762 199.23 356.602 199.23M388.123 136.88C382.634 117.008 367.219 109.817 351.805 109.817C332.273 109.817 319.262 119.412 314.455 136.88H388.123Z" fill="#0A0A0A"/>
<path d="M637.872 0.519531V240.343H586.48V224.237C575.172 237.258 558.385 245.131 535.438 245.131C490.556 245.131 453.557 205.738 453.557 154.686C453.557 103.635 490.556 64.2415 535.438 64.2415C558.395 64.2415 575.172 72.124 586.48 85.1448V0.519531H637.872ZM586.48 154.686C586.48 128.995 569.352 112.889 545.715 112.889C522.077 112.889 504.949 128.995 504.949 154.686C504.949 180.377 522.077 196.483 545.715 196.483C569.352 196.483 586.48 180.377 586.48 154.686Z" fill="#0A0A0A"/>
<path d="M662.522 154.689C662.522 103.637 702.946 64.2441 753.307 64.2441C803.668 64.2441 844.092 103.647 844.092 154.689C844.092 205.731 803.658 245.134 753.307 245.134C702.956 245.134 662.522 205.74 662.522 154.689ZM792.71 154.689C792.71 130.36 775.582 114.254 753.317 114.254C731.051 114.254 713.914 130.36 713.914 154.689C713.914 179.018 731.041 195.114 753.317 195.114C775.592 195.114 792.71 179.018 792.71 154.689Z" fill="#0A0A0A"/>
<path d="M851.615 212.591C851.615 194.782 866.349 180.049 884.157 180.049C901.966 180.049 916.7 194.782 916.7 212.591C916.7 230.4 901.966 245.143 884.157 245.143C866.349 245.143 851.615 230.419 851.615 212.591Z" fill="#0A0A0A"/>
</svg>
