<svg width="49" height="64" viewBox="0 0 49 64" fill="none" xmlns="http://www.w3.org/2000/svg">
<path d="M31.8819 41.9174C30.281 41.9174 28.987 43.863 28.987 46.2621C28.987 48.6612 30.281 50.6069 31.8819 50.6069C33.4829 50.6069 34.7769 48.6612 34.7769 46.2621C34.7769 43.863 33.4829 41.9174 31.8819 41.9174ZM35.2822 0H12.7745C5.72846 0 0 5.73317 0 12.7745V48.6186C0 50.5549 0.958677 52.3542 2.55962 53.4357C4.16057 54.5171 6.19127 54.7296 7.97167 54.0118L12.3306 52.2881V58.1818C12.3306 60.0661 13.2043 61.7804 14.7296 62.8855C15.7403 63.6222 16.9209 64 18.1204 64C18.7249 64 19.3388 63.9008 19.9386 63.7072L44.1889 55.8017C46.503 55.0508 48.0519 52.9067 48.0519 50.4746V12.7745C48.0567 5.73317 42.3282 0 35.2822 0ZM44.5242 50.4746C44.5242 51.3672 43.9481 52.1606 43.098 52.4392L18.843 60.3447C18.144 60.5762 17.3979 60.4581 16.8028 60.0236C16.2078 59.5891 15.863 58.9185 15.863 58.1818L15.8253 16.1369C15.9433 13.1854 12.2834 13.3932 12.3259 16.0708V48.4911L6.65407 50.7344C5.94097 51.0177 5.16647 50.9421 4.52892 50.5124C3.89138 50.0826 3.52775 49.3932 3.52775 48.6281V12.7839C3.52775 7.67887 7.6647 3.54191 12.7698 3.54191H35.2775C40.3825 3.54191 44.5195 7.67887 44.5195 12.7839V50.4746H44.5242Z" fill="#429EBE"/>
</svg>
