<svg width="259" height="266" viewBox="0 0 259 266" fill="none" xmlns="http://www.w3.org/2000/svg">
<path opacity="0.991" fill-rule="evenodd" clip-rule="evenodd" d="M94.2801 0.847656C101.041 2.0009 103.08 5.77736 100.398 12.1771C97.5602 15.091 94.3123 15.6197 90.6547 13.7632C87.4838 10.5299 87.1063 6.98 89.5218 3.11354C90.9479 1.9085 92.534 1.15323 94.2801 0.847656Z" fill="white"/>
<path opacity="0.993" fill-rule="evenodd" clip-rule="evenodd" d="M163.165 0.847656C169.621 1.81818 171.812 5.4436 169.736 11.7239C165.442 16.075 161.364 15.9239 157.501 11.2707C155.862 5.78167 157.75 2.30734 163.165 0.847656Z" fill="white"/>
<path opacity="0.989" fill-rule="evenodd" clip-rule="evenodd" d="M198.966 154.474C196.965 153.701 195.001 152.795 193.075 151.755C194.174 146.519 194.929 141.231 195.341 135.894C191.262 135.894 187.184 135.894 183.105 135.894C183.063 138.8 182.761 141.67 182.199 144.504C181.006 144.781 180.024 144.328 179.253 143.145C179.102 143.296 178.951 143.447 178.8 143.598C178.084 142.9 177.253 142.371 176.307 142.012C175.611 141.509 175.309 140.829 175.401 139.973C176.644 119.569 168.638 104.086 151.383 93.5219C133.57 84.8735 116.651 86.3087 100.627 97.8271C98.0591 97.0535 96.0198 95.8453 94.5089 94.2017C94.0072 94.7509 93.7807 94.6 93.8291 93.7485C95.4166 92.3876 96.9271 90.9524 98.3609 89.4433C96.6484 85.9421 94.76 82.5432 92.6962 79.2468C89.0925 81.7185 85.6937 84.4375 82.4997 87.404C80.3154 86.6907 78.3518 85.6334 76.6084 84.2318C80.5039 79.9588 84.8848 76.2581 89.7506 73.1289C87.1457 65.6882 82.0098 61.1565 74.3425 59.5336C66.489 59.307 58.6341 59.2314 50.7773 59.307C50.6368 62.3016 49.7305 65.0207 48.0583 67.4642C46.9367 66.5275 45.7285 65.9991 44.4329 65.8781C43.8333 65.5083 43.5315 64.9795 43.5265 64.292C46.9784 56.873 45.3166 50.906 38.5416 46.3915C31.2504 43.6103 25.51 45.4987 21.3208 52.0562C20.3775 52 19.6977 51.5468 19.2815 50.6967C18.1979 50.9464 17.3671 50.4932 16.7891 49.3371C20.049 42.941 25.336 39.6179 32.6503 39.3673C42.8495 40.2016 48.8917 45.6397 50.7773 55.6816C59.2486 55.6494 67.7076 55.7251 76.1552 55.9082C91.6326 45.5885 108.702 40.226 127.364 39.8204C127.364 36.195 127.364 32.5696 127.364 28.9442C119.688 26.7663 116.894 21.7813 118.98 13.9893C122.058 8.17604 126.816 6.13674 133.256 7.87146C140.245 11.6684 141.982 17.1821 138.467 24.4124C136.622 27.0325 134.13 28.5431 130.99 28.9442C130.99 32.5696 130.99 36.195 130.99 39.8204C149.702 40.0778 166.772 45.4403 182.199 55.9082C190.949 55.7301 199.711 55.6549 208.483 55.6816C210.083 45.54 216.05 40.1019 226.383 39.3673C237.632 40.3438 243.75 46.4617 244.737 57.7209C242.882 70.9047 235.329 76.796 222.078 75.3948C214 72.9848 209.469 67.6224 208.483 59.307C200.626 59.2314 192.771 59.307 184.918 59.5336C177.256 61.1501 172.12 65.6819 169.51 73.1289C171.918 75.3817 174.486 77.4967 177.214 79.4734C192.826 93.7417 200.983 111.491 201.685 132.722C208.636 132.797 215.584 132.722 222.531 132.495C225.72 119.189 234.029 114.054 247.456 117.087C257.733 122.231 261.132 130.313 257.653 141.332C252.854 150.489 245.376 153.888 235.22 151.529C227.994 148.836 223.764 143.699 222.531 136.121C215.584 135.894 208.636 135.818 201.685 135.894C201.707 142.239 200.801 148.432 198.966 154.474ZM120.113 43.4458C122.53 43.4458 124.947 43.4458 127.364 43.4458C127.364 49.4881 127.364 55.5307 127.364 61.5729C115.117 61.9799 103.636 65.1521 92.9228 71.0896C90.4312 65.124 86.3526 60.5922 80.687 57.4943C92.7964 49.8329 105.938 45.1502 120.113 43.4458ZM130.99 43.4458C148.097 43.6856 163.807 48.4439 178.12 57.7209C175.523 59.1085 173.182 60.846 171.096 62.9325C169.359 65.8024 167.621 68.6728 165.884 71.5428C155.136 65.192 143.504 61.8688 130.99 61.5729C130.99 55.5307 130.99 49.4881 130.99 43.4458ZM225.25 44.8054C235.047 45.6125 239.503 50.8997 238.619 60.6666C234.777 69.8008 228.357 72.2933 219.359 68.144C214.777 64.6754 213.04 60.0679 214.148 54.3221C215.995 48.9207 219.696 45.7484 225.25 44.8054ZM122.379 68.3706C124.041 68.3706 125.702 68.3706 127.364 68.3706C127.364 72.2983 127.364 76.2255 127.364 80.1532C118.164 80.5769 109.629 83.1451 101.76 87.8572C99.8714 84.3827 97.9834 80.9086 96.095 77.4341C104.246 72.5022 113.008 69.4809 122.379 68.3706ZM130.99 68.3706C140.184 68.5546 148.946 70.5939 157.274 74.4885C159.278 75.3681 161.091 76.501 162.712 77.8873C161.01 80.837 159.424 83.8584 157.954 86.9508C157.641 87.3392 157.264 87.641 156.821 87.8572C148.85 83.1867 140.24 80.6186 130.99 80.1532C130.99 76.2255 130.99 72.2983 130.99 68.3706ZM165.884 79.7C184.278 92.4569 194.097 110.131 195.341 132.722C191.262 132.722 187.184 132.722 183.105 132.722C182.102 114.851 174.549 100.5 160.446 89.6699C162.264 86.3345 164.077 83.0109 165.884 79.7ZM239.299 121.392C249.11 121.911 253.717 127.047 253.121 136.8C250.446 144.899 244.933 147.995 236.58 146.09C231.467 143.841 228.597 139.914 227.97 134.308C228.811 127.352 232.587 123.047 239.299 121.392Z" fill="white"/>
<path opacity="0.997" fill-rule="evenodd" clip-rule="evenodd" d="M71.6234 23.0547C81.2557 23.2427 85.41 28.0766 84.0858 37.5563C81.3586 43.9425 76.6002 46.2841 69.8107 44.5806C62.5005 40.6266 60.7635 34.9619 64.5992 27.5865C66.5202 25.3112 68.8618 23.8006 71.6234 23.0547Z" fill="white"/>
<path opacity="0.995" fill-rule="evenodd" clip-rule="evenodd" d="M182.649 23.0528C192.231 22.8919 196.536 27.5747 195.564 37.1013C192.005 44.9603 186.34 46.9996 178.57 43.2192C173.718 38.9607 172.736 33.9001 175.625 28.0378C177.417 25.5603 179.758 23.8986 182.649 23.0528Z" fill="white"/>
<path opacity="0.993" fill-rule="evenodd" clip-rule="evenodd" d="M30.8352 50.2442C37.6578 50.1473 40.6034 53.4704 39.6722 60.2141C37.332 64.6924 33.7822 65.9763 29.0225 64.0661C25.3131 61.2279 24.4823 57.6782 26.53 53.4165C27.6761 51.8825 29.1111 50.8252 30.8352 50.2442Z" fill="white"/>
<path opacity="0.994" fill-rule="evenodd" clip-rule="evenodd" d="M224.795 50.2441C231.879 50.3012 234.673 53.7753 233.179 60.6672C230.63 64.7141 227.08 65.847 222.529 64.066C218.146 60.2766 217.843 56.198 221.623 51.8303C222.722 51.2806 223.779 50.7522 224.795 50.2441Z" fill="white"/>
<path opacity="0.958" fill-rule="evenodd" clip-rule="evenodd" d="M16.7892 49.3379C17.3672 50.4939 18.198 50.9471 19.2816 50.6974C19.6978 51.5476 20.3776 52.0008 21.3209 52.057C18.7263 59.3037 20.6901 64.9684 27.2122 69.0511C33.8961 71.5359 39.3343 69.9497 43.5266 64.2927C43.5316 64.9802 43.8334 65.5091 44.433 65.8788C45.7286 65.9998 46.9368 66.5283 48.0584 67.465C43.3562 74.2989 36.8604 76.9427 28.5718 75.3956C17.5416 71.6972 13.0853 64.0689 15.203 52.5101C15.5067 51.2983 16.0354 50.2411 16.7892 49.3379Z" fill="white"/>
<path opacity="0.97" fill-rule="evenodd" clip-rule="evenodd" d="M76.6086 84.2324C78.3519 85.6341 80.3156 86.6914 82.4999 87.4047C78.1734 91.882 74.548 96.867 71.6236 102.359C71.4899 101.726 71.3386 101.047 71.1704 100.32C69.5748 99.5987 68.0644 98.7681 66.6387 97.8277C69.0899 92.6574 72.4131 88.1257 76.6086 84.2324Z" fill="white"/>
<path fill-rule="evenodd" clip-rule="evenodd" d="M38.5414 91.9375C45.8085 92.3263 48.301 95.9517 46.0188 102.814C42.0911 107.043 38.1639 107.043 34.2362 102.814C32.1054 97.7237 33.5406 94.0982 38.5414 91.9375Z" fill="white"/>
<path opacity="0.996" fill-rule="evenodd" clip-rule="evenodd" d="M217.091 91.9375C224.12 92.5525 226.461 96.1779 224.115 102.814C220.187 107.043 216.26 107.043 212.333 102.814C210.116 97.4509 211.702 93.8254 217.091 91.9375Z" fill="white"/>
<path fill-rule="evenodd" clip-rule="evenodd" d="M66.6376 97.8262C68.0633 98.7665 69.5737 99.5972 71.1694 100.319C71.3375 101.045 71.4889 101.725 71.6225 102.358C69.0444 106.765 67.0808 111.448 65.7312 116.406C65.1059 115.86 64.577 116.011 64.1451 116.86C63.8429 116.557 63.541 116.256 63.2388 115.953C62.6347 115.953 62.0302 115.953 61.4261 115.953C61.1238 114.745 60.822 114.745 60.5197 115.953C60.3688 115.5 60.2174 115.047 60.0665 114.594C59.9596 115.327 59.5821 115.781 58.9336 115.953C60.4531 109.421 63.0212 103.378 66.6376 97.8262Z" fill="white"/>
<path opacity="0.973" fill-rule="evenodd" clip-rule="evenodd" d="M93.8275 93.75C93.779 94.6015 94.0056 94.7524 94.5072 94.2032C96.0181 95.8468 98.0574 97.055 100.625 97.8286C95.7145 101.83 91.6359 106.513 88.3893 111.877C88.0853 111.267 88.0853 110.738 88.3893 110.291C86.3623 109.009 84.3982 108.027 82.498 107.345C85.2905 101.986 89.0673 97.4538 93.8275 93.75Z" fill="white"/>
<path fill-rule="evenodd" clip-rule="evenodd" d="M82.4988 107.344C84.3989 108.026 86.363 109.007 88.3901 110.289C88.086 110.736 88.086 111.265 88.3901 111.876C85.8174 117.026 84.156 122.464 83.4051 128.19C82.4349 127.948 81.6037 127.193 80.9127 125.924C79.8599 127.701 79.6333 127.55 80.2329 125.471C79.259 123.754 78.4283 123.905 77.7404 125.924C77.4381 124.111 77.1363 124.111 76.8341 125.924C76.7081 125.509 76.4815 125.207 76.1543 125.018C77.0208 118.64 79.1353 112.748 82.4988 107.344Z" fill="white"/>
<path opacity="0.974" fill-rule="evenodd" clip-rule="evenodd" d="M65.7295 116.406C64.3904 120.836 63.6354 125.368 63.4636 130.002C62.0597 130.041 61.9083 129.815 63.0104 129.322C62.3991 128.972 62.0216 128.443 61.8775 127.736C61.7266 128.189 61.5752 128.642 61.4243 129.095C59.8704 128.752 58.8131 127.695 58.2521 125.923C58.2181 127.027 57.8406 127.329 57.1191 126.83C57.3339 123.124 57.938 119.499 58.9318 115.953C59.5803 115.781 59.9578 115.327 60.0648 114.594C60.2157 115.047 60.3671 115.5 60.518 115.953C60.8202 114.745 61.1221 114.745 61.4243 115.953C62.0284 115.953 62.6329 115.953 63.237 115.953C63.5393 116.256 63.8411 116.557 64.1434 116.86C64.5753 116.011 65.1041 115.86 65.7295 116.406Z" fill="white"/>
<path fill-rule="evenodd" clip-rule="evenodd" d="M46.6975 132.722C47.0021 133.069 47.3796 133.372 47.8305 133.628C48.5252 133.427 49.205 133.276 49.8698 133.175C50.3792 135.541 50.7571 135.541 51.0027 133.175C51.305 135.592 51.6068 135.592 51.9091 133.175C52.06 133.779 52.2113 134.383 52.3623 134.988C52.5132 134.685 52.6645 134.383 52.8154 134.081C53.3157 134.486 53.8441 134.939 54.4016 135.441C48.2062 135.365 42.0131 135.441 35.8213 135.667C35.6858 136.265 35.6101 136.945 35.5947 137.707C34.9906 136.498 34.3861 135.29 33.782 134.081C33.3406 135.159 33.0383 135.007 32.8756 133.628C32.8249 134.964 32.1451 135.568 30.8364 135.441C30.7849 127.155 26.6308 122.472 18.374 121.392C16.1711 121.514 14.1318 122.118 12.2561 123.205C12.1279 122.847 11.9013 122.545 11.5763 122.299C11.1969 122.982 10.6682 123.208 9.99021 122.978C10.6477 122.056 10.4211 121.225 9.31045 120.486C8.85727 120.637 8.40409 120.788 7.95091 120.939C7.16764 120.553 7.09214 120.1 7.72433 119.58C13.3286 115.62 19.371 114.94 25.8514 117.54C32.2584 120.554 35.7325 125.615 36.2745 132.722C39.749 132.722 43.223 132.722 46.6975 132.722Z" fill="white"/>
<path fill-rule="evenodd" clip-rule="evenodd" d="M102.438 118.221C104.635 119.89 106.976 121.401 109.463 122.753C109.614 122.602 109.765 122.451 109.916 122.3C111.235 123.403 112.368 124.612 113.315 125.925C116.14 133.192 118.708 140.593 121.019 148.131C120.739 148.081 120.513 147.93 120.339 147.678C120.037 148.282 119.735 148.887 119.433 149.491C118.928 148.92 118.853 148.391 119.206 147.904C118.338 146.472 117.507 146.548 116.714 148.131C116.484 147.453 116.71 146.924 117.393 146.545C116.525 145.112 115.694 145.188 114.901 146.772C114.599 145.563 114.297 145.563 113.994 146.772C113.877 145.812 113.423 145.057 112.635 144.506C112.175 145.02 111.872 144.869 111.729 144.052C111.603 144.468 111.376 144.769 111.049 144.959C110.488 144.182 110.186 143.276 110.142 142.24C108.33 142.24 106.517 142.24 104.704 142.24C104.235 141.383 104.235 140.552 104.704 139.747C104.138 138.921 103.61 138.996 103.118 139.974C102.84 139.242 102.386 138.637 101.759 138.161C100.534 138.678 99.7788 138.225 99.4928 136.802C99.3419 137.255 99.1906 137.708 99.0397 138.161C98.6567 136.842 97.9013 136.388 96.7738 136.802C96.854 134.516 96.0985 134.365 94.5079 136.348C94.3819 135.933 94.1553 135.632 93.8281 135.442C95.7568 129.883 97.6452 124.294 99.4928 118.675C100.418 118.256 101.4 118.105 102.438 118.221ZM104.704 124.566C106.172 128.368 107.381 132.296 108.33 136.348C106.059 136.424 103.793 136.348 101.532 136.122C103.003 132.388 104.06 128.536 104.704 124.566Z" fill="white"/>
<path opacity="0.967" fill-rule="evenodd" clip-rule="evenodd" d="M102.439 118.221C105.309 118.221 108.18 118.221 111.05 118.221C111.895 120.757 112.65 123.325 113.316 125.925C112.369 124.611 111.236 123.403 109.917 122.299C109.766 122.45 109.615 122.602 109.464 122.752C106.977 121.4 104.636 119.89 102.439 118.221Z" fill="white"/>
<path fill-rule="evenodd" clip-rule="evenodd" d="M148.436 135.441C148.74 135.1 149.118 134.949 149.569 134.988C150.57 134.356 151.25 133.45 151.609 132.269C153.503 126.617 151.917 122.312 146.85 119.353C140.056 117.502 133.259 117.276 126.457 118.673C126.383 119.891 126.459 121.1 126.684 122.299C129.019 123.585 131.436 124.944 133.935 126.377C134.012 128.808 134.239 131.226 134.614 133.628C134.89 133.572 135.04 133.421 135.068 133.175C134.766 131.748 134.615 130.238 134.614 128.643C133.58 124.18 135.242 122.594 139.599 123.885C143.928 125.342 144.834 127.986 142.319 131.816C142.794 131.86 143.322 131.86 143.905 131.816C144.048 132.632 144.351 132.783 144.811 132.269C145.878 133.164 147.086 134.221 148.436 135.441Z" fill="white"/>
<path opacity="0.825" fill-rule="evenodd" clip-rule="evenodd" d="M157.273 118.221C157.198 122.453 157.273 126.683 157.5 130.91C160.339 132.615 162.982 134.126 165.43 135.441C165.43 140.577 165.43 145.714 165.43 150.849C162.56 150.849 159.69 150.849 156.82 150.849C156.67 139.895 156.821 129.019 157.273 118.221Z" fill="white"/>
<path fill-rule="evenodd" clip-rule="evenodd" d="M157.272 118.221C159.991 118.221 162.71 118.221 165.43 118.221C165.43 123.961 165.43 129.701 165.43 135.441C162.982 134.126 160.339 132.615 157.499 130.91C157.272 126.683 157.197 122.453 157.272 118.221Z" fill="white"/>
<path opacity="0.947" fill-rule="evenodd" clip-rule="evenodd" d="M126.456 118.674C126.382 119.892 126.457 121.1 126.683 122.299C129.018 123.585 131.435 124.944 133.933 126.378C134.011 128.809 134.238 131.226 134.613 133.629C134.888 133.572 135.039 133.422 135.066 133.175C137.641 133.434 140.058 132.981 142.317 131.816C142.793 131.86 143.321 131.86 143.903 131.816C144.047 132.632 144.349 132.783 144.81 132.269C145.876 133.165 147.085 134.222 148.435 135.441C148.739 135.101 149.117 134.949 149.568 134.988C147.728 137.246 145.311 138.531 142.317 138.84C140.347 139.051 138.383 139.278 136.426 139.52C136.615 139.193 136.917 138.966 137.332 138.84C136.206 138.166 135.224 137.335 134.387 136.348C133.594 136.71 132.99 136.408 132.574 135.441C131.868 135.824 131.415 135.522 131.214 134.535C131.063 134.686 130.912 134.837 130.761 134.988C129.28 134.067 128.071 133.161 127.136 132.269C126.645 133.78 126.267 135.291 126.003 136.801C125.854 130.678 126.005 124.636 126.456 118.674Z" fill="white"/>
<path fill-rule="evenodd" clip-rule="evenodd" d="M7.72544 119.58C7.09326 120.1 7.16876 120.554 7.95203 120.94C8.40521 120.789 8.85838 120.637 9.31156 120.486C10.4223 121.226 10.6488 122.056 9.99133 122.979C10.6693 123.209 11.198 122.982 11.5774 122.299C11.9025 122.546 12.1291 122.848 12.2572 123.205C8.58122 125.115 6.46638 128.136 5.91273 132.269C5.50623 131.771 5.1286 131.771 4.77979 132.269C4.47766 131.665 4.17557 131.06 3.87344 130.456C3.72239 130.759 3.5713 131.06 3.42026 131.363C3.02944 130.643 2.72731 129.888 2.51391 129.097C2.40097 129.606 2.17439 130.059 1.83414 130.456C1.41867 130.172 0.965491 130.021 0.474609 130.003C1.51066 125.504 3.92764 122.03 7.72544 119.58Z" fill="white"/>
<path opacity="0.989" fill-rule="evenodd" clip-rule="evenodd" d="M83.4061 128.192C82.8301 132.567 82.8301 136.948 83.4061 141.334C82.9996 140.836 82.6221 140.836 82.2731 141.334C82.1295 140.518 81.8272 140.367 81.3668 140.881C80.9521 140.505 80.6503 140.052 80.4604 139.521C80.3095 139.823 80.1581 140.125 80.0072 140.427C79.2495 139.062 78.3432 138.155 77.2882 137.708C77.1373 137.859 76.9859 138.011 76.835 138.162C76.3306 137.797 75.8022 137.495 75.2489 137.255C75.2489 136.802 75.2489 136.349 75.2489 135.896C74.0403 135.896 72.8321 135.896 71.6235 135.896C71.5559 135.419 71.6312 134.966 71.8501 134.536C72.3032 134.687 72.7564 134.838 73.2096 134.989C73.9501 134.314 73.7992 133.71 72.7564 133.177C71.3969 133.328 70.0373 133.479 68.6778 133.63C68.3529 133.383 68.1263 133.081 67.998 132.723C70.4148 132.723 72.8321 132.723 75.2489 132.723C75.2928 130.105 75.5951 127.538 76.1552 125.019C76.4824 125.209 76.709 125.511 76.835 125.926C77.1373 124.113 77.4391 124.113 77.7414 125.926C78.4293 123.907 79.2599 123.756 80.2338 125.473C79.6343 127.552 79.8609 127.703 80.9136 125.926C81.6047 127.195 82.4358 127.95 83.4061 128.192Z" fill="white"/>
<path fill-rule="evenodd" clip-rule="evenodd" d="M63.4648 130.004C63.4648 130.911 63.4648 131.817 63.4648 132.723C64.9753 132.723 66.4861 132.723 67.9966 132.723C68.1248 133.081 68.3514 133.383 68.6763 133.63C70.0359 133.479 71.3954 133.328 72.7549 133.177C73.7977 133.71 73.9486 134.314 73.2081 134.989C72.7549 134.838 72.3018 134.687 71.8486 134.536C71.6297 134.966 71.5545 135.419 71.622 135.896C68.9029 135.896 66.1839 135.896 63.4648 135.896C63.3406 138.054 63.4916 140.169 63.918 142.24C62.6998 142.003 62.0201 141.247 61.8787 139.974C61.7278 140.427 61.5764 140.881 61.4255 141.334C61.2152 138.762 60.913 138.611 60.5192 140.881C60.3293 138.908 60.027 138.757 59.6128 140.427C59.4501 139.048 59.1478 138.897 58.7065 139.974C58.2918 139.599 57.99 139.146 57.8001 138.615C57.496 138.956 57.1185 139.107 56.6672 139.068C56.6672 138.011 56.6672 136.953 56.6672 135.896C56.0241 135.465 55.2691 135.314 54.4013 135.442C53.8439 134.941 53.3155 134.488 52.8152 134.083C52.6642 134.385 52.5129 134.687 52.362 134.989C52.2111 134.385 52.0597 133.781 51.9088 133.177C51.6065 135.593 51.3047 135.593 51.0024 133.177C50.7568 135.543 50.3789 135.543 49.8695 133.177C49.2047 133.278 48.5249 133.429 47.8302 133.63C47.3793 133.373 47.0018 133.071 46.6973 132.723C50.0204 132.723 53.344 132.723 56.6672 132.723C56.5453 130.715 56.6962 128.751 57.1203 126.832C57.8418 127.332 58.2193 127.029 58.2533 125.926C58.8143 127.698 59.8716 128.755 61.4255 129.098C61.5764 128.645 61.7278 128.192 61.8787 127.738C62.0228 128.446 62.4003 128.975 63.0116 129.325C61.9095 129.817 62.0609 130.044 63.4648 130.004Z" fill="white"/>
<path fill-rule="evenodd" clip-rule="evenodd" d="M16.3345 126.831C23.3652 126.545 26.3108 129.868 25.1715 136.801C22.8447 141.281 19.2948 142.565 14.5218 140.653C10.8106 137.775 9.97978 134.226 12.0293 130.004C13.1754 128.47 14.6104 127.412 16.3345 126.831Z" fill="white"/>
<path opacity="0.994" fill-rule="evenodd" clip-rule="evenodd" d="M238.845 126.83C245.914 126.571 248.86 129.894 247.682 136.8C245.118 141.463 241.418 142.596 236.579 140.199C232.39 136.13 232.39 132.051 236.579 127.963C237.402 127.62 238.157 127.243 238.845 126.83Z" fill="white"/>
<path fill-rule="evenodd" clip-rule="evenodd" d="M136.427 139.518C135.88 139.186 135.275 139.035 134.614 139.065C134.614 142.993 134.614 146.92 134.614 150.848C131.744 150.848 128.874 150.848 126.004 150.848C126.004 146.165 126.004 141.482 126.004 136.799C126.268 135.289 126.646 133.778 127.137 132.268C128.072 133.159 129.281 134.065 130.762 134.987C130.913 134.836 131.065 134.684 131.215 134.533C131.416 135.521 131.869 135.823 132.575 135.44C132.991 136.406 133.595 136.708 134.388 136.346C135.225 137.334 136.207 138.165 137.333 138.839C136.918 138.965 136.616 139.191 136.427 139.518Z" fill="white"/>
<path fill-rule="evenodd" clip-rule="evenodd" d="M54.4017 135.442C55.2695 135.313 56.0245 135.464 56.6676 135.895C49.8699 135.895 43.0723 135.895 36.2746 135.895C36.0163 140.461 34.2036 144.238 30.8365 147.224C30.5689 146.929 30.2667 146.627 29.9302 146.318C30.3967 146.41 30.8498 146.184 31.2897 145.638C30.7452 145.229 30.3676 144.7 30.1567 144.052C29.7151 145.13 29.413 144.978 29.2504 143.599C28.9483 145.412 28.6462 145.412 28.344 143.599C28.1814 144.978 27.8793 145.13 27.4377 144.052C27.1186 145.061 26.59 145.212 25.8516 144.505C28.6675 142.137 30.3291 139.116 30.8365 135.442C32.1453 135.569 32.825 134.964 32.8758 133.629C33.0385 135.008 33.3408 135.16 33.7822 134.082C34.3862 135.291 34.9908 136.499 35.5949 137.707C35.6103 136.946 35.686 136.266 35.8215 135.668C42.0132 135.442 48.2063 135.366 54.4017 135.442Z" fill="white"/>
<path opacity="0.964" fill-rule="evenodd" clip-rule="evenodd" d="M104.703 142.238C103.163 142.093 101.652 142.244 100.171 142.691C99.431 145.367 98.5247 147.936 97.452 150.395C96.5021 149.519 95.8224 148.462 95.4127 147.223C95.2618 147.676 95.1104 148.13 94.9595 148.583C94.6573 147.979 94.3554 147.374 94.0532 146.77C93.9095 147.586 93.6072 147.737 93.1468 147.223C93.5927 146.272 93.4418 145.366 92.6936 144.504C91.9454 145.366 91.7945 146.272 92.2405 147.223C91.8258 146.848 91.524 146.395 91.3341 145.864C91.03 146.204 90.6525 146.356 90.2012 146.317C91.321 142.656 92.5291 139.03 93.8266 135.441C94.1538 135.63 94.3804 135.932 94.5064 136.347C96.097 134.364 96.8524 134.515 96.7722 136.8C97.8997 136.387 98.6552 136.84 99.0381 138.16C99.189 137.706 99.3404 137.253 99.4913 136.8C99.7773 138.224 100.533 138.677 101.757 138.16C102.385 138.636 102.838 139.24 103.117 139.972C103.608 138.995 104.137 138.919 104.703 139.746C104.233 140.551 104.233 141.381 104.703 142.238Z" fill="white"/>
<path fill-rule="evenodd" clip-rule="evenodd" d="M75.248 137.254C75.8014 137.493 76.3298 137.795 76.8342 138.16C76.9851 138.009 77.1364 137.858 77.2873 137.707C78.3423 138.154 79.2487 139.06 80.0064 140.426C80.1573 140.124 80.3087 139.822 80.4596 139.52C80.6495 140.051 80.9513 140.504 81.3659 140.879C81.8264 140.365 82.1286 140.516 82.2723 141.332C82.6212 140.835 82.9987 140.835 83.4052 141.332C84.3098 145.858 85.6693 150.239 87.4838 154.475C86.9174 154.51 86.5399 154.812 86.3509 155.381C86.0486 154.172 85.7468 154.172 85.4445 155.381C85.2442 154.394 84.791 154.092 84.085 154.475C83.1116 153.805 82.507 152.899 82.2723 151.756C81.97 153.568 81.6682 153.568 81.3659 151.756C81.0637 152.964 80.7619 152.964 80.4596 151.756C79.7898 151.624 79.11 151.624 78.4203 151.756C76.5917 147.144 75.5345 142.311 75.248 137.254Z" fill="white"/>
<path fill-rule="evenodd" clip-rule="evenodd" d="M63.9168 142.239C64.1307 145.638 64.7348 148.961 65.7296 152.209C65.0774 152.666 64.4733 152.515 63.9168 151.755C63.6032 151.993 63.3767 152.296 63.2371 152.662C62.6525 151.623 61.897 150.717 60.9712 149.943C60.3671 151.151 59.7626 151.151 59.1585 149.943C58.9849 150.195 58.7583 150.346 58.4787 150.396C57.5429 146.689 56.9384 142.913 56.666 139.066C57.1174 139.105 57.4949 138.954 57.799 138.613C57.9888 139.144 58.2907 139.598 58.7053 139.973C59.1467 138.895 59.449 139.047 59.6117 140.426C60.0259 138.756 60.3281 138.907 60.518 140.879C60.9118 138.61 61.2141 138.761 61.4244 141.332C61.5753 140.879 61.7266 140.426 61.8776 139.973C62.0189 141.246 62.6987 142.001 63.9168 142.239Z" fill="white"/>
<path opacity="0.991" fill-rule="evenodd" clip-rule="evenodd" d="M5.9114 132.268C5.50676 140.958 9.66085 145.792 18.3738 146.77C21.0672 146.601 23.5597 145.846 25.8512 144.504C26.5896 145.211 27.1183 145.06 27.4373 144.051C27.8789 145.128 28.181 144.977 28.3437 143.597C28.6458 145.41 28.9479 145.41 29.25 143.597C29.4127 144.977 29.7147 145.128 30.1564 144.051C30.3672 144.699 30.7449 145.227 31.2893 145.637C30.8495 146.182 30.3963 146.409 29.9298 146.316C30.2664 146.625 30.5685 146.928 30.8361 147.223C26.297 151.608 20.8589 153.194 14.5218 151.981C3.6771 148.61 -1.00571 141.284 0.473277 130.002C0.964158 130.02 1.41734 130.171 1.83281 130.455C2.17305 130.058 2.39964 129.605 2.51257 129.096C2.72597 129.887 3.02811 130.642 3.41893 131.362C3.56997 131.059 3.72106 130.758 3.8721 130.455C4.17424 131.059 4.47633 131.664 4.77846 132.268C5.12727 131.77 5.5049 131.77 5.9114 132.268Z" fill="white"/>
<path fill-rule="evenodd" clip-rule="evenodd" d="M97.4522 150.397C94.6674 150.846 91.7974 150.997 88.8418 150.85C89.1142 149.279 89.5673 147.768 90.2013 146.319C90.6527 146.358 91.0302 146.206 91.3343 145.865C91.5242 146.397 91.826 146.85 92.2406 147.225C91.7947 146.274 91.9456 145.368 92.6938 144.506C93.442 145.368 93.5929 146.274 93.147 147.225C93.6074 147.739 93.9097 147.588 94.0533 146.772C94.3556 147.376 94.6574 147.98 94.9597 148.584C95.1106 148.131 95.262 147.678 95.4129 147.225C95.8225 148.463 96.5023 149.521 97.4522 150.397Z" fill="white"/>
<path opacity="0.989" fill-rule="evenodd" clip-rule="evenodd" d="M121.019 148.131C121.58 148.908 121.882 149.814 121.925 150.85C118.9 150.926 115.879 150.85 112.862 150.624C112.03 148.809 111.426 146.921 111.049 144.959C111.376 144.77 111.603 144.468 111.729 144.053C111.872 144.869 112.175 145.02 112.635 144.506C113.423 145.057 113.877 145.812 113.994 146.772C114.297 145.563 114.599 145.563 114.901 146.772C115.694 145.188 116.525 145.113 117.393 146.545C116.71 146.925 116.484 147.453 116.714 148.131C117.507 146.548 118.338 146.472 119.206 147.905C118.853 148.391 118.928 148.92 119.433 149.491C119.735 148.887 120.037 148.282 120.339 147.678C120.513 147.93 120.739 148.081 121.019 148.131Z" fill="white"/>
<path opacity="0.97" fill-rule="evenodd" clip-rule="evenodd" d="M175.401 139.973C175.309 140.829 175.611 141.509 176.307 142.012C177.253 142.371 178.084 142.9 178.8 143.598C178.951 143.447 179.102 143.296 179.253 143.145C180.024 144.328 181.006 144.781 182.199 144.504C181.146 150.536 179.032 156.125 175.854 161.272C173.706 159.616 171.591 158.257 169.51 157.193C172.391 151.722 174.354 145.982 175.401 139.973Z" fill="white"/>
<path fill-rule="evenodd" clip-rule="evenodd" d="M65.7313 152.207C67.9745 159.564 71.2981 166.361 75.7012 172.6C75.4216 172.651 75.195 172.801 75.0214 173.053C73.8128 171.543 72.6046 170.032 71.396 168.522C70.9356 169.036 70.6333 168.885 70.4897 168.068C70.3387 168.371 70.1874 168.673 70.0365 168.975C69.2194 168.076 68.7662 167.169 68.677 166.256C68.2238 166.407 67.7706 166.558 67.3174 166.709C66.562 165.954 65.807 165.199 65.0515 164.443C64.2798 165.28 64.3555 166.111 65.2781 166.936C65.0262 167.109 64.8752 167.336 64.8249 167.615C61.7352 162.277 59.6202 156.537 58.4805 150.395C58.7601 150.344 58.9867 150.193 59.1602 149.941C59.7643 151.15 60.3689 151.15 60.9729 149.941C61.8988 150.715 62.6542 151.622 63.2388 152.66C63.3784 152.294 63.605 151.992 63.9186 151.754C64.4751 152.514 65.0792 152.665 65.7313 152.207Z" fill="white"/>
<path fill-rule="evenodd" clip-rule="evenodd" d="M169.507 157.193C171.589 158.257 173.704 159.616 175.852 161.272C172.602 167.241 168.221 172.226 162.71 176.227C162.76 175.947 162.911 175.721 163.163 175.547C162.239 174.987 161.71 174.156 161.577 173.055C161.274 172.45 160.972 172.45 160.67 173.055C160.368 171.846 160.066 171.846 159.764 173.055C159.613 172.601 159.462 172.148 159.311 171.695C159.008 171.091 158.707 171.091 158.404 171.695C158.454 171.12 158.378 170.667 158.178 170.335C162.788 166.634 166.565 162.254 169.507 157.193Z" fill="white"/>
<path opacity="0.971" fill-rule="evenodd" clip-rule="evenodd" d="M193.075 151.756C195.001 152.795 196.965 153.702 198.966 154.475C197.505 160.379 195.088 165.817 191.715 170.789C191.175 170.085 190.646 169.33 190.129 168.523C189.978 168.674 189.827 168.826 189.676 168.977C188.907 167.878 188.001 167.274 186.957 167.164C186.784 167.416 186.557 167.567 186.277 167.617C188.928 162.471 191.193 157.184 193.075 151.756Z" fill="white"/>
<path opacity="0.995" fill-rule="evenodd" clip-rule="evenodd" d="M37.6334 161.272C46.0847 161.033 48.7281 164.809 45.564 172.602C42.288 175.408 38.8892 175.559 35.3675 173.055C31.9624 168.318 32.7178 164.39 37.6334 161.272Z" fill="white"/>
<path fill-rule="evenodd" clip-rule="evenodd" d="M215.733 161.272C224.184 161.033 226.827 164.809 223.663 172.602C219.101 176.089 215.173 175.485 211.88 170.789C210.669 166.57 211.953 163.397 215.733 161.272Z" fill="white"/>
<path opacity="0.985" fill-rule="evenodd" clip-rule="evenodd" d="M75.7003 172.601C80.3825 178.869 85.8963 184.307 92.2412 188.915C93.4952 186.86 94.6281 184.745 95.6401 182.57C95.9002 183.036 96.0511 183.489 96.0932 183.93C96.565 182.801 96.9425 182.801 97.2262 183.93C97.3771 183.628 97.5284 183.326 97.6793 183.024C97.8987 183.784 98.2762 184.086 98.8123 183.93C98.0745 186.01 97.0925 187.974 95.8666 189.821C95.5272 190.336 95.6024 190.789 96.0932 191.181C104.202 196.004 112.963 198.873 122.377 199.791C123.198 200.365 124.029 200.969 124.87 201.604C125.021 201.302 125.172 201 125.323 200.698C125.676 201.973 126.28 202.728 127.136 202.963C127.577 201.886 127.88 202.037 128.042 203.417C128.456 201.747 128.759 201.898 128.949 203.87C129.099 203.266 129.251 202.661 129.402 202.057C129.565 203.012 129.867 203.919 130.308 204.776C130.749 203.698 131.052 203.85 131.214 205.229C131.365 204.776 131.517 204.323 131.668 203.87C132.121 203.719 132.574 203.567 133.027 203.417C133.5 203.925 133.802 204.53 133.934 205.229C134.984 204.1 135.362 204.251 135.066 205.682C135.723 205.987 136.327 206.289 136.879 206.589C135.034 206.468 133.222 206.619 131.441 207.042C130.988 213.077 130.837 219.119 130.988 225.169C130.794 221.947 130.341 218.472 129.628 214.746C129.924 213.315 129.546 213.164 128.495 214.293C128.344 214.142 128.193 213.991 128.042 213.84C127.977 211.23 127.751 208.964 127.362 207.042C120.017 206.7 112.918 205.341 106.063 202.963C106.258 200.934 105.427 199.272 103.571 197.978C103.117 198.129 102.664 198.281 102.211 198.432C101.224 197.8 100.771 197.045 100.852 196.166C99.9402 197.753 99.3362 197.753 99.0389 196.166C98.888 196.468 98.7366 196.77 98.5857 197.072C97.8303 196.166 97.0753 195.259 96.3198 194.353C96.1689 194.504 96.0175 194.655 95.8666 194.806C95.6663 193.819 95.2132 193.517 94.5071 193.9C94.0082 193.042 93.4041 192.739 92.6944 192.994C92.1927 191.638 91.4373 191.335 90.4285 192.087C90.0139 191.712 89.712 191.259 89.5222 190.728C89.3713 191.03 89.2199 191.332 89.069 191.634C88.2519 190.735 87.7987 189.829 87.7095 188.915C86.9191 189.158 86.0884 189.309 85.217 189.368C85.1282 188.549 84.5993 187.794 83.6309 187.102C83.1777 187.253 82.7245 187.404 82.2713 187.555C81.8182 186.951 81.365 186.347 80.9118 185.743C80.7609 186.045 80.6095 186.347 80.4586 186.649C80.3408 185.689 79.8876 184.934 79.0991 184.383C78.7855 184.621 78.5589 184.923 78.4193 185.289C79.0773 185.942 79.5305 186.697 79.7789 187.555C73.472 181.886 68.487 175.239 64.824 167.616C64.8743 167.336 65.0252 167.109 65.2772 166.936C64.3545 166.112 64.2788 165.28 65.0506 164.443C65.8061 165.199 66.561 165.954 67.3165 166.709C67.7697 166.558 68.2228 166.407 68.676 166.256C68.7653 167.17 69.2185 168.076 70.0356 168.975C70.1865 168.673 70.3378 168.371 70.4887 168.069C70.6324 168.885 70.9347 169.036 71.3951 168.522C72.6037 170.032 73.8119 171.543 75.0205 173.054C75.1941 172.802 75.4207 172.651 75.7003 172.601Z" fill="white"/>
<path fill-rule="evenodd" clip-rule="evenodd" d="M191.713 170.789C189.094 175.575 185.922 179.955 182.196 183.932C181.104 183.767 180.424 184.22 180.157 185.291C179.942 184.258 179.489 183.352 178.797 182.572C178.61 182.779 178.383 182.931 178.118 183.025C177.217 182.197 176.159 181.744 174.945 181.666C179.224 177.387 183 172.705 186.275 167.617C186.554 167.567 186.781 167.416 186.955 167.164C187.998 167.274 188.905 167.878 189.674 168.977C189.824 168.826 189.976 168.675 190.127 168.524C190.643 169.33 191.172 170.085 191.713 170.789Z" fill="white"/>
<path fill-rule="evenodd" clip-rule="evenodd" d="M121.926 187.555C114.487 186.712 107.613 184.295 101.306 180.305C100.577 181.622 99.7466 182.83 98.814 183.93C98.2779 184.086 97.9004 183.784 97.6811 183.024C97.5302 183.326 97.3788 183.628 97.2279 183.93C96.9442 182.801 96.5667 182.801 96.0949 183.93C96.0528 183.489 95.9019 183.036 95.6418 182.57C96.7085 181.195 97.3883 179.685 97.6811 178.039C92.9694 174.612 88.9665 170.533 85.6719 165.803C86.0199 165.457 86.2465 165.004 86.3516 164.443C86.5143 165.823 86.8166 165.974 87.258 164.897C87.5367 165.629 87.9899 166.233 88.6175 166.709C88.7684 166.407 88.9198 166.105 89.0707 165.803C89.8261 166.558 90.5811 167.313 91.3366 168.069C92.0426 167.686 92.4958 167.988 92.6961 168.975C92.847 168.824 92.9984 168.673 93.1493 168.522C93.9378 169.073 94.391 169.828 94.5088 170.788C94.8111 169.579 95.1129 169.579 95.4152 170.788C95.6028 170.581 95.8294 170.429 96.0949 170.335C97.145 170.666 98.127 171.421 99.0406 172.601C99.6587 172.257 100.188 172.484 100.627 173.28C100.127 174.042 100.278 174.721 101.08 175.32C100.987 174.853 101.214 174.4 101.76 173.96C102.803 173.919 103.559 174.523 104.026 175.773C104.39 174.685 104.768 174.76 105.158 175.999C104.636 176.414 104.711 176.791 105.385 177.132C105.536 176.679 105.687 176.226 105.838 175.773C105.962 176.602 106.34 177.281 106.971 177.812C105.916 178.716 106.218 179.245 107.878 179.398C108.191 179.16 108.418 178.858 108.557 178.492C109.01 179.247 109.464 180.002 109.917 180.758C110.219 179.549 110.521 179.549 110.823 180.758C110.974 180.455 111.125 180.154 111.276 179.851C111.88 180.758 112.485 181.664 113.089 182.57C113.55 182.057 113.852 182.207 113.995 183.024C114.146 182.721 114.298 182.42 114.449 182.117C114.58 182.817 114.882 183.421 115.355 183.93C115.796 182.852 116.099 183.004 116.261 184.383C116.412 183.93 116.564 183.477 116.714 183.024C116.846 183.723 117.148 184.327 117.621 184.836C117.772 184.534 117.923 184.232 118.074 183.93C118.527 184.685 118.98 185.44 119.434 186.196C119.584 185.894 119.736 185.592 119.887 185.289C120.351 186.281 121.031 187.036 121.926 187.555Z" fill="white"/>
<path opacity="0.987" fill-rule="evenodd" clip-rule="evenodd" d="M158.179 170.336C158.379 170.667 158.455 171.12 158.406 171.695C158.708 171.091 159.01 171.091 159.312 171.695C159.463 172.149 159.614 172.602 159.765 173.055C160.067 171.846 160.369 171.846 160.672 173.055C160.974 172.451 161.276 172.451 161.578 173.055C161.712 174.157 162.24 174.987 163.164 175.547C162.912 175.721 162.761 175.948 162.711 176.227C162.267 176.973 161.663 177.577 160.898 178.04C162.786 181.514 164.674 184.989 166.563 188.463C167.067 188.098 167.596 187.796 168.149 187.557C168.064 188.492 167.838 189.398 167.469 190.276C166.736 189.759 165.906 189.381 164.977 189.143C164.146 188.614 163.466 187.934 162.937 187.103C162.764 187.355 162.537 187.506 162.258 187.557C160.796 185.395 159.436 183.129 158.179 180.759C157.952 180.608 157.726 180.457 157.499 180.306C156.862 180.72 156.182 181.022 155.46 181.212C155.36 180.035 155.133 180.035 154.78 181.212C154.478 179.399 154.176 179.399 153.874 181.212C153.369 180.641 153.294 180.112 153.647 179.626C153.306 178.952 152.929 178.877 152.514 179.399C152.1 179.024 151.798 178.571 151.608 178.04C150.708 179.792 150.481 179.792 150.928 178.04C150.256 176.931 149.728 177.083 149.342 178.493C149.04 177.284 148.738 177.284 148.436 178.493C148.133 177.284 147.832 177.284 147.529 178.493C147.424 177.933 147.198 177.479 146.85 177.134C150.82 175.223 154.597 172.957 158.179 170.336Z" fill="white"/>
<path fill-rule="evenodd" clip-rule="evenodd" d="M87.4835 154.474C96.5941 171.275 110.794 180.036 130.082 180.758C129.799 181.667 130.177 182.422 131.215 183.024C131.908 182.509 132.512 182.056 133.028 181.664C133.785 183.03 134.692 183.937 135.747 184.384C136.207 183.87 136.51 184.021 136.653 184.837C137.095 183.759 137.397 183.91 137.56 185.29C137.974 183.62 138.276 183.771 138.466 185.743C138.617 185.29 138.768 184.837 138.919 184.384C139.19 185.632 139.87 186.538 140.958 187.103C137.665 187.703 134.342 188.004 130.988 188.009C130.615 189.585 130.389 191.246 130.309 192.994C129.26 191.634 128.278 190.576 127.363 189.822C127.363 189.218 127.363 188.613 127.363 188.009C125.505 188.128 123.692 187.977 121.925 187.556C121.03 187.036 120.35 186.281 119.886 185.29C119.735 185.592 119.583 185.894 119.432 186.196C118.979 185.441 118.526 184.686 118.073 183.93C117.922 184.233 117.771 184.534 117.62 184.837C117.147 184.328 116.845 183.724 116.713 183.024C116.562 183.477 116.411 183.93 116.26 184.384C116.098 183.004 115.795 182.853 115.354 183.93C114.881 183.421 114.579 182.817 114.447 182.118C114.297 182.42 114.145 182.722 113.994 183.024C113.851 182.208 113.548 182.057 113.088 182.571C112.484 181.664 111.879 180.758 111.275 179.852C111.124 180.154 110.973 180.456 110.822 180.758C110.52 179.55 110.218 179.55 109.916 180.758C109.463 180.003 109.009 179.248 108.556 178.492C108.417 178.858 108.19 179.161 107.876 179.399C106.217 179.245 105.915 178.717 106.97 177.812C106.339 177.282 105.961 176.602 105.837 175.773C105.686 176.226 105.535 176.68 105.384 177.133C104.71 176.791 104.634 176.414 105.157 176C104.767 174.761 104.389 174.685 104.024 175.773C103.558 174.524 102.802 173.919 101.759 173.96C101.213 174.401 100.986 174.854 101.079 175.32C100.277 174.722 100.126 174.042 100.626 173.281C100.186 172.484 99.6576 172.257 99.0395 172.601C98.1259 171.422 97.1438 170.666 96.0938 170.335C95.8283 170.43 95.6017 170.581 95.4141 170.788C95.1118 169.58 94.81 169.58 94.5077 170.788C94.3899 169.828 93.9367 169.073 93.1482 168.522C92.9973 168.673 92.8459 168.825 92.695 168.976C92.4947 167.988 92.0415 167.686 91.3355 168.069C90.58 167.314 89.825 166.559 89.0696 165.803C88.9187 166.106 88.7673 166.407 88.6164 166.71C87.9888 166.233 87.5356 165.629 87.2569 164.897C86.8155 165.975 86.5132 165.823 86.3505 164.444C86.2454 165.004 86.0188 165.458 85.6708 165.803C82.1917 161.717 79.7749 157.033 78.4199 151.755C79.1097 151.623 79.7894 151.623 80.4592 151.755C80.7615 152.963 81.0633 152.963 81.3656 151.755C81.6678 153.568 81.9697 153.568 82.2719 151.755C82.5067 152.898 83.1112 153.805 84.0846 154.474C84.7907 154.091 85.2439 154.393 85.4442 155.38C85.7464 154.172 86.0482 154.172 86.3505 155.38C86.5395 154.811 86.917 154.509 87.4835 154.474Z" fill="white"/>
<path fill-rule="evenodd" clip-rule="evenodd" d="M146.851 177.135C147.199 177.481 147.425 177.934 147.53 178.494C147.833 177.286 148.134 177.286 148.437 178.494C148.739 177.286 149.041 177.286 149.343 178.494C149.729 177.084 150.257 176.933 150.929 178.041C150.482 179.794 150.708 179.794 151.609 178.041C151.799 178.572 152.101 179.025 152.515 179.401C152.929 178.878 153.307 178.953 153.648 179.627C153.295 180.113 153.37 180.642 153.875 181.213C154.177 179.401 154.479 179.401 154.781 181.213C155.134 180.036 155.361 180.036 155.461 181.213C150.945 183.879 146.111 185.843 140.959 187.105C139.871 186.54 139.191 185.634 138.92 184.386C138.769 184.839 138.618 185.292 138.467 185.745C138.277 183.773 137.975 183.622 137.56 185.292C137.398 183.912 137.095 183.761 136.654 184.839C136.51 184.023 136.208 183.872 135.748 184.386C134.693 183.939 133.786 183.032 133.029 181.667C132.513 182.058 131.909 182.511 131.216 183.026C130.178 182.424 129.8 181.669 130.083 180.76C135.786 180.356 141.375 179.147 146.851 177.135Z" fill="white"/>
<path opacity="0.981" fill-rule="evenodd" clip-rule="evenodd" d="M174.947 181.664C176.161 181.742 177.219 182.196 178.119 183.024C178.385 182.929 178.611 182.778 178.799 182.57C179.491 183.35 179.944 184.257 180.158 185.289C180.425 184.219 181.105 183.765 182.198 183.93C179.003 187.276 175.528 190.298 171.775 192.993C171.444 192.444 170.991 191.991 170.415 191.634C170.51 191.368 170.661 191.142 170.868 190.954C170.187 190.279 169.809 189.448 169.735 188.462C169.66 190.279 169.282 190.506 168.602 189.141C168.589 188.494 168.74 187.814 169.056 187.102C171.007 185.302 172.971 183.489 174.947 181.664Z" fill="white"/>
<path fill-rule="evenodd" clip-rule="evenodd" d="M168.15 187.557C168.305 187.177 168.607 187.026 169.056 187.104C168.74 187.816 168.59 188.496 168.603 189.143C169.283 190.508 169.661 190.281 169.736 188.463C169.81 189.45 170.187 190.28 170.869 190.956C170.662 191.143 170.511 191.37 170.416 191.636C170.991 191.993 171.445 192.446 171.775 192.995C171.042 193.426 170.438 194.03 169.963 194.808C172.308 201.61 176.991 205.764 184.011 207.27C188.843 207.497 193.677 207.573 198.513 207.497C199.015 207.855 199.62 208.081 200.326 208.177C199.872 208.327 199.419 208.479 198.966 208.63C199.985 209.499 201.042 210.027 202.138 210.216C202.289 210.14 202.441 210.065 202.591 209.989C202.087 209.278 201.483 208.674 200.779 208.177C203.196 207.874 205.613 207.874 208.03 208.177C206.368 208.327 204.706 208.479 203.045 208.63C203.271 208.856 203.498 209.083 203.724 209.31C204.328 209.31 204.933 209.31 205.537 209.31C205.707 209.725 205.933 210.103 206.217 210.442C205.656 210.548 205.203 210.774 204.857 211.122C197.909 211.122 190.96 211.122 184.011 211.122C183.911 209.945 183.684 209.945 183.331 211.122C183.029 209.914 182.727 209.914 182.425 211.122C182.281 210.306 181.979 210.155 181.519 210.669C180.8 210.272 180.347 209.668 180.159 208.856C179.834 209.103 179.608 209.405 179.479 209.763C173.434 207.115 169.128 202.735 166.564 196.621C164.838 197.596 163.101 198.503 161.352 199.34C161.085 198.766 160.858 198.162 160.673 197.527C160.522 197.829 160.37 198.131 160.219 198.433C159.778 197.576 159.476 196.67 159.313 195.714C159.123 197.686 158.821 197.837 158.407 196.167C158.256 196.47 158.104 196.771 157.954 197.074C157.651 196.47 157.349 195.865 157.047 195.261C156.745 196.47 156.443 196.47 156.141 195.261C155.99 195.563 155.839 195.865 155.688 196.167C155.499 195.598 155.121 195.296 154.555 195.261C157.605 193.81 160.626 192.224 163.618 190.503C162.977 189.6 162.524 188.617 162.259 187.557C162.538 187.507 162.765 187.356 162.938 187.104C163.467 187.935 164.147 188.614 164.978 189.143C165.907 189.382 166.737 189.759 167.47 190.276C167.839 189.399 168.065 188.492 168.15 187.557Z" fill="white"/>
<path opacity="0.988" fill-rule="evenodd" clip-rule="evenodd" d="M106.064 202.965C101.153 201.529 96.5452 199.414 92.2418 196.621C90.6747 200.974 88.0309 204.448 84.3112 207.044C84.3448 206.178 84.7979 205.649 85.6708 205.457C85.7365 204.589 85.5099 203.759 84.991 202.965C83.8843 203.727 83.2802 204.633 83.1783 205.684C82.8085 205.085 82.2796 204.783 81.5922 204.778C85.0454 202.339 87.4622 199.091 88.843 195.034C85.756 192.628 82.7351 190.136 79.7795 187.557C79.5311 186.699 79.0779 185.944 78.4199 185.291C78.5595 184.925 78.7861 184.623 79.0997 184.385C79.8882 184.936 80.3414 185.691 80.4592 186.651C80.6101 186.348 80.7615 186.047 80.9124 185.744C81.3656 186.348 81.8187 186.953 82.2719 187.557C82.7251 187.406 83.1783 187.255 83.6315 187.104C84.5999 187.795 85.1288 188.551 85.2176 189.37C86.089 189.311 86.9197 189.159 87.71 188.917C87.7993 189.83 88.2525 190.736 89.0696 191.636C89.2205 191.333 89.3718 191.032 89.5228 190.729C89.7126 191.26 90.0145 191.714 90.4291 192.089C91.4379 191.337 92.1933 191.639 92.695 192.995C93.4047 192.741 94.0088 193.043 94.5077 193.901C95.2138 193.519 95.6669 193.82 95.8672 194.808C96.0181 194.657 96.1695 194.506 96.3204 194.355C97.0759 195.261 97.8308 196.167 98.5863 197.074C98.7372 196.771 98.8886 196.47 99.0395 196.167C99.3368 197.754 99.9408 197.754 100.852 196.167C100.772 197.047 101.225 197.802 102.212 198.433C102.665 198.282 103.118 198.131 103.571 197.98C105.428 199.274 106.259 200.936 106.064 202.965Z" fill="white"/>
<path fill-rule="evenodd" clip-rule="evenodd" d="M130.987 188.01C130.987 192.088 130.987 196.167 130.987 200.246C134.653 200.057 138.278 199.603 141.864 198.886C142.296 199.888 142.976 200.038 143.903 199.339C144.205 200.548 144.507 200.548 144.809 199.339C145.251 200.417 145.553 200.265 145.716 198.886C145.878 200.265 146.181 200.417 146.622 199.339C147.377 200.396 148.132 201.454 148.888 202.511C149.039 202.209 149.19 201.907 149.341 201.605C149.914 202.357 150.14 203.113 150.021 203.871C145.716 205.124 141.336 206.031 136.879 206.59C136.327 206.29 135.723 205.988 135.066 205.684C135.362 204.253 134.984 204.101 133.933 205.23C133.802 204.531 133.5 203.927 133.027 203.418C132.573 203.569 132.12 203.72 131.667 203.871C131.516 204.324 131.365 204.777 131.214 205.23C131.051 203.851 130.749 203.7 130.308 204.777C129.867 203.92 129.564 203.014 129.401 202.058C129.25 202.662 129.099 203.267 128.948 203.871C128.758 201.899 128.456 201.748 128.042 203.418C127.879 202.038 127.577 201.887 127.135 202.965C126.28 202.729 125.676 201.974 125.323 200.699C125.172 201.001 125.02 201.303 124.869 201.605C124.028 200.971 123.198 200.367 122.377 199.792C124.024 200.071 125.686 200.222 127.362 200.246C127.362 196.771 127.362 193.297 127.362 189.822C128.277 190.577 129.259 191.635 130.308 192.995C130.388 191.247 130.614 189.585 130.987 188.01Z" fill="white"/>
<path fill-rule="evenodd" clip-rule="evenodd" d="M44.4304 195.259C44.7327 196.468 45.4877 197.223 46.6963 197.525C48.6414 199.906 49.85 202.625 50.3217 205.682C50.3217 206.438 50.3217 207.193 50.3217 207.948C54.8966 207.665 59.3526 207.967 63.6905 208.855C64.1319 207.777 64.4341 207.928 64.5968 209.308C64.8157 208.878 64.8909 208.425 64.8234 207.948C66.1363 207.778 67.3444 208.005 68.4488 208.628C67.9045 209.037 67.5266 209.566 67.3159 210.214C66.4154 208.462 66.1888 208.462 66.6361 210.214C66.2586 210.365 65.8807 210.516 65.5032 210.667C60.6002 210.568 55.5401 210.568 50.3217 210.667C49.9945 210.857 49.768 211.159 49.642 211.574C48.7356 210.667 47.8293 209.761 46.9229 208.855C46.186 209.514 45.6576 210.269 45.3368 211.121C45.1478 201.34 40.1629 196.581 30.382 196.845C28.616 197.307 26.9543 197.987 25.397 198.885C24.8944 198.911 24.4413 199.062 24.0375 199.338C23.6895 198.992 23.4629 198.539 23.3577 197.978C22.8377 198.413 22.3845 198.262 21.9982 197.525C21.6883 196.943 21.7638 196.415 22.2248 195.939C21.7952 195.72 21.342 195.645 20.8652 195.713C24.156 192.473 28.1591 190.963 32.8744 191.181C37.2412 191.15 41.0932 192.51 44.4304 195.259Z" fill="white"/>
<path fill-rule="evenodd" clip-rule="evenodd" d="M241.562 219.28C240.314 218.921 239.332 218.317 238.617 217.468C238.202 217.991 237.825 217.915 237.484 217.241C237.786 217.09 238.088 216.939 238.39 216.788C237.743 216.525 237.138 216.601 236.577 217.014C240.712 209.541 239.352 203.272 232.499 198.208C224.773 195.067 218.882 197.106 214.825 204.325C214.477 203.98 214.25 203.527 214.145 202.966C213.994 203.268 213.843 203.57 213.692 203.872C213.205 203.366 212.677 202.912 212.106 202.513C212.091 201.838 211.864 201.234 211.426 200.7C211.122 201.041 210.744 201.192 210.293 201.153C214.405 193.357 220.9 190.109 229.78 191.41C241.109 194.651 245.868 202.128 244.055 213.842C243.574 215.859 242.743 217.672 241.562 219.28Z" fill="white"/>
<path fill-rule="evenodd" clip-rule="evenodd" d="M154.552 195.262C155.119 195.297 155.496 195.599 155.685 196.168C155.836 195.866 155.987 195.564 156.138 195.262C156.441 196.47 156.742 196.47 157.045 195.262C157.347 195.866 157.649 196.47 157.951 197.074C158.102 196.772 158.253 196.47 158.404 196.168C158.818 197.838 159.121 197.687 159.311 195.715C159.474 196.67 159.776 197.577 160.217 198.434C160.368 198.132 160.519 197.83 160.67 197.528C160.856 198.163 161.083 198.767 161.35 199.34C157.729 201.226 153.952 202.736 150.02 203.872C150.14 203.114 149.914 202.358 149.341 201.606C149.19 201.908 149.038 202.21 148.888 202.513C148.132 201.455 147.377 200.398 146.622 199.34C146.18 200.418 145.878 200.267 145.715 198.887C145.553 200.267 145.25 200.418 144.809 199.34C144.507 200.549 144.205 200.549 143.903 199.34C142.976 200.04 142.296 199.889 141.863 198.887C146.217 198.101 150.447 196.892 154.552 195.262Z" fill="white"/>
<path fill-rule="evenodd" clip-rule="evenodd" d="M20.8664 195.713C21.3432 195.646 21.7963 195.721 22.226 195.94C21.765 196.415 21.6895 196.944 21.9994 197.526C22.3857 198.263 22.8389 198.413 23.3589 197.979C23.4641 198.54 23.6907 198.993 24.0387 199.339C24.0387 199.49 24.0387 199.641 24.0387 199.792C19.3065 205.215 18.8534 210.956 22.6791 217.013C22.9813 218.221 23.7365 218.976 24.945 219.279C31.3026 223.322 37.1939 222.718 42.6189 217.466C43.2561 217.252 43.5584 216.798 43.5253 216.106C44.2599 214.487 44.864 212.826 45.338 211.121C45.6588 210.27 46.1872 209.515 46.9241 208.856C47.8304 209.762 48.7368 210.668 49.6432 211.575C49.7691 211.159 49.9957 210.858 50.3229 210.668C50.3229 211.424 50.3229 212.179 50.3229 212.934C49.8512 215.991 48.6425 218.71 46.6975 221.091C45.6783 221.354 44.9233 221.958 44.4316 222.904C41.2095 226.095 37.2819 227.606 32.649 227.436C22.8379 226.764 16.871 221.627 14.7485 212.028C14.4234 209.433 14.5745 206.866 15.2017 204.324C15.5688 202.381 16.3996 200.719 17.6942 199.339C18.3315 199.124 18.6336 198.671 18.6005 197.979C19.2048 197.073 19.9601 196.317 20.8664 195.713Z" fill="white"/>
<path opacity="0.816" fill-rule="evenodd" clip-rule="evenodd" d="M44.4316 195.262C45.338 195.866 46.0934 196.621 46.6975 197.528C45.4889 197.225 44.7339 196.47 44.4316 195.262Z" fill="white"/>
<path opacity="0.902" fill-rule="evenodd" clip-rule="evenodd" d="M18.6002 197.979C18.6333 198.671 18.3312 199.124 17.6939 199.338C17.6608 198.646 17.9629 198.193 18.6002 197.979Z" fill="white"/>
<path opacity="0.063" fill-rule="evenodd" clip-rule="evenodd" d="M25.3986 198.885C25.1842 199.522 24.731 199.824 24.0391 199.791C24.0391 199.64 24.0391 199.489 24.0391 199.338C24.4428 199.062 24.896 198.911 25.3986 198.885Z" fill="white"/>
<path opacity="0.975" fill-rule="evenodd" clip-rule="evenodd" d="M214.826 204.323C213.535 208.149 213.685 211.925 215.279 215.652C214.695 215.399 214.317 214.946 214.146 214.293C213.995 214.595 213.844 214.897 213.693 215.199C213.414 214.467 212.961 213.863 212.334 213.386C212.174 214.1 211.871 214.855 211.427 215.652C210.656 214.815 210.731 213.984 211.654 213.16C211.427 212.933 211.201 212.706 210.974 212.48C210.394 212.426 209.865 212.653 209.388 213.16C209.747 213.651 210.05 214.18 210.294 214.746C209.977 214.876 209.675 215.027 209.388 215.199C208.655 213.988 208.352 212.629 208.482 211.12C207.273 211.12 206.065 211.12 204.856 211.12C205.202 210.772 205.655 210.546 206.216 210.441C205.932 210.101 205.705 209.723 205.536 209.308C204.932 209.308 204.327 209.308 203.723 209.308C203.497 209.081 203.27 208.854 203.043 208.628C204.705 208.477 206.367 208.326 208.028 208.175C205.612 207.872 203.194 207.872 200.778 208.175C201.481 208.672 202.085 209.276 202.59 209.987C202.439 210.063 202.288 210.138 202.137 210.214C201.041 210.025 199.984 209.497 198.965 208.628C199.418 208.477 199.871 208.326 200.324 208.175C199.618 208.08 199.014 207.853 198.512 207.495C201.835 207.495 205.158 207.495 208.482 207.495C208.457 205.157 209.061 203.042 210.294 201.15C210.746 201.189 211.123 201.038 211.427 200.697C211.865 201.231 212.092 201.835 212.107 202.51C212.678 202.91 213.206 203.363 213.693 203.87C213.844 203.567 213.995 203.265 214.146 202.963C214.251 203.524 214.478 203.977 214.826 204.323Z" fill="white"/>
<path fill-rule="evenodd" clip-rule="evenodd" d="M30.3842 202.058C37.636 201.53 40.7325 204.853 39.6744 212.028C37.0835 216.617 33.3824 217.75 28.5715 215.427C25.5247 212.932 24.6939 209.835 26.079 206.137C27.1693 204.366 28.6043 203.006 30.3842 202.058Z" fill="white"/>
<path fill-rule="evenodd" clip-rule="evenodd" d="M232.046 213.84C231.922 212.779 231.544 212.779 230.913 213.84C230.611 212.027 230.309 212.027 230.007 213.84C229.566 212.983 229.264 212.076 229.101 211.121C229.05 212.242 228.596 213.148 227.741 213.84C227.191 213.138 226.511 212.61 225.702 212.254C226.004 212.103 226.306 211.952 226.608 211.801C225.778 211.574 225.249 211.045 225.022 210.215C224.871 210.517 224.72 210.819 224.569 211.121C223.965 210.215 223.36 209.308 222.756 208.402C222.454 209.61 222.152 209.61 221.85 208.402C221.699 208.704 221.548 209.006 221.397 209.308C220.956 208.451 220.654 207.544 220.49 206.589C220.268 207.175 220.193 207.78 220.264 208.402C219.811 208.402 219.357 208.402 218.904 208.402C220.872 202.359 224.8 200.622 230.687 203.19C234.13 206.436 234.583 209.987 232.046 213.84Z" fill="white"/>
<path fill-rule="evenodd" clip-rule="evenodd" d="M84.3125 207.043C82.7309 208.364 80.9182 209.346 78.8744 209.989C91.3956 218.267 105.142 223.177 120.113 224.717C120.568 225.253 120.946 225.858 121.246 226.53C121.772 225.489 122.225 225.64 122.606 226.983C123.081 226.522 123.61 226.447 124.192 226.757C122.983 227.059 122.983 227.361 124.192 227.663C123.855 228.134 123.402 228.36 122.833 228.343C105.026 227.291 88.8624 221.626 74.3426 211.349C66.489 211.122 58.6341 211.046 50.7774 211.122C50.8988 211.847 50.7475 212.451 50.3242 212.935C50.3242 212.179 50.3242 211.424 50.3242 210.669C55.5426 210.57 60.6027 210.57 65.5056 210.669C65.8831 210.518 66.2611 210.367 66.6386 210.216C66.1913 208.463 66.4179 208.463 67.3184 210.216C67.5291 209.567 67.907 209.039 68.4513 208.63C67.3469 208.006 66.1387 207.78 64.8259 207.95C64.8934 208.427 64.8182 208.88 64.5993 209.309C64.4366 207.93 64.1343 207.778 63.6929 208.856C59.3551 207.968 54.899 207.666 50.3242 207.95C50.3242 207.194 50.3242 206.439 50.3242 205.684C50.7475 206.168 50.8988 206.772 50.7774 207.497C58.9359 207.572 67.0931 207.497 75.249 207.27C77.523 206.811 79.638 205.981 81.5934 204.778C82.2809 204.783 82.8098 205.084 83.1795 205.684C83.2815 204.633 83.8856 203.727 84.9923 202.965C85.5111 203.758 85.7377 204.589 85.672 205.457C84.7992 205.649 84.346 206.177 84.3125 207.043Z" fill="white"/>
<path opacity="0.988" fill-rule="evenodd" clip-rule="evenodd" d="M232.046 213.841C231.247 215.226 230.039 216.056 228.421 216.333C222.446 217.081 219.274 214.438 218.904 208.403C219.357 208.403 219.811 208.403 220.264 208.403C220.193 207.78 220.268 207.176 220.49 206.59C220.654 207.545 220.956 208.451 221.397 209.309C221.548 209.007 221.699 208.705 221.85 208.403C222.152 209.611 222.454 209.611 222.756 208.403C223.36 209.309 223.965 210.215 224.569 211.122C224.72 210.819 224.871 210.518 225.022 210.215C225.249 211.046 225.778 211.575 226.608 211.801C226.306 211.952 226.004 212.104 225.702 212.255C226.511 212.61 227.191 213.139 227.741 213.841C228.596 213.149 229.05 212.243 229.101 211.122C229.264 212.077 229.566 212.983 230.007 213.841C230.309 212.028 230.611 212.028 230.913 213.841C231.544 212.779 231.922 212.779 232.046 213.841Z" fill="#FFFFFE"/>
<path fill-rule="evenodd" clip-rule="evenodd" d="M184.011 211.121C180.707 213.835 177.082 216.1 173.135 217.919C173.102 217.053 172.648 216.524 171.776 216.333C171.927 216.182 172.078 216.031 172.229 215.88C171.551 215.65 171.022 215.877 170.643 216.559C170.432 216.29 170.357 215.988 170.416 215.653C173.592 213.915 176.613 211.951 179.48 209.762C179.608 209.404 179.834 209.102 180.159 208.855C180.347 209.667 180.801 210.271 181.519 210.668C181.979 210.154 182.282 210.305 182.425 211.121C182.728 209.913 183.029 209.913 183.332 211.121C183.685 209.944 183.911 209.944 184.011 211.121Z" fill="white"/>
<path opacity="0.995" fill-rule="evenodd" clip-rule="evenodd" d="M130.99 225.17C135.385 225.068 139.766 224.765 144.132 224.264C145.102 224.377 146.083 224.528 147.077 224.717C147.908 223.433 148.588 223.508 149.117 224.943C148.813 225.39 148.813 225.919 149.117 226.53C143.218 227.933 137.176 228.689 130.99 228.795C130.99 231.817 130.99 234.838 130.99 237.859C130.602 235.785 130.375 233.368 130.31 230.608C130.159 230.759 130.007 230.91 129.857 231.061C129.631 227.888 129.33 227.736 128.95 230.608C128.314 230.05 127.785 229.446 127.364 228.795C125.759 228.937 124.249 228.786 122.832 228.342C123.402 228.36 123.855 228.133 124.192 227.663C122.983 227.36 122.983 227.058 124.192 226.756C123.61 226.446 123.081 226.522 122.606 226.983C122.225 225.64 121.772 225.489 121.246 226.53C120.946 225.857 120.568 225.253 120.113 224.717C122.509 225.098 124.926 225.25 127.364 225.17C127.364 219.128 127.364 213.085 127.364 207.043C127.752 208.965 127.979 211.231 128.044 213.841C128.195 213.992 128.346 214.143 128.497 214.294C129.548 213.164 129.926 213.316 129.63 214.747C130.343 218.473 130.796 221.948 130.99 225.17Z" fill="white"/>
<path fill-rule="evenodd" clip-rule="evenodd" d="M215.278 215.655C218.261 220.167 222.491 222.282 227.967 221.999C228.572 222.683 229.101 223.439 229.553 224.265C229.855 223.056 230.157 223.056 230.459 224.265C230.767 225.216 230.691 226.122 230.233 226.984C222.918 228.347 216.8 226.233 211.879 220.64C210.676 218.988 209.845 217.175 209.387 215.201C209.674 215.029 209.976 214.878 210.293 214.748C210.048 214.183 209.746 213.654 209.387 213.162C209.863 212.655 210.392 212.428 210.973 212.482C211.199 212.709 211.426 212.936 211.653 213.162C210.73 213.986 210.654 214.818 211.426 215.655C211.87 214.857 212.172 214.102 212.332 213.389C212.96 213.865 213.413 214.469 213.692 215.201C213.843 214.899 213.994 214.597 214.145 214.295C214.316 214.949 214.693 215.402 215.278 215.655Z" fill="white"/>
<path fill-rule="evenodd" clip-rule="evenodd" d="M170.413 215.652C170.354 215.987 170.43 216.29 170.64 216.559C171.019 215.876 171.548 215.649 172.226 215.879C172.075 216.03 171.924 216.181 171.773 216.332C172.646 216.523 173.099 217.052 173.133 217.918C169.245 220.087 165.167 221.9 160.897 223.356C160.947 223.077 161.098 222.85 161.35 222.677C160.502 221.557 159.596 220.877 158.631 220.637C162.524 218.984 166.451 217.323 170.413 215.652Z" fill="white"/>
<path opacity="0.816" fill-rule="evenodd" clip-rule="evenodd" d="M43.524 216.105C43.5571 216.797 43.2548 217.251 42.6177 217.465C42.5846 216.773 42.8869 216.32 43.524 216.105Z" fill="white"/>
<path opacity="0.816" fill-rule="evenodd" clip-rule="evenodd" d="M22.6777 217.012C23.5841 217.616 24.3394 218.371 24.9436 219.278C23.7351 218.975 22.9799 218.22 22.6777 217.012Z" fill="white"/>
<path opacity="0.943" fill-rule="evenodd" clip-rule="evenodd" d="M241.564 219.28C238.906 223.441 235.13 226.009 230.235 226.984C230.693 226.122 230.768 225.216 230.461 224.265C230.159 223.056 229.857 223.056 229.555 224.265C229.103 223.439 228.574 222.683 227.969 221.999C231.324 221.153 234.194 219.491 236.579 217.014C237.14 216.601 237.745 216.525 238.392 216.788C238.09 216.938 237.788 217.09 237.485 217.241C237.827 217.915 238.204 217.99 238.618 217.467C239.334 218.317 240.316 218.921 241.564 219.28Z" fill="white"/>
<path opacity="0.981" fill-rule="evenodd" clip-rule="evenodd" d="M158.633 220.639C159.598 220.878 160.504 221.558 161.352 222.678C161.1 222.852 160.949 223.078 160.898 223.358C157.078 224.782 153.15 225.839 149.116 226.53C148.812 225.92 148.812 225.391 149.116 224.944C148.587 223.509 147.907 223.433 147.077 224.717C146.083 224.528 145.101 224.377 144.131 224.264C148.941 223.168 153.775 221.96 158.633 220.639Z" fill="white"/>
<path opacity="0.063" fill-rule="evenodd" clip-rule="evenodd" d="M46.6975 221.092C46.2058 222.038 45.4508 222.642 44.4316 222.905C44.9233 221.959 45.6783 221.355 46.6975 221.092Z" fill="white"/>
<path fill-rule="evenodd" clip-rule="evenodd" d="M84.3124 231.063C83.9852 231.252 83.7586 231.554 83.6327 231.969C82.8881 230.847 82.0574 229.79 81.1402 228.797C80.5982 228.954 80.5982 229.18 81.1402 229.477C80.5764 229.683 80.1989 229.457 80.0072 228.797C79.8563 229.099 79.705 229.401 79.5541 229.703C79.0646 228.572 78.4601 227.515 77.7414 226.531C77.4391 227.74 77.1373 227.74 76.835 226.531C76.6841 226.833 76.5327 227.135 76.3818 227.438C75.4737 225.922 74.4164 224.865 73.2096 224.265C72.9073 225.474 72.6055 225.474 72.3032 224.265C72.1523 224.416 72.001 224.568 71.8501 224.718C71.4408 224.174 70.9124 223.796 70.2639 223.586C70.8059 223.289 70.8059 223.063 70.2639 222.906C69.8207 223.122 69.4432 223.424 69.131 223.812C68.8269 223.471 68.4494 223.32 67.998 223.359C73.6623 220.731 78.5716 221.788 82.7263 226.531C83.5728 227.938 84.1017 229.449 84.3124 231.063Z" fill="white"/>
<path fill-rule="evenodd" clip-rule="evenodd" d="M192.619 240.578C191.688 240.028 191.688 239.273 192.619 238.312C191.936 237.75 191.408 237.902 191.033 238.765C190.731 236.348 190.429 236.348 190.127 238.765C189.825 236.348 189.523 236.348 189.22 238.765C189.031 236.793 188.728 236.642 188.314 238.312C187.91 236.747 187.155 235.388 186.048 234.233C185.897 234.535 185.746 234.837 185.595 235.14C184.837 233.774 183.931 232.867 182.876 232.421C182.574 233.629 182.272 233.629 181.97 232.421C181.667 233.629 181.366 233.629 181.063 232.421C180.912 232.723 180.761 233.025 180.61 233.327C180.273 231.962 179.669 230.754 178.797 229.701C178.009 230.253 177.556 231.008 177.438 231.967C177.287 231.514 177.136 231.061 176.985 230.608C176.793 231.268 176.416 231.494 175.852 231.288C176.003 231.137 176.154 230.985 176.305 230.834C175.992 230.351 175.765 229.822 175.625 229.248C175.474 229.701 175.323 230.155 175.172 230.608C174.823 230.11 174.446 230.11 174.039 230.608C176.88 222.618 182.319 220.125 190.353 223.13C196.227 227.606 197.36 233.12 193.752 239.671C193.431 240.071 193.053 240.372 192.619 240.578Z" fill="white"/>
<path fill-rule="evenodd" clip-rule="evenodd" d="M84.3102 231.061C85.0747 237.457 82.3556 241.611 76.153 243.524C74.3403 243.826 72.5276 243.826 70.7149 243.524C69.2719 243.182 68.0633 242.502 67.0894 241.485C66.5977 240.539 65.8428 239.935 64.8236 239.672C61.8888 235.225 61.8136 230.693 64.597 226.077C65.0678 225.528 65.5967 225.075 66.1831 224.717C66.8751 224.75 67.3283 224.448 67.5426 223.811C67.5426 223.508 67.6935 223.357 67.9958 223.357C68.4472 223.319 68.8247 223.47 69.1287 223.811C69.441 223.422 69.8185 223.12 70.2617 222.904C70.8037 223.061 70.8037 223.288 70.2617 223.584C70.9102 223.795 71.4386 224.173 71.8478 224.717C71.9987 224.566 72.1501 224.415 72.301 224.264C72.6032 225.472 72.9051 225.472 73.2073 224.264C74.4141 224.863 75.4714 225.921 76.3796 227.436C76.5305 227.134 76.6818 226.832 76.8328 226.53C77.135 227.738 77.4368 227.738 77.7391 226.53C78.4578 227.513 79.0624 228.571 79.5518 229.702C79.7027 229.4 79.8541 229.098 80.005 228.796C80.1967 229.455 80.5742 229.682 81.1379 229.475C80.5959 229.179 80.5959 228.952 81.1379 228.796C82.0552 229.788 82.8858 230.845 83.6304 231.968C83.7564 231.553 83.983 231.251 84.3102 231.061Z" fill="white"/>
<path opacity="0.902" fill-rule="evenodd" clip-rule="evenodd" d="M67.5451 223.809C67.3307 224.446 66.8775 224.749 66.1855 224.715C66.3999 224.078 66.8531 223.776 67.5451 223.809Z" fill="white"/>
<path fill-rule="evenodd" clip-rule="evenodd" d="M130.989 237.857C138.972 240.228 141.691 245.364 139.147 253.265C139.214 252.789 139.139 252.336 138.92 251.906C138.144 251.281 137.539 250.526 137.107 249.64C136.956 249.942 136.805 250.244 136.654 250.546C136.302 249.33 135.697 248.273 134.841 247.374C134.427 247.749 134.125 248.203 133.935 248.734C134.421 247.521 134.119 246.464 133.029 245.561C132.319 245.816 131.715 245.513 131.216 244.655C130.801 245.03 130.5 245.484 130.31 246.015C129.088 245.484 128.332 244.577 128.044 243.296C127.881 244.675 127.579 244.826 127.137 243.749C126.835 244.957 126.533 244.957 126.231 243.749C126.08 244.051 125.929 244.353 125.778 244.655C125.305 243.651 125.003 242.594 124.872 241.483C124.661 244.055 124.359 244.206 123.965 241.936C123.814 242.54 123.663 243.145 123.512 243.749C123.355 242.97 123.129 242.215 122.832 241.483C124.025 240.801 123.873 240.499 122.379 240.577C122.377 242.276 121.924 242.578 121.02 241.483C122.589 239.712 124.553 238.504 126.911 237.857C127.363 234.851 127.514 231.83 127.364 228.794C127.785 229.445 128.313 230.049 128.95 230.607C129.329 227.735 129.631 227.886 129.856 231.06C130.007 230.909 130.159 230.758 130.31 230.607C130.375 233.366 130.602 235.783 130.989 237.857Z" fill="white"/>
<path opacity="0.991" fill-rule="evenodd" clip-rule="evenodd" d="M192.62 240.579C189.732 243.428 186.258 244.41 182.197 243.525C176.07 241.396 173.35 237.09 174.04 230.61C174.447 230.112 174.824 230.112 175.173 230.61C175.324 230.156 175.475 229.703 175.626 229.25C175.766 229.824 175.993 230.353 176.306 230.836C176.155 230.987 176.004 231.138 175.853 231.289C176.417 231.496 176.794 231.269 176.986 230.61C177.137 231.063 177.288 231.516 177.439 231.969C177.557 231.009 178.01 230.254 178.799 229.703C179.67 230.755 180.275 231.964 180.611 233.329C180.762 233.026 180.914 232.725 181.064 232.422C181.367 233.631 181.669 233.631 181.971 232.422C182.273 233.631 182.575 233.631 182.877 232.422C183.932 232.869 184.839 233.775 185.596 235.141C185.747 234.839 185.898 234.537 186.049 234.235C187.156 235.39 187.911 236.749 188.315 238.314C188.729 236.644 189.032 236.794 189.222 238.767C189.524 236.35 189.826 236.35 190.128 238.767C190.43 236.35 190.732 236.35 191.034 238.767C191.409 237.903 191.938 237.752 192.62 238.314C191.69 239.275 191.69 240.03 192.62 240.579Z" fill="white"/>
<path opacity="0.816" fill-rule="evenodd" clip-rule="evenodd" d="M64.8242 239.672C65.8434 239.935 66.5984 240.539 67.0901 241.485C66.0709 241.222 65.3159 240.618 64.8242 239.672Z" fill="white"/>
<path fill-rule="evenodd" clip-rule="evenodd" d="M139.147 253.267C135.663 259.54 130.528 261.277 123.739 258.479C119.328 255.471 117.591 251.316 118.527 246.016C119.019 244.273 119.85 242.763 121.019 241.485C121.924 242.58 122.377 242.278 122.379 240.578C123.873 240.501 124.024 240.803 122.832 241.485C123.129 242.217 123.355 242.972 123.512 243.751C123.663 243.146 123.814 242.542 123.965 241.938C124.359 244.207 124.661 244.056 124.871 241.485C125.003 242.596 125.305 243.653 125.778 244.657C125.929 244.355 126.08 244.053 126.231 243.751C126.533 244.959 126.835 244.959 127.137 243.751C127.579 244.828 127.881 244.677 128.044 243.297C128.332 244.579 129.088 245.485 130.31 246.016C130.499 245.485 130.801 245.032 131.216 244.657C131.715 245.515 132.319 245.817 133.029 245.563C134.119 246.466 134.421 247.523 133.935 248.735C134.125 248.204 134.427 247.751 134.841 247.376C135.697 248.275 136.301 249.332 136.654 250.548C136.805 250.246 136.956 249.944 137.107 249.642C137.539 250.528 138.144 251.283 138.92 251.908C139.139 252.337 139.214 252.79 139.147 253.267Z" fill="white"/>
<path fill-rule="evenodd" clip-rule="evenodd" d="M98.3614 253.266C98.8146 254.021 99.4187 254.625 100.174 255.078C101.816 257.492 101.967 260.059 100.627 262.782C100.023 262.782 99.7209 263.085 99.7209 263.689C96.754 266.397 93.5817 266.624 90.2042 264.369C88.0734 262.138 87.3936 259.495 88.1649 256.438C88.2909 256.023 88.5175 255.721 88.8447 255.532C89.4818 255.317 89.7841 254.864 89.751 254.172C90.443 254.205 90.8962 253.903 91.1106 253.266C93.5274 251.453 95.9446 251.453 98.3614 253.266Z" fill="white"/>
<path fill-rule="evenodd" clip-rule="evenodd" d="M162.709 251.906C169.8 252.793 171.991 256.569 169.28 263.236C165.952 266.58 162.402 266.807 158.63 263.915C155.31 258.257 156.669 254.254 162.709 251.906Z" fill="white"/>
<path opacity="0.063" fill-rule="evenodd" clip-rule="evenodd" d="M98.3594 253.268C99.4166 253.418 100.021 254.023 100.172 255.08C99.4166 254.627 98.8126 254.023 98.3594 253.268Z" fill="white"/>
<path opacity="0.816" fill-rule="evenodd" clip-rule="evenodd" d="M91.1076 253.268C90.8932 253.905 90.44 254.208 89.748 254.174C89.9624 253.537 90.4156 253.235 91.1076 253.268Z" fill="white"/>
<path opacity="0.816" fill-rule="evenodd" clip-rule="evenodd" d="M89.7486 254.174C89.7817 254.866 89.4795 255.319 88.8423 255.533C88.8092 254.841 89.1115 254.388 89.7486 254.174Z" fill="white"/>
<path opacity="0.063" fill-rule="evenodd" clip-rule="evenodd" d="M100.625 262.785C100.474 263.238 100.172 263.541 99.7188 263.692C99.7188 263.087 100.021 262.785 100.625 262.785Z" fill="white"/>
</svg>
