<svg width="58" height="43" viewBox="0 0 58 43" fill="none" xmlns="http://www.w3.org/2000/svg">
<g clip-path="url(#clip0_374_3385)">
<path d="M26.9127 0.759819C25.7209 1.0133 24.5855 1.32469 23.3369 2.04011C21.8177 2.8411 21.2379 3.64448 21.6439 4.39208C22.063 5.15305 23.3072 4.88606 25.7432 3.51098C28.5852 1.90892 30.0521 1.32185 31.7285 1.12129L32.3929 1.08934C30.7951 0.622019 29.0701 0.405948 26.9127 0.759819Z" fill="white"/>
<path d="M30.9223 2.75102C29.6125 3.0714 28.4862 3.56522 26.7837 4.56669C23.1558 6.70274 21.5711 7.10324 20.7067 6.14202C20.4581 5.86165 20.3924 5.14078 20.6412 4.07271C20.6412 4.07271 17.6158 9.11923 18.3493 10.414C18.7553 11.1216 19.5934 11.5221 20.5758 11.442C22.0033 11.3352 23.3392 10.5609 27.0457 7.70398C30.333 5.16743 33.0703 3.95258 35.8992 3.77891C35.8992 3.77891 36.6237 3.72852 36.7547 3.61507C36.8857 3.50162 36.4231 3.32503 36.4231 3.32503C34.7861 2.56444 32.6382 2.33716 30.9223 2.75102Z" fill="white"/>
<path d="M33.7473 5.98708C31.7841 6.41431 30.3929 7.17528 27.8316 9.23114C24.3211 12.0614 22.8519 13.0226 21.2397 13.57C19.1464 14.2909 17.9373 13.8504 17.3392 12.1549L17.1442 11.4892C17.0868 12.1695 17.0792 12.8531 17.1216 13.5345C17.1964 14.4853 17.2743 14.8383 17.4434 15.2922C18.0544 16.9075 19.3676 17.9756 20.7328 17.9622C22.67 17.9489 24.8673 16.4804 28.9498 12.4886C30.913 10.5662 31.9142 9.79186 33.3183 9.05762C35.2946 8.04302 37.5959 7.72264 39.2601 8.2299C39.6761 8.35003 40.1977 8.52947 40.1152 8.38398C40.0327 8.2385 39.8396 7.99885 39.3901 7.54904C37.8558 6.01363 35.9749 5.49298 33.7473 5.98708Z" fill="white"/>
<path d="M36.0298 10.2759C33.8591 10.7828 32.4422 11.7177 29.6866 14.4679C28.5298 15.616 27.165 16.8843 26.671 17.258C25.5142 18.1659 23.9414 18.9535 22.7455 19.2475C21.6016 19.5145 19.6545 19.3889 19.2099 19.1273C18.7654 18.8658 19.2229 19.8082 19.7819 20.3555C20.7308 21.2767 21.6407 21.6105 23.2914 21.6105C24.7993 21.6239 25.8261 21.3835 27.2429 20.6894C28.7768 19.9551 29.6477 19.2209 31.8704 16.8312C34.5351 13.9475 35.6139 13.1596 37.7846 12.4791C38.4448 12.2678 39.1335 12.1641 39.8254 12.1718C40.4049 12.1718 41.5762 12.6854 40.3583 11.4642C39.2663 10.3694 37.6026 9.91548 36.0298 10.2759Z" fill="white"/>
<path d="M37.368 14.8004C36.0845 15.2543 35.0237 16.0687 32.7972 18.3249C30.61 20.5277 29.4443 21.4357 27.7679 22.2365C26.3535 22.904 24.8894 23.0257 23.9134 23.0257C22.9374 23.0257 23.194 23.4412 24.205 23.8084C24.7911 24.0213 25.7231 24.2238 26.956 24.3057C28.8682 24.2924 29.6409 24.1188 31.0815 23.3579C32.234 22.7438 33.2949 21.876 34.0545 20.9148C34.395 20.4876 35.0892 19.6065 35.6 18.9657C37.0537 17.1234 38.9099 15.7515 40.1672 15.5914C40.6779 15.5113 40.6779 15.5113 40.4553 15.2443C40.1279 14.8703 38.8262 14.2137 37.368 14.8004ZM37.5382 19.0589C37.0294 19.5794 36.5484 20.1276 36.0975 20.701C34.801 22.3564 33.4102 23.4609 32.4805 24.0215C32.009 24.3019 31.3664 24.5822 31.3664 24.609C31.3664 24.6357 31.9471 24.4707 32.3269 24.3642C33.3353 24.0705 34.8158 23.4137 35.7325 22.7328C36.8371 21.9888 38.3681 20.5068 38.7811 19.5671C39.1739 18.3522 38.5729 18.0977 37.5382 19.0589ZM16.6594 29.6348C14.4198 30.1009 12.5073 31.8054 11.8135 33.9628C11.4468 35.0947 11.4598 36.8659 11.8527 38.0244C12.4421 39.7556 13.8434 41.2337 15.5068 41.8996C16.5677 42.3124 18.4144 42.4057 19.5538 42.086C21.1778 41.6466 22.8149 40.2217 23.5352 38.6503C25.2509 34.9216 23.0899 30.5537 19.1216 29.7018C18.1527 29.488 17.4717 29.4747 16.6594 29.6348ZM19.1739 32.8175C20.8111 33.5766 21.61 35.6274 20.9027 37.2254C20.3134 38.5704 19.2525 39.2763 17.8381 39.2895C17.0654 39.2895 16.8165 39.2229 16.2271 38.9033C14.3282 37.8246 13.909 35.3876 15.3365 33.6698C16.1751 32.6574 17.9563 32.2579 19.1743 32.8172L19.1739 32.8175ZM0.26747 29.8881C0.241246 29.9148 0.214722 32.6577 0.214722 35.987V42.0188H3.22701V39.5555C3.22701 38.1973 3.26627 37.0921 3.33175 37.0921C3.3845 37.0921 4.18326 38.2107 5.09986 39.5555L6.77627 42.0188H8.46602C9.409 42.0188 10.1686 41.9922 10.1686 41.939C10.1686 41.899 9.35663 40.6869 8.36127 39.2492C7.35281 37.8112 6.43605 36.4663 6.31819 36.2666L6.09552 35.907L8.12557 32.9643C9.25189 31.3398 10.1686 29.955 10.1686 29.9017C10.1686 29.8351 9.43522 29.7819 8.53157 29.7819H6.90724L6.52745 30.2746C6.31789 30.5409 5.61069 31.5795 4.92994 32.5649C3.10946 35.2413 3.30591 35.2679 3.22731 32.3518L3.16183 29.8485H1.74705C0.961256 29.8348 0.293316 29.8615 0.26747 29.8881ZM25.5196 29.8616C25.5065 29.8749 25.5065 32.6045 25.5327 35.9467L25.5589 42.0185H28.4271L28.4664 40.1809L28.5057 38.3567L29.3044 38.3168L30.1164 38.2768L31.4002 40.141L32.6968 42.0185H36.1806L35.3291 40.7801C33.3645 37.9439 33.4693 38.1436 33.7316 37.9972C34.5173 37.5445 35.3687 36.426 35.6568 35.4673C35.9054 34.6284 35.814 33.2835 35.4734 32.5113C34.7793 30.9933 33.6137 30.1412 31.9111 29.8881C31.112 29.7816 25.6244 29.755 25.5196 29.8616ZM32.5789 33.1505C33.0762 33.6564 33.1682 34.2956 32.8275 34.9614C32.4608 35.6804 32.2251 35.7602 30.2474 35.7602H28.4403V32.6979H32.1336L32.5789 33.1505ZM37.7823 29.875C37.5727 29.915 37.5596 30.4209 37.5596 35.9734V42.0185H46.4655V39.2225L43.4925 39.1959L40.5064 39.1559L40.4672 38.1972L40.4279 37.2253L43.3485 37.1986L46.2691 37.1587L46.3083 35.8671L46.3476 34.5622L43.4269 34.5356L40.5064 34.4956L40.4671 33.6035L40.4278 32.6981L43.4139 32.6714L46.4 32.6315V29.8885L42.1959 29.8619C39.8909 29.8484 37.9002 29.8484 37.7823 29.875ZM47.8976 29.8881C47.8713 29.9148 47.8448 32.6577 47.8448 35.987V42.0188H50.7261V39.5555C50.7261 38.1973 50.7789 37.0921 50.8309 37.0921C50.8964 37.0921 51.6953 38.1973 52.6251 39.5555L54.3147 42.0188H57.7853L56.253 39.7819C55.4015 38.5569 54.4587 37.1856 54.1706 36.746L53.6205 35.9204L55.6374 32.9777C56.7506 31.3665 57.6675 29.9684 57.6675 29.8885C57.6675 29.7819 57.4972 29.7553 57.1829 29.8219C56.6171 29.8785 56.0487 29.9052 55.4802 29.9017H54.2884L52.5989 32.3651C51.6822 33.7233 50.8832 34.8284 50.8308 34.8284C50.7653 34.8284 50.7261 33.7099 50.7261 32.3251V29.8351H49.3379C48.5782 29.8348 47.9234 29.8615 47.8976 29.8881Z" fill="white"/>
</g>
<defs>
<clipPath id="clip0_374_3385">
<rect width="58" height="42" fill="white" transform="translate(0 0.40625)"/>
</clipPath>
</defs>
</svg>
