<svg width="58" height="42" viewBox="0 0 58 42" fill="none" xmlns="http://www.w3.org/2000/svg">
<g clip-path="url(#clip0_374_3384)">
<path d="M26.9127 0.353569C25.7209 0.607047 24.5855 0.918441 23.3369 1.63386C21.8177 2.43485 21.2379 3.23823 21.6439 3.98583C22.063 4.7468 23.3072 4.47981 25.7432 3.10473C28.5852 1.50267 30.0521 0.915599 31.7285 0.715044L32.3929 0.68309C30.7951 0.215769 29.0701 -0.000301921 26.9127 0.353569Z" fill="black"/>
<path d="M30.9223 2.34477C29.6125 2.66515 28.4862 3.15897 26.7837 4.16044C23.1558 6.29649 21.5711 6.69699 20.7067 5.73577C20.4581 5.4554 20.3924 4.73453 20.6412 3.66646C20.6412 3.66646 17.6158 8.71298 18.3493 10.0078C18.7553 10.7154 19.5934 11.1159 20.5758 11.0358C22.0033 10.9289 23.3392 10.1547 27.0457 7.29773C30.333 4.76118 33.0703 3.54633 35.8992 3.37266C35.8992 3.37266 36.6237 3.32227 36.7547 3.20882C36.8857 3.09537 36.4231 2.91878 36.4231 2.91878C34.7861 2.15819 32.6382 1.93091 30.9223 2.34477Z" fill="black"/>
<path d="M33.7473 5.58083C31.7841 6.00806 30.3929 6.76903 27.8316 8.82489C24.3211 11.6552 22.8519 12.6164 21.2397 13.1637C19.1464 13.8846 17.9373 13.4441 17.3392 11.7486L17.1442 11.083C17.0868 11.7632 17.0792 12.4469 17.1216 13.1283C17.1964 14.079 17.2743 14.4321 17.4434 14.8859C18.0544 16.5013 19.3676 17.5693 20.7328 17.556C22.67 17.5426 24.8673 16.0741 28.9498 12.0824C30.913 10.16 31.9142 9.38561 33.3183 8.65137C35.2946 7.63677 37.5959 7.31639 39.2601 7.82365C39.6761 7.94378 40.1977 8.12322 40.1152 7.97773C40.0327 7.83225 39.8396 7.5926 39.3901 7.14279C37.8558 5.60738 35.9749 5.08673 33.7473 5.58083Z" fill="black"/>
<path d="M36.0298 9.86963C33.8591 10.3766 32.4422 11.3115 29.6866 14.0616C28.5298 15.2097 27.165 16.478 26.671 16.8518C25.5142 17.7596 23.9414 18.5473 22.7455 18.8412C21.6016 19.1082 19.6545 18.9826 19.2099 18.7211C18.7654 18.4595 19.2229 19.4019 19.7819 19.9493C20.7308 20.8704 21.6407 21.2042 23.2914 21.2042C24.7993 21.2176 25.8261 20.9773 27.2429 20.2831C28.7768 19.5489 29.6477 18.8146 31.8704 16.425C34.5351 13.5413 35.6139 12.7534 37.7846 12.0728C38.4448 11.8615 39.1335 11.7578 39.8254 11.7656C40.4049 11.7656 41.5762 12.2791 40.3583 11.058C39.2663 9.96311 37.6026 9.50923 36.0298 9.86963Z" fill="black"/>
<path d="M37.368 14.3942C36.0845 14.8481 35.0237 15.6624 32.7972 17.9186C30.61 20.1214 29.4443 21.0295 27.7679 21.8302C26.3535 22.4977 24.8894 22.6195 23.9134 22.6195C22.9374 22.6195 23.194 23.035 24.205 23.4021C24.7911 23.615 25.7231 23.8176 26.956 23.8995C28.8682 23.8861 29.6409 23.7126 31.0815 22.9516C32.234 22.3375 33.2949 21.4698 34.0545 20.5085C34.395 20.0813 35.0892 19.2002 35.6 18.5595C37.0537 16.7171 38.9099 15.3453 40.1672 15.1851C40.6779 15.105 40.6779 15.105 40.4553 14.838C40.1279 14.464 38.8262 13.8074 37.368 14.3942ZM37.5382 18.6526C37.0294 19.1732 36.5484 19.7213 36.0975 20.2947C34.801 21.9501 33.4102 23.0546 32.4805 23.6153C32.009 23.8956 31.3664 24.176 31.3664 24.2027C31.3664 24.2294 31.9471 24.0645 32.3269 23.9579C33.3353 23.6643 34.8158 23.0075 35.7325 22.3266C36.8371 21.5825 38.3681 20.1006 38.7811 19.1608C39.1739 17.946 38.5729 17.6914 37.5382 18.6526ZM16.6594 29.2286C14.4198 29.6947 12.5073 31.3992 11.8135 33.5565C11.4468 34.6884 11.4598 36.4596 11.8527 37.6182C12.4421 39.3493 13.8434 40.8275 15.5068 41.4934C16.5677 41.9062 18.4144 41.9994 19.5538 41.6798C21.1778 41.2404 22.8149 39.8154 23.5352 38.2441C25.2509 34.5154 23.0899 30.1475 19.1216 29.2956C18.1527 29.0818 17.4717 29.0684 16.6594 29.2286ZM19.1739 32.4113C20.8111 33.1703 21.61 35.2211 20.9027 36.8192C20.3134 38.1641 19.2525 38.87 17.8381 38.8832C17.0654 38.8832 16.8165 38.8166 16.2271 38.497C14.3282 37.4184 13.909 34.9814 15.3365 33.2636C16.1751 32.2512 17.9563 31.8517 19.1743 32.411L19.1739 32.4113ZM0.26747 29.4819C0.241246 29.5085 0.214722 32.2515 0.214722 35.5807V41.6126H3.22701V39.1492C3.22701 37.7911 3.26627 36.6859 3.33175 36.6859C3.3845 36.6859 4.18326 37.8044 5.09986 39.1492L6.77627 41.6126H8.46602C9.409 41.6126 10.1686 41.5859 10.1686 41.5327C10.1686 41.4928 9.35663 40.2807 8.36127 38.843C7.35281 37.4049 6.43605 36.06 6.31819 35.8603L6.09552 35.5008L8.12557 32.558C9.25189 30.9336 10.1686 29.5487 10.1686 29.4955C10.1686 29.4289 9.43522 29.3757 8.53157 29.3757H6.90724L6.52745 29.8683C6.31789 30.1346 5.61069 31.1733 4.92994 32.1586C3.10946 34.835 3.30591 34.8616 3.22731 31.9455L3.16183 29.4423H1.74705C0.961256 29.4286 0.293316 29.4552 0.26747 29.4819ZM25.5196 29.4553C25.5065 29.4686 25.5065 32.1983 25.5327 35.5404L25.5589 41.6122H28.4271L28.4664 39.7746L28.5057 37.9504L29.3044 37.9105L30.1164 37.8706L31.4002 39.7347L32.6968 41.6122H36.1806L35.3291 40.3738C33.3645 37.5377 33.4693 37.7374 33.7316 37.591C34.5173 37.1382 35.3687 36.0198 35.6568 35.061C35.9054 34.2222 35.814 32.8773 35.4734 32.105C34.7793 30.5871 33.6137 29.7349 31.9111 29.4819C31.112 29.3754 25.6244 29.3488 25.5196 29.4553ZM32.5789 32.7442C33.0762 33.2502 33.1682 33.8893 32.8275 34.5551C32.4608 35.2742 32.2251 35.354 30.2474 35.354H28.4403V32.2917H32.1336L32.5789 32.7442ZM37.7823 29.4688C37.5727 29.5087 37.5596 30.0147 37.5596 35.5671V41.6122H46.4655V38.8163L43.4925 38.7896L40.5064 38.7497L40.4672 37.791L40.4279 36.819L43.3485 36.7924L46.2691 36.7524L46.3083 35.4608L46.3476 34.156L43.4269 34.1293L40.5064 34.0894L40.4671 33.1973L40.4278 32.2918L43.4139 32.2652L46.4 32.2252V29.4823L42.1959 29.4556C39.8909 29.4421 37.9002 29.4421 37.7823 29.4688ZM47.8976 29.4819C47.8713 29.5085 47.8448 32.2515 47.8448 35.5807V41.6126H50.7261V39.1492C50.7261 37.7911 50.7789 36.6859 50.8309 36.6859C50.8964 36.6859 51.6953 37.7911 52.6251 39.1492L54.3147 41.6126H57.7853L56.253 39.3756C55.4015 38.1506 54.4587 36.7794 54.1706 36.3397L53.6205 35.5141L55.6374 32.5714C56.7506 30.9602 57.6675 29.5622 57.6675 29.4822C57.6675 29.3757 57.4972 29.349 57.1829 29.4156C56.6171 29.4722 56.0487 29.4989 55.4802 29.4955H54.2884L52.5989 31.9588C51.6822 33.317 50.8832 34.4222 50.8308 34.4222C50.7653 34.4222 50.7261 33.3037 50.7261 31.9189V29.4289H49.3379C48.5782 29.4286 47.9234 29.4552 47.8976 29.4819Z" fill="black"/>
</g>
<defs>
<clipPath id="clip0_374_3384">
<rect width="58" height="42" fill="white"/>
</clipPath>
</defs>
</svg>
