<svg width="260" height="267" viewBox="0 0 260 267" fill="none" xmlns="http://www.w3.org/2000/svg">
<path opacity="0.991" fill-rule="evenodd" clip-rule="evenodd" d="M94.9383 0.966797C101.699 2.12004 103.739 5.8965 101.056 12.2962C98.2184 15.2101 94.9705 15.7389 91.3129 13.8823C88.142 10.649 87.7645 7.09914 90.18 3.23268C91.6061 2.02764 93.1922 1.27237 94.9383 0.966797Z" fill="#0A0A0A"/>
<path opacity="0.993" fill-rule="evenodd" clip-rule="evenodd" d="M163.824 0.966797C170.279 1.93732 172.47 5.56274 170.395 11.843C166.1 16.1941 162.022 16.0431 158.159 11.3899C156.52 5.90081 158.409 2.42648 163.824 0.966797Z" fill="#0A0A0A"/>
<path opacity="0.989" fill-rule="evenodd" clip-rule="evenodd" d="M199.624 154.593C197.623 153.82 195.66 152.914 193.733 151.874C194.833 146.638 195.587 141.351 195.999 136.013C191.92 136.013 187.842 136.013 183.763 136.013C183.721 138.919 183.419 141.789 182.857 144.623C181.664 144.9 180.682 144.447 179.911 143.264C179.76 143.415 179.609 143.566 179.458 143.717C178.742 143.019 177.911 142.49 176.966 142.131C176.269 141.628 175.967 140.948 176.059 140.092C177.302 119.688 169.296 104.205 152.041 93.641C134.228 84.9926 117.309 86.4278 101.285 97.9462C98.7173 97.1726 96.678 95.9645 95.1671 94.3208C94.6654 94.8701 94.4389 94.7191 94.4873 93.8676C96.0748 92.5067 97.5853 91.0715 99.0191 89.5624C97.3066 86.0612 95.4182 82.6624 93.3544 79.366C89.7507 81.8376 86.3519 84.5567 83.1579 87.5231C80.9736 86.8098 79.01 85.7526 77.2666 84.3509C81.1621 80.0779 85.543 76.3773 90.4088 73.2481C87.8039 65.8074 82.668 61.2756 75.0007 59.6528C67.1472 59.4262 59.2923 59.3505 51.4355 59.4262C51.2951 62.4208 50.3887 65.1398 48.7165 67.5834C47.5949 66.6466 46.3867 66.1182 45.0911 65.9972C44.4915 65.6275 44.1897 65.0986 44.1847 64.4111C47.6366 56.9922 45.9748 51.0252 39.1998 46.5106C31.9086 43.7295 26.1682 45.6179 21.979 52.1753C21.0357 52.1192 20.3559 51.666 19.9397 50.8158C18.8561 51.0655 18.0253 50.6123 17.4473 49.4563C20.7072 43.0601 25.9942 39.737 33.3085 39.4864C43.5077 40.3207 49.5499 45.7588 51.4355 55.8008C59.9068 55.7686 68.3658 55.8443 76.8134 56.0274C92.2908 45.7076 109.361 40.3452 128.022 39.9396C128.022 36.3142 128.022 32.6887 128.022 29.0633C120.347 26.8854 117.552 21.9005 119.639 14.1085C122.716 8.29518 127.475 6.25588 133.914 7.9906C140.904 11.7876 142.641 17.3012 139.125 24.5316C137.28 27.1516 134.788 28.6622 131.648 29.0633C131.648 32.6887 131.648 36.3142 131.648 39.9396C150.36 40.197 167.43 45.5594 182.857 56.0274C191.608 55.8493 200.369 55.774 209.141 55.8008C210.741 45.6591 216.708 40.221 227.042 39.4864C238.29 40.463 244.408 46.5809 245.395 57.8401C243.54 71.0239 235.987 76.9152 222.736 75.514C214.659 73.104 210.127 67.7415 209.141 59.4262C201.284 59.3505 193.429 59.4262 185.576 59.6528C177.915 61.2692 172.779 65.801 170.168 73.2481C172.577 75.5008 175.145 77.6158 177.872 79.5926C193.484 93.8608 201.641 111.61 202.343 132.841C209.294 132.917 216.242 132.841 223.19 132.614C226.379 119.309 234.687 114.173 248.114 117.206C258.391 122.35 261.79 130.432 258.311 141.451C253.512 150.609 246.035 154.007 235.879 151.648C228.652 148.955 224.422 143.819 223.19 136.24C216.242 136.013 209.294 135.937 202.343 136.013C202.365 142.358 201.459 148.551 199.624 154.593ZM120.772 43.565C123.188 43.565 125.606 43.565 128.022 43.565C128.022 49.6072 128.022 55.6499 128.022 61.6921C115.775 62.099 104.295 65.2713 93.581 71.2088C91.0894 65.2432 87.0108 60.7114 81.3452 57.6135C93.4546 49.9521 106.597 45.2694 120.772 43.565ZM131.648 43.565C148.755 43.8047 164.465 48.5631 178.778 57.8401C176.182 59.2277 173.84 60.9652 171.754 63.0516C170.017 65.9216 168.28 68.792 166.542 71.662C155.794 65.3111 144.162 61.988 131.648 61.6921C131.648 55.6499 131.648 49.6072 131.648 43.565ZM225.909 44.9245C235.705 45.7316 240.161 51.0188 239.277 60.7857C235.435 69.9199 229.015 72.4124 220.017 68.2631C215.435 64.7945 213.698 60.1871 214.806 54.4412C216.653 49.0398 220.355 45.8676 225.909 44.9245ZM123.037 68.4897C124.699 68.4897 126.361 68.4897 128.022 68.4897C128.022 72.4174 128.022 76.3446 128.022 80.2723C118.822 80.696 110.287 83.2642 102.418 87.9763C100.53 84.5018 98.6416 81.0278 96.7532 77.5533C104.904 72.6213 113.666 69.6 123.037 68.4897ZM131.648 68.4897C140.842 68.6737 149.604 70.713 157.932 74.6076C159.936 75.4872 161.749 76.6202 163.37 78.0064C161.669 80.9562 160.082 83.9775 158.612 87.07C158.3 87.4583 157.922 87.7602 157.479 87.9763C149.508 83.3059 140.898 80.7377 131.648 80.2723C131.648 76.3446 131.648 72.4174 131.648 68.4897ZM166.542 79.8191C184.936 92.5761 194.755 110.25 195.999 132.841C191.92 132.841 187.842 132.841 183.763 132.841C182.76 114.97 175.207 100.62 161.104 89.789C162.923 86.4537 164.735 83.1301 166.542 79.8191ZM239.957 121.511C249.768 122.03 254.375 127.166 253.779 136.919C251.104 145.018 245.591 148.114 237.238 146.21C232.125 143.96 229.255 140.033 228.628 134.427C229.469 127.472 233.246 123.166 239.957 121.511Z" fill="#0A0A0A"/>
<path opacity="0.997" fill-rule="evenodd" clip-rule="evenodd" d="M72.2816 23.1738C81.9139 23.3618 86.0682 28.1957 84.744 37.6755C82.0168 44.0617 77.2584 46.4032 70.4689 44.6997C63.1587 40.7458 61.4217 35.0811 65.2574 27.7056C67.1784 25.4303 69.52 23.9198 72.2816 23.1738Z" fill="#0A0A0A"/>
<path opacity="0.995" fill-rule="evenodd" clip-rule="evenodd" d="M183.307 23.172C192.889 23.011 197.195 27.6938 196.223 37.2205C192.663 45.0795 186.999 47.1188 179.228 43.3384C174.376 39.0799 173.394 34.0192 176.283 28.1569C178.075 25.6794 180.417 24.0177 183.307 23.172Z" fill="#0A0A0A"/>
<path opacity="0.993" fill-rule="evenodd" clip-rule="evenodd" d="M31.4934 50.3634C38.316 50.2664 41.2616 53.5896 40.3304 60.3333C37.9902 64.8116 34.4404 66.0954 29.6807 64.1853C25.9713 61.347 25.1405 57.7973 27.1882 53.5356C28.3343 52.0016 29.7693 50.9444 31.4934 50.3634Z" fill="#0A0A0A"/>
<path opacity="0.994" fill-rule="evenodd" clip-rule="evenodd" d="M225.453 50.3633C232.537 50.4204 235.331 53.8944 233.837 60.7864C231.288 64.8332 227.739 65.9662 223.187 64.1852C218.804 60.3957 218.502 56.3171 222.281 51.9494C223.38 51.3997 224.438 50.8713 225.453 50.3633Z" fill="#0A0A0A"/>
<path opacity="0.958" fill-rule="evenodd" clip-rule="evenodd" d="M17.4474 49.457C18.0254 50.6131 18.8562 51.0663 19.9398 50.8166C20.356 51.6667 21.0358 52.1199 21.9791 52.1761C19.3845 59.4228 21.3483 65.0876 27.8704 69.1702C34.5543 71.655 39.9925 70.0689 44.1848 64.4119C44.1898 65.0993 44.4916 65.6282 45.0912 65.998C46.3868 66.119 47.595 66.6474 48.7166 67.5841C44.0144 74.418 37.5186 77.0619 29.23 75.5147C18.1998 71.8163 13.7436 64.188 15.8612 52.6293C16.1649 51.4175 16.6936 50.3602 17.4474 49.457Z" fill="#0A0A0A"/>
<path opacity="0.97" fill-rule="evenodd" clip-rule="evenodd" d="M77.2668 84.3516C79.0101 85.7532 80.9738 86.8105 83.1581 87.5238C78.8316 92.0012 75.2062 96.9861 72.2818 102.479C72.1481 101.846 71.9968 101.166 71.8286 100.439C70.233 99.7179 68.7226 98.8872 67.2969 97.9469C69.7481 92.7766 73.0713 88.2448 77.2668 84.3516Z" fill="#0A0A0A"/>
<path fill-rule="evenodd" clip-rule="evenodd" d="M39.1996 92.0566C46.4667 92.4455 48.9592 96.0709 46.677 102.933C42.7493 107.162 38.8221 107.162 34.8944 102.933C32.7636 97.8428 34.1988 94.2174 39.1996 92.0566Z" fill="#0A0A0A"/>
<path opacity="0.996" fill-rule="evenodd" clip-rule="evenodd" d="M217.749 92.0566C224.778 92.6716 227.119 96.297 224.773 102.933C220.846 107.162 216.918 107.162 212.991 102.933C210.774 97.57 212.36 93.9446 217.749 92.0566Z" fill="#0A0A0A"/>
<path fill-rule="evenodd" clip-rule="evenodd" d="M67.2958 97.9453C68.7215 98.8857 70.2319 99.7163 71.8276 100.438C71.9957 101.164 72.1471 101.844 72.2808 102.477C69.7026 106.884 67.739 111.567 66.3895 116.526C65.7641 115.979 65.2352 116.13 64.8033 116.979C64.5011 116.676 64.1992 116.375 63.897 116.072C63.2929 116.072 62.6884 116.072 62.0843 116.072C61.782 114.864 61.4802 114.864 61.1779 116.072C61.027 115.619 60.8756 115.166 60.7247 114.713C60.6178 115.447 60.2403 115.9 59.5918 116.072C61.1113 109.54 63.6795 103.498 67.2958 97.9453Z" fill="#0A0A0A"/>
<path opacity="0.973" fill-rule="evenodd" clip-rule="evenodd" d="M94.4857 93.8691C94.4372 94.7207 94.6638 94.8716 95.1654 94.3223C96.6763 95.966 98.7156 97.1742 101.283 97.9477C96.3727 101.949 92.2941 106.632 89.0475 111.996C88.7435 111.386 88.7435 110.857 89.0475 110.41C87.0205 109.128 85.0564 108.146 83.1562 107.464C85.9487 102.105 89.7255 97.573 94.4857 93.8691Z" fill="#0A0A0A"/>
<path fill-rule="evenodd" clip-rule="evenodd" d="M83.157 107.465C85.0571 108.147 87.0212 109.128 89.0483 110.41C88.7442 110.857 88.7442 111.386 89.0483 111.997C86.4756 117.147 84.8142 122.585 84.0633 128.311C83.0931 128.069 82.262 127.314 81.5709 126.045C80.5181 127.822 80.2915 127.671 80.8911 125.592C79.9172 123.875 79.0865 124.026 78.3986 126.045C78.0964 124.232 77.7945 124.232 77.4923 126.045C77.3663 125.63 77.1397 125.328 76.8125 125.139C77.679 118.761 79.7935 112.869 83.157 107.465Z" fill="#0A0A0A"/>
<path opacity="0.974" fill-rule="evenodd" clip-rule="evenodd" d="M66.3877 116.526C65.0486 120.955 64.2936 125.487 64.1218 130.121C62.7179 130.16 62.5665 129.934 63.6686 129.441C63.0573 129.091 62.6798 128.562 62.5357 127.855C62.3848 128.308 62.2334 128.761 62.0825 129.215C60.5286 128.871 59.4713 127.814 58.9103 126.042C58.8763 127.146 58.4988 127.448 57.7773 126.949C57.9921 123.243 58.5962 119.618 59.5901 116.072C60.2385 115.9 60.616 115.447 60.723 114.713C60.8739 115.166 61.0253 115.619 61.1762 116.072C61.4784 114.864 61.7803 114.864 62.0825 116.072C62.6866 116.072 63.2911 116.072 63.8952 116.072C64.1975 116.375 64.4993 116.677 64.8016 116.979C65.2335 116.13 65.7623 115.979 66.3877 116.526Z" fill="#0A0A0A"/>
<path fill-rule="evenodd" clip-rule="evenodd" d="M47.3557 132.841C47.6603 133.188 48.0378 133.491 48.4887 133.747C49.1834 133.546 49.8632 133.395 50.528 133.294C51.0374 135.66 51.4153 135.66 51.6609 133.294C51.9632 135.711 52.265 135.711 52.5673 133.294C52.7182 133.898 52.8696 134.503 53.0205 135.107C53.1714 134.804 53.3227 134.503 53.4736 134.2C53.9739 134.605 54.5023 135.059 55.0598 135.56C48.8644 135.484 42.6713 135.56 36.4795 135.786C36.344 136.385 36.2683 137.064 36.2529 137.826C35.6488 136.617 35.0443 135.409 34.4402 134.2C33.9988 135.278 33.6965 135.127 33.5338 133.747C33.4831 135.083 32.8033 135.687 31.4946 135.56C31.4431 127.274 27.289 122.591 19.0322 121.511C16.8293 121.633 14.79 122.237 12.9143 123.324C12.7861 122.967 12.5596 122.664 12.2345 122.418C11.8551 123.101 11.3264 123.327 10.6484 123.097C11.3059 122.175 11.0793 121.344 9.96865 120.605C9.51547 120.756 9.06229 120.907 8.60912 121.058C7.82585 120.672 7.75035 120.219 8.38253 119.699C13.9868 115.739 20.0292 115.059 26.5096 117.659C32.9166 120.673 36.3907 125.734 36.9327 132.841C40.4072 132.841 43.8812 132.841 47.3557 132.841Z" fill="#0A0A0A"/>
<path fill-rule="evenodd" clip-rule="evenodd" d="M103.097 118.341C105.293 120.01 107.634 121.52 110.121 122.872C110.272 122.721 110.423 122.57 110.574 122.419C111.893 123.523 113.026 124.731 113.973 126.045C116.798 133.311 119.366 140.713 121.677 148.25C121.397 148.2 121.171 148.049 120.997 147.797C120.695 148.401 120.393 149.006 120.091 149.61C119.586 149.039 119.511 148.51 119.864 148.024C118.996 146.591 118.165 146.667 117.372 148.25C117.142 147.572 117.369 147.043 118.052 146.664C117.183 145.232 116.352 145.307 115.559 146.891C115.257 145.682 114.955 145.682 114.653 146.891C114.535 145.931 114.082 145.176 113.293 144.625C112.833 145.139 112.53 144.988 112.387 144.172C112.261 144.587 112.034 144.889 111.707 145.078C111.146 144.301 110.844 143.395 110.801 142.359C108.988 142.359 107.175 142.359 105.363 142.359C104.893 141.502 104.893 140.671 105.363 139.866C104.797 139.04 104.268 139.116 103.776 140.093C103.498 139.361 103.045 138.757 102.417 138.28C101.192 138.797 100.437 138.344 100.151 136.921C100 137.374 99.8488 137.827 99.6979 138.28C99.3149 136.961 98.5595 136.508 97.432 136.921C97.5122 134.635 96.7567 134.485 95.1661 136.468C95.0401 136.053 94.8135 135.751 94.4863 135.561C96.415 130.002 98.3034 124.413 100.151 118.794C101.076 118.375 102.058 118.225 103.097 118.341ZM105.363 124.685C106.83 128.487 108.039 132.415 108.988 136.468C106.717 136.543 104.451 136.467 102.19 136.241C103.661 132.507 104.719 128.655 105.363 124.685Z" fill="#0A0A0A"/>
<path opacity="0.967" fill-rule="evenodd" clip-rule="evenodd" d="M103.098 118.34C105.968 118.34 108.838 118.34 111.708 118.34C112.553 120.876 113.309 123.444 113.974 126.044C113.027 124.73 111.894 123.522 110.575 122.418C110.424 122.569 110.273 122.721 110.122 122.872C107.635 121.519 105.294 120.009 103.098 118.34Z" fill="#0A0A0A"/>
<path fill-rule="evenodd" clip-rule="evenodd" d="M149.093 135.56C149.397 135.219 149.774 135.068 150.226 135.107C151.226 134.475 151.906 133.569 152.265 132.388C154.159 126.736 152.573 122.431 147.507 119.472C140.712 117.622 133.915 117.395 127.114 118.793C127.039 120.01 127.115 121.219 127.34 122.418C129.675 123.704 132.092 125.063 134.591 126.497C134.668 128.927 134.895 131.345 135.271 133.747C135.546 133.691 135.697 133.54 135.724 133.294C135.423 131.867 135.272 130.357 135.271 128.762C134.236 124.3 135.898 122.713 140.256 124.004C144.584 125.461 145.49 128.105 142.975 131.935C143.45 131.979 143.979 131.979 144.561 131.935C144.705 132.751 145.007 132.902 145.467 132.388C146.534 133.283 147.743 134.341 149.093 135.56Z" fill="#0A0A0A"/>
<path opacity="0.825" fill-rule="evenodd" clip-rule="evenodd" d="M157.931 118.34C157.856 122.572 157.931 126.802 158.158 131.029C160.997 132.735 163.641 134.245 166.088 135.561C166.088 140.696 166.088 145.833 166.088 150.969C163.218 150.969 160.348 150.969 157.478 150.969C157.328 140.014 157.479 129.138 157.931 118.34Z" fill="#0A0A0A"/>
<path fill-rule="evenodd" clip-rule="evenodd" d="M157.931 118.34C160.65 118.34 163.369 118.34 166.088 118.34C166.088 124.08 166.088 129.82 166.088 135.561C163.64 134.245 160.997 132.735 158.157 131.029C157.931 126.802 157.855 122.572 157.931 118.34Z" fill="#0A0A0A"/>
<path opacity="0.947" fill-rule="evenodd" clip-rule="evenodd" d="M127.114 118.793C127.04 120.011 127.116 121.219 127.341 122.418C129.676 123.704 132.093 125.064 134.592 126.497C134.669 128.928 134.896 131.345 135.271 133.748C135.546 133.692 135.697 133.541 135.725 133.295C138.3 133.553 140.716 133.1 142.975 131.935C143.451 131.98 143.979 131.98 144.562 131.935C144.705 132.751 145.007 132.902 145.468 132.388C146.535 133.284 147.743 134.341 149.093 135.561C149.397 135.22 149.775 135.068 150.226 135.107C148.386 137.366 145.969 138.65 142.975 138.959C141.005 139.17 139.041 139.397 137.084 139.639C137.274 139.312 137.575 139.085 137.99 138.959C136.864 138.285 135.882 137.454 135.045 136.467C134.252 136.829 133.648 136.527 133.232 135.561C132.526 135.943 132.073 135.642 131.873 134.654C131.722 134.805 131.57 134.956 131.419 135.107C129.938 134.186 128.729 133.28 127.794 132.388C127.303 133.899 126.925 135.41 126.661 136.92C126.512 130.798 126.663 124.755 127.114 118.793Z" fill="#0A0A0A"/>
<path fill-rule="evenodd" clip-rule="evenodd" d="M8.38364 119.699C7.75146 120.219 7.82696 120.673 8.61023 121.059C9.06341 120.908 9.51659 120.756 9.96976 120.606C11.0805 121.345 11.307 122.175 10.6495 123.098C11.3275 123.328 11.8562 123.101 12.2356 122.418C12.5607 122.665 12.7873 122.967 12.9154 123.325C9.23942 125.234 7.12458 128.255 6.57094 132.388C6.16444 131.891 5.7868 131.891 5.43799 132.388C5.13586 131.784 4.83377 131.18 4.53164 130.575C4.3806 130.878 4.22951 131.18 4.07846 131.482C3.68764 130.763 3.38551 130.007 3.17211 129.216C3.05918 129.725 2.83259 130.178 2.49234 130.575C2.07687 130.291 1.62369 130.14 1.13281 130.122C2.16887 125.624 4.58584 122.15 8.38364 119.699Z" fill="#0A0A0A"/>
<path opacity="0.989" fill-rule="evenodd" clip-rule="evenodd" d="M84.0643 128.311C83.4883 132.686 83.4883 137.067 84.0643 141.453C83.6578 140.955 83.2803 140.955 82.9313 141.453C82.7877 140.637 82.4854 140.486 82.025 141C81.6103 140.625 81.3085 140.171 81.1186 139.64C80.9677 139.943 80.8163 140.244 80.6654 140.547C79.9077 139.181 79.0014 138.274 77.9464 137.828C77.7955 137.978 77.6441 138.13 77.4932 138.281C76.9888 137.916 76.4604 137.614 75.9071 137.374C75.9071 136.921 75.9071 136.468 75.9071 136.015C74.6985 136.015 73.4903 136.015 72.2817 136.015C72.2141 135.538 72.2894 135.085 72.5083 134.655C72.9614 134.806 73.4146 134.958 73.8678 135.108C74.6083 134.433 74.4574 133.829 73.4146 133.296C72.0551 133.447 70.6955 133.598 69.336 133.749C69.0111 133.502 68.7845 133.2 68.6562 132.843C71.073 132.843 73.4903 132.843 75.9071 132.843C75.951 130.225 76.2533 127.657 76.8134 125.139C77.1406 125.328 77.3672 125.63 77.4932 126.045C77.7955 124.232 78.0973 124.232 78.3996 126.045C79.0875 124.026 79.9182 123.875 80.892 125.592C80.2925 127.671 80.5191 127.822 81.5718 126.045C82.2629 127.314 83.094 128.069 84.0643 128.311Z" fill="#0A0A0A"/>
<path fill-rule="evenodd" clip-rule="evenodd" d="M64.123 130.124C64.123 131.03 64.123 131.936 64.123 132.843C65.6335 132.843 67.1443 132.843 68.6548 132.843C68.783 133.2 69.0096 133.502 69.3346 133.749C70.6941 133.598 72.0536 133.447 73.4131 133.296C74.4559 133.829 74.6068 134.433 73.8663 135.108C73.4131 134.958 72.96 134.806 72.5068 134.655C72.2879 135.085 72.2127 135.538 72.2802 136.015C69.5611 136.015 66.8421 136.015 64.123 136.015C63.9988 138.173 64.1498 140.288 64.5762 142.359C63.3581 142.122 62.6783 141.366 62.5369 140.093C62.386 140.547 62.2346 141 62.0837 141.453C61.8734 138.881 61.5712 138.73 61.1774 141C60.9875 139.028 60.6852 138.877 60.271 140.547C60.1083 139.167 59.8061 139.016 59.3647 140.093C58.95 139.718 58.6482 139.265 58.4583 138.734C58.1542 139.075 57.7767 139.226 57.3254 139.187C57.3254 138.13 57.3254 137.072 57.3254 136.015C56.6823 135.584 55.9273 135.433 55.0595 135.562C54.5021 135.06 53.9737 134.607 53.4734 134.202C53.3224 134.504 53.1711 134.806 53.0202 135.108C52.8693 134.504 52.7179 133.9 52.567 133.296C52.2647 135.713 51.9629 135.713 51.6606 133.296C51.415 135.662 51.0371 135.662 50.5277 133.296C49.8629 133.397 49.1831 133.548 48.4884 133.749C48.0375 133.492 47.66 133.19 47.3555 132.843C50.6786 132.843 54.0022 132.843 57.3254 132.843C57.2035 130.835 57.3544 128.87 57.7785 126.951C58.5 127.451 58.8775 127.148 58.9115 126.045C59.4725 127.817 60.5298 128.874 62.0837 129.217C62.2346 128.764 62.386 128.311 62.5369 127.858C62.681 128.565 63.0585 129.094 63.6698 129.444C62.5677 129.936 62.7191 130.163 64.123 130.124Z" fill="#0A0A0A"/>
<path fill-rule="evenodd" clip-rule="evenodd" d="M16.9927 126.951C24.0234 126.664 26.969 129.987 25.8297 136.921C23.5029 141.401 19.953 142.684 15.18 140.773C11.4688 137.894 10.638 134.345 12.6875 130.123C13.8336 128.589 15.2686 127.532 16.9927 126.951Z" fill="#0A0A0A"/>
<path opacity="0.994" fill-rule="evenodd" clip-rule="evenodd" d="M239.503 126.95C246.573 126.69 249.518 130.014 248.34 136.92C245.776 141.582 242.076 142.715 237.237 140.318C233.049 136.249 233.049 132.17 237.237 128.083C238.06 127.74 238.815 127.362 239.503 126.95Z" fill="#0A0A0A"/>
<path fill-rule="evenodd" clip-rule="evenodd" d="M137.085 139.638C136.538 139.305 135.934 139.154 135.272 139.184C135.272 143.112 135.272 147.039 135.272 150.967C132.403 150.967 129.532 150.967 126.662 150.967C126.662 146.284 126.662 141.601 126.662 136.918C126.926 135.409 127.304 133.898 127.795 132.387C128.73 133.278 129.939 134.184 131.42 135.106C131.571 134.955 131.723 134.804 131.874 134.653C132.074 135.64 132.527 135.942 133.233 135.559C133.649 136.525 134.253 136.827 135.046 136.465C135.883 137.453 136.865 138.284 137.992 138.958C137.576 139.084 137.275 139.31 137.085 139.638Z" fill="#0A0A0A"/>
<path fill-rule="evenodd" clip-rule="evenodd" d="M55.0599 135.561C55.9277 135.432 56.6827 135.583 57.3258 136.014C50.5281 136.014 43.7305 136.014 36.9328 136.014C36.6745 140.58 34.8618 144.357 31.4947 147.343C31.2271 147.048 30.9249 146.746 30.5884 146.437C31.0549 146.529 31.508 146.303 31.9479 145.757C31.4034 145.348 31.0258 144.82 30.8149 144.171C30.3733 145.249 30.0712 145.097 29.9086 143.718C29.6065 145.531 29.3044 145.531 29.0022 143.718C28.8396 145.097 28.5375 145.249 28.0959 144.171C27.7768 145.18 27.2482 145.331 26.5098 144.624C29.3257 142.256 30.9873 139.235 31.4947 135.561C32.8035 135.688 33.4833 135.084 33.534 133.748C33.6967 135.128 33.999 135.279 34.4404 134.201C35.0444 135.41 35.649 136.618 36.2531 137.827C36.2685 137.065 36.3442 136.386 36.4797 135.787C42.6714 135.561 48.8645 135.485 55.0599 135.561Z" fill="#0A0A0A"/>
<path opacity="0.964" fill-rule="evenodd" clip-rule="evenodd" d="M105.361 142.357C103.821 142.212 102.31 142.363 100.829 142.811C100.089 145.487 99.1829 148.055 98.1102 150.515C97.1603 149.639 96.4806 148.581 96.0709 147.342C95.92 147.796 95.7686 148.249 95.6177 148.702C95.3155 148.098 95.0136 147.493 94.7114 146.889C94.5677 147.705 94.2655 147.856 93.805 147.342C94.251 146.392 94.1 145.485 93.3518 144.623C92.6037 145.485 92.4527 146.392 92.8987 147.342C92.484 146.967 92.1822 146.514 91.9923 145.983C91.6882 146.324 91.3107 146.475 90.8594 146.436C91.9792 142.775 93.1873 139.149 94.4848 135.56C94.812 135.749 95.0386 136.051 95.1646 136.466C96.7552 134.483 97.5107 134.634 97.4304 136.919C98.5579 136.506 99.3134 136.959 99.6963 138.279C99.8472 137.826 99.9986 137.372 100.15 136.919C100.435 138.343 101.191 138.796 102.415 138.279C103.043 138.755 103.496 139.359 103.775 140.092C104.267 139.114 104.795 139.038 105.361 139.865C104.892 140.67 104.892 141.5 105.361 142.357Z" fill="#0A0A0A"/>
<path fill-rule="evenodd" clip-rule="evenodd" d="M75.9062 137.373C76.4596 137.612 76.988 137.915 77.4924 138.279C77.6433 138.128 77.7946 137.977 77.9455 137.826C79.0005 138.273 79.9069 139.179 80.6646 140.545C80.8155 140.243 80.9669 139.941 81.1178 139.639C81.3077 140.17 81.6095 140.623 82.0241 140.998C82.4846 140.485 82.7868 140.635 82.9305 141.452C83.2794 140.954 83.6569 140.954 84.0634 141.452C84.968 145.978 86.3275 150.358 88.142 154.594C87.5756 154.629 87.1981 154.931 87.0091 155.5C86.7068 154.292 86.405 154.292 86.1027 155.5C85.9024 154.513 85.4493 154.211 84.7432 154.594C83.7698 153.924 83.1652 153.018 82.9305 151.875C82.6282 153.687 82.3264 153.687 82.0241 151.875C81.7219 153.083 81.4201 153.083 81.1178 151.875C80.448 151.743 79.7682 151.743 79.0785 151.875C77.2499 147.264 76.1927 142.43 75.9062 137.373Z" fill="#0A0A0A"/>
<path fill-rule="evenodd" clip-rule="evenodd" d="M64.575 142.358C64.7889 145.757 65.393 149.08 66.3878 152.328C65.7356 152.785 65.1316 152.634 64.575 151.875C64.2615 152.112 64.0349 152.415 63.8953 152.781C63.3107 151.742 62.5552 150.836 61.6294 150.062C61.0253 151.27 60.4208 151.27 59.8167 150.062C59.6431 150.314 59.4165 150.465 59.1369 150.515C58.2011 146.808 57.5966 143.032 57.3242 139.186C57.7756 139.225 58.1531 139.073 58.4572 138.732C58.647 139.264 58.9489 139.717 59.3635 140.092C59.8049 139.014 60.1072 139.166 60.2699 140.545C60.6841 138.875 60.9863 139.026 61.1762 140.998C61.57 138.729 61.8723 138.88 62.0826 141.451C62.2335 140.998 62.3848 140.545 62.5358 140.092C62.6771 141.365 63.3569 142.12 64.575 142.358Z" fill="#0A0A0A"/>
<path opacity="0.991" fill-rule="evenodd" clip-rule="evenodd" d="M6.5696 132.387C6.16496 141.077 10.3191 145.911 19.032 146.889C21.7254 146.721 24.2179 145.965 26.5094 144.623C27.2478 145.33 27.7765 145.179 28.0955 144.17C28.5371 145.247 28.8392 145.096 29.0019 143.717C29.304 145.529 29.6061 145.529 29.9082 143.717C30.0709 145.096 30.3729 145.247 30.8146 144.17C31.0254 144.818 31.4031 145.347 31.9475 145.756C31.5077 146.301 31.0545 146.528 30.588 146.436C30.9246 146.745 31.2267 147.047 31.4943 147.342C26.9552 151.727 21.5171 153.313 15.18 152.1C4.33531 148.73 -0.347508 141.403 1.13148 130.121C1.62236 130.139 2.07554 130.29 2.49101 130.574C2.83126 130.177 3.05784 129.724 3.17078 129.215C3.38418 130.006 3.68631 130.762 4.07713 131.481C4.22817 131.178 4.37926 130.877 4.53031 130.574C4.83244 131.178 5.13453 131.783 5.43666 132.387C5.78547 131.889 6.1631 131.889 6.5696 132.387Z" fill="#0A0A0A"/>
<path fill-rule="evenodd" clip-rule="evenodd" d="M98.1104 150.516C95.3256 150.965 92.4556 151.116 89.5 150.969C89.7724 149.398 90.2255 147.887 90.8595 146.438C91.3109 146.477 91.6884 146.325 91.9925 145.985C92.1824 146.516 92.4842 146.969 92.8988 147.344C92.4529 146.393 92.6038 145.487 93.352 144.625C94.1002 145.487 94.2511 146.393 93.8052 147.344C94.2656 147.858 94.5679 147.707 94.7115 146.891C95.0138 147.495 95.3156 148.1 95.6179 148.704C95.7688 148.25 95.9202 147.797 96.0711 147.344C96.4807 148.583 97.1605 149.64 98.1104 150.516Z" fill="#0A0A0A"/>
<path opacity="0.989" fill-rule="evenodd" clip-rule="evenodd" d="M121.677 148.25C122.238 149.027 122.54 149.934 122.583 150.97C119.558 151.045 116.537 150.97 113.52 150.743C112.688 148.928 112.084 147.04 111.707 145.078C112.034 144.889 112.261 144.587 112.387 144.172C112.53 144.988 112.833 145.139 113.293 144.625C114.082 145.176 114.535 145.931 114.653 146.891C114.955 145.682 115.257 145.682 115.559 146.891C116.352 145.308 117.183 145.232 118.052 146.664C117.369 147.044 117.142 147.573 117.372 148.25C118.165 146.667 118.996 146.591 119.864 148.024C119.511 148.51 119.586 149.039 120.091 149.61C120.393 149.006 120.695 148.401 120.997 147.797C121.171 148.049 121.397 148.2 121.677 148.25Z" fill="#0A0A0A"/>
<path opacity="0.97" fill-rule="evenodd" clip-rule="evenodd" d="M176.059 140.092C175.967 140.948 176.269 141.628 176.966 142.131C177.911 142.49 178.743 143.019 179.458 143.717C179.609 143.566 179.76 143.415 179.911 143.264C180.682 144.447 181.664 144.9 182.857 144.624C181.805 150.655 179.69 156.244 176.512 161.391C174.364 159.735 172.249 158.376 170.168 157.313C173.049 151.841 175.012 146.101 176.059 140.092Z" fill="#0A0A0A"/>
<path fill-rule="evenodd" clip-rule="evenodd" d="M66.3895 152.328C68.6327 159.685 71.9563 166.482 76.3594 172.721C76.0798 172.772 75.8532 172.923 75.6796 173.175C74.471 171.664 73.2628 170.153 72.0542 168.643C71.5938 169.157 71.2915 169.006 71.1479 168.19C70.997 168.492 70.8456 168.794 70.6947 169.096C69.8776 168.197 69.4244 167.29 69.3352 166.377C68.882 166.528 68.4288 166.679 67.9756 166.83C67.2202 166.075 66.4652 165.32 65.7097 164.564C64.938 165.401 65.0137 166.232 65.9363 167.057C65.6844 167.23 65.5335 167.457 65.4831 167.736C62.3934 162.398 60.2784 156.658 59.1387 150.516C59.4183 150.465 59.6449 150.314 59.8184 150.062C60.4225 151.271 61.0271 151.271 61.6311 150.062C62.557 150.837 63.3124 151.743 63.897 152.782C64.0366 152.415 64.2632 152.113 64.5768 151.875C65.1333 152.635 65.7374 152.786 66.3895 152.328Z" fill="#0A0A0A"/>
<path fill-rule="evenodd" clip-rule="evenodd" d="M170.165 157.312C172.247 158.376 174.362 159.735 176.51 161.391C173.261 167.36 168.88 172.345 163.368 176.346C163.418 176.066 163.569 175.84 163.821 175.666C162.897 175.106 162.368 174.275 162.235 173.174C161.932 172.57 161.631 172.57 161.328 173.174C161.026 171.965 160.724 171.965 160.422 173.174C160.271 172.721 160.12 172.267 159.969 171.814C159.667 171.21 159.365 171.21 159.063 171.814C159.112 171.239 159.036 170.786 158.836 170.455C163.447 166.754 167.223 162.373 170.165 157.312Z" fill="#0A0A0A"/>
<path opacity="0.971" fill-rule="evenodd" clip-rule="evenodd" d="M193.733 151.875C195.66 152.915 197.623 153.821 199.625 154.594C198.163 160.499 195.747 165.937 192.374 170.908C191.833 170.204 191.304 169.449 190.788 168.643C190.637 168.793 190.485 168.945 190.334 169.096C189.565 167.997 188.659 167.393 187.615 167.283C187.442 167.535 187.215 167.686 186.936 167.736C189.586 162.59 191.852 157.303 193.733 151.875Z" fill="#0A0A0A"/>
<path opacity="0.995" fill-rule="evenodd" clip-rule="evenodd" d="M38.2916 161.392C46.7429 161.152 49.3863 164.929 46.2222 172.721C42.9462 175.527 39.5474 175.678 36.0257 173.174C32.6206 168.437 33.376 164.509 38.2916 161.392Z" fill="#0A0A0A"/>
<path fill-rule="evenodd" clip-rule="evenodd" d="M216.391 161.392C224.842 161.152 227.485 164.929 224.321 172.721C219.759 176.209 215.831 175.605 212.539 170.908C211.327 166.689 212.611 163.516 216.391 161.392Z" fill="#0A0A0A"/>
<path opacity="0.985" fill-rule="evenodd" clip-rule="evenodd" d="M76.3585 172.72C81.0407 178.988 86.5545 184.426 92.8994 189.034C94.1534 186.979 95.2863 184.864 96.2983 182.69C96.5584 183.155 96.7093 183.609 96.7514 184.049C97.2232 182.92 97.6007 182.92 97.8844 184.049C98.0353 183.747 98.1866 183.445 98.3376 183.143C98.5569 183.903 98.9344 184.205 99.4705 184.049C98.7327 186.129 97.7507 188.093 96.5248 189.94C96.1854 190.455 96.2606 190.908 96.7514 191.3C104.86 196.123 113.621 198.993 123.036 199.91C123.856 200.484 124.687 201.089 125.528 201.723C125.679 201.421 125.83 201.119 125.981 200.817C126.334 202.092 126.938 202.847 127.794 203.083C128.235 202.005 128.538 202.156 128.7 203.536C129.115 201.866 129.417 202.017 129.607 203.989C129.758 203.385 129.909 202.78 130.06 202.176C130.223 203.131 130.525 204.038 130.966 204.895C131.408 203.818 131.71 203.969 131.873 205.348C132.024 204.895 132.175 204.442 132.326 203.989C132.779 203.838 133.232 203.687 133.685 203.536C134.158 204.045 134.46 204.649 134.592 205.348C135.643 204.219 136.021 204.37 135.725 205.802C136.381 206.106 136.985 206.408 137.537 206.708C135.692 206.587 133.88 206.738 132.099 207.161C131.647 213.196 131.495 219.238 131.646 225.288C131.453 222.066 130.999 218.591 130.287 214.865C130.582 213.434 130.205 213.283 129.154 214.412C129.003 214.261 128.851 214.11 128.7 213.959C128.636 211.349 128.409 209.084 128.021 207.161C120.676 206.819 113.576 205.46 106.721 203.083C106.916 201.053 106.086 199.391 104.229 198.098C103.776 198.249 103.322 198.4 102.869 198.551C101.882 197.919 101.429 197.164 101.51 196.285C100.598 197.872 99.9944 197.872 99.6971 196.285C99.5462 196.587 99.3948 196.889 99.2439 197.191C98.4885 196.285 97.7335 195.379 96.978 194.472C96.8271 194.623 96.6758 194.774 96.5248 194.925C96.3245 193.938 95.8714 193.636 95.1653 194.019C94.6664 193.161 94.0623 192.858 93.3526 193.113C92.8509 191.757 92.0955 191.454 91.0867 192.206C90.6721 191.831 90.3702 191.378 90.1804 190.847C90.0295 191.149 89.8781 191.451 89.7272 191.753C88.9101 190.854 88.4569 189.948 88.3677 189.034C87.5773 189.277 86.7466 189.428 85.8752 189.487C85.7864 188.668 85.2575 187.913 84.2891 187.221C83.8359 187.372 83.3827 187.524 82.9295 187.675C82.4764 187.07 82.0232 186.466 81.57 185.862C81.4191 186.164 81.2677 186.466 81.1168 186.768C80.999 185.808 80.5458 185.053 79.7573 184.502C79.4437 184.74 79.2171 185.042 79.0775 185.409C79.7355 186.061 80.1887 186.816 80.4371 187.675C74.1302 182.005 69.1453 175.358 65.4822 167.735C65.5325 167.455 65.6834 167.229 65.9354 167.055C65.0127 166.231 64.9371 165.4 65.7088 164.562C66.4643 165.318 67.2193 166.073 67.9747 166.828C68.4279 166.677 68.8811 166.526 69.3342 166.375C69.4235 167.289 69.8767 168.195 70.6938 169.094C70.8447 168.792 70.996 168.49 71.1469 168.188C71.2906 169.004 71.5929 169.155 72.0533 168.641C73.2619 170.152 74.4701 171.662 75.6787 173.173C75.8523 172.921 76.0789 172.77 76.3585 172.72Z" fill="#0A0A0A"/>
<path fill-rule="evenodd" clip-rule="evenodd" d="M192.371 170.909C189.752 175.694 186.58 180.075 182.854 184.051C181.762 183.886 181.082 184.339 180.815 185.41C180.601 184.377 180.148 183.471 179.456 182.691C179.268 182.898 179.041 183.05 178.776 183.144C177.875 182.316 176.818 181.863 175.604 181.785C179.882 177.506 183.658 172.824 186.933 167.736C187.213 167.686 187.439 167.535 187.613 167.283C188.656 167.393 189.563 167.997 190.332 169.096C190.483 168.945 190.634 168.794 190.785 168.643C191.302 169.449 191.83 170.204 192.371 170.909Z" fill="#0A0A0A"/>
<path fill-rule="evenodd" clip-rule="evenodd" d="M122.584 187.675C115.145 186.832 108.272 184.414 101.965 180.424C101.236 181.741 100.405 182.949 99.4722 184.049C98.9361 184.205 98.5586 183.903 98.3393 183.143C98.1884 183.445 98.037 183.747 97.8861 184.049C97.6024 182.92 97.2249 182.92 96.7531 184.049C96.711 183.609 96.5601 183.155 96.3 182.69C97.3667 181.314 98.0465 179.804 98.3393 178.158C93.6276 174.731 89.6247 170.652 86.3301 165.922C86.6781 165.576 86.9047 165.123 87.0098 164.562C87.1725 165.942 87.4748 166.093 87.9162 165.016C88.1949 165.748 88.6481 166.352 89.2757 166.828C89.4266 166.526 89.578 166.224 89.7289 165.922C90.4844 166.677 91.2393 167.432 91.9948 168.188C92.7008 167.805 93.154 168.107 93.3543 169.094C93.5052 168.943 93.6566 168.792 93.8075 168.641C94.596 169.192 95.0492 169.947 95.167 170.907C95.4693 169.698 95.7711 169.698 96.0734 170.907C96.261 170.7 96.4876 170.549 96.7531 170.454C97.8032 170.785 98.7852 171.541 99.6988 172.72C100.317 172.376 100.846 172.603 101.285 173.399C100.785 174.161 100.936 174.841 101.738 175.439C101.646 174.972 101.872 174.519 102.418 174.079C103.462 174.038 104.217 174.643 104.684 175.892C105.049 174.804 105.426 174.88 105.817 176.119C105.294 176.533 105.369 176.91 106.043 177.251C106.194 176.798 106.346 176.345 106.496 175.892C106.62 176.721 106.998 177.401 107.629 177.931C106.574 178.835 106.876 179.364 108.536 179.517C108.849 179.279 109.076 178.977 109.216 178.611C109.669 179.366 110.122 180.121 110.575 180.877C110.877 179.668 111.179 179.668 111.481 180.877C111.632 180.575 111.784 180.273 111.935 179.971C112.539 180.877 113.143 181.783 113.747 182.69C114.208 182.176 114.51 182.327 114.654 183.143C114.805 182.84 114.956 182.539 115.107 182.236C115.238 182.936 115.54 183.54 116.013 184.049C116.455 182.971 116.757 183.123 116.92 184.502C117.07 184.049 117.222 183.596 117.373 183.143C117.504 183.842 117.806 184.447 118.279 184.955C118.43 184.653 118.581 184.351 118.732 184.049C119.185 184.805 119.639 185.56 120.092 186.315C120.243 186.013 120.394 185.711 120.545 185.409C121.009 186.4 121.689 187.155 122.584 187.675Z" fill="#0A0A0A"/>
<path opacity="0.987" fill-rule="evenodd" clip-rule="evenodd" d="M158.837 170.455C159.038 170.786 159.113 171.24 159.064 171.815C159.366 171.211 159.668 171.211 159.97 171.815C160.121 172.268 160.272 172.721 160.423 173.174C160.726 171.966 161.027 171.966 161.33 173.174C161.632 172.57 161.934 172.57 162.236 173.174C162.37 174.276 162.899 175.106 163.822 175.667C163.57 175.84 163.419 176.067 163.369 176.346C162.925 177.092 162.321 177.696 161.556 178.159C163.445 181.634 165.333 185.108 167.221 188.582C167.725 188.217 168.254 187.915 168.807 187.676C168.722 188.611 168.496 189.518 168.127 190.395C167.395 189.878 166.564 189.5 165.635 189.262C164.804 188.733 164.124 188.053 163.596 187.223C163.422 187.475 163.195 187.625 162.916 187.676C161.454 185.514 160.094 183.248 158.837 180.878C158.611 180.727 158.384 180.576 158.157 180.425C157.52 180.839 156.841 181.141 156.118 181.331C156.018 180.154 155.791 180.154 155.438 181.331C155.136 179.519 154.834 179.519 154.532 181.331C154.028 180.76 153.952 180.231 154.305 179.745C153.964 179.071 153.587 178.996 153.173 179.519C152.758 179.143 152.456 178.69 152.266 178.159C151.366 179.912 151.139 179.912 151.586 178.159C150.914 177.051 150.386 177.202 150 178.612C149.698 177.404 149.396 177.404 149.094 178.612C148.792 177.404 148.49 177.404 148.188 178.612C148.082 178.052 147.856 177.599 147.508 177.253C151.479 175.342 155.255 173.076 158.837 170.455Z" fill="#0A0A0A"/>
<path fill-rule="evenodd" clip-rule="evenodd" d="M88.1417 154.593C97.2523 171.394 111.452 180.155 130.74 180.877C130.458 181.786 130.835 182.541 131.873 183.143C132.567 182.628 133.171 182.175 133.686 181.784C134.444 183.15 135.35 184.056 136.405 184.503C136.865 183.989 137.168 184.14 137.311 184.956C137.753 183.878 138.055 184.03 138.218 185.409C138.632 183.739 138.934 183.89 139.124 185.862C139.275 185.409 139.426 184.956 139.577 184.503C139.849 185.751 140.528 186.657 141.617 187.222C138.323 187.822 135 188.124 131.647 188.128C131.274 189.704 131.047 191.366 130.967 193.113C129.918 191.753 128.937 190.695 128.021 189.941C128.021 189.337 128.021 188.732 128.021 188.128C126.163 188.247 124.351 188.096 122.583 187.675C121.688 187.156 121.008 186.4 120.544 185.409C120.393 185.711 120.242 186.013 120.091 186.315C119.637 185.56 119.184 184.805 118.731 184.05C118.58 184.352 118.429 184.654 118.278 184.956C117.805 184.447 117.503 183.843 117.372 183.143C117.221 183.596 117.069 184.05 116.918 184.503C116.756 183.123 116.453 182.972 116.012 184.05C115.539 183.541 115.237 182.937 115.106 182.237C114.955 182.539 114.803 182.841 114.653 183.143C114.509 182.327 114.207 182.176 113.746 182.69C113.142 181.784 112.538 180.877 111.933 179.971C111.783 180.273 111.631 180.575 111.48 180.877C111.178 179.669 110.876 179.669 110.574 180.877C110.121 180.122 109.668 179.367 109.214 178.611C109.075 178.978 108.848 179.28 108.535 179.518C106.875 179.365 106.573 178.836 107.628 177.932C106.997 177.401 106.619 176.721 106.495 175.892C106.344 176.346 106.193 176.799 106.042 177.252C105.368 176.911 105.293 176.533 105.816 176.119C105.425 174.88 105.047 174.804 104.683 175.892C104.216 174.643 103.46 174.038 102.417 174.08C101.871 174.52 101.645 174.973 101.737 175.439C100.935 174.841 100.784 174.161 101.284 173.4C100.845 172.603 100.316 172.377 99.6977 172.72C98.7841 171.541 97.802 170.785 96.752 170.454C96.4865 170.549 96.2599 170.7 96.0723 170.907C95.77 169.699 95.4682 169.699 95.1659 170.907C95.0481 169.948 94.5949 169.193 93.8064 168.642C93.6555 168.792 93.5041 168.944 93.3532 169.095C93.1529 168.107 92.6997 167.805 91.9937 168.188C91.2382 167.433 90.4832 166.678 89.7278 165.922C89.5769 166.225 89.4255 166.527 89.2746 166.829C88.647 166.353 88.1938 165.748 87.9151 165.016C87.4737 166.094 87.1714 165.942 87.0087 164.563C86.9036 165.123 86.677 165.577 86.329 165.922C82.8499 161.836 80.4331 157.153 79.0781 151.874C79.7679 151.743 80.4476 151.743 81.1174 151.874C81.4197 153.083 81.7215 153.083 82.0238 151.874C82.326 153.687 82.6279 153.687 82.9301 151.874C83.1649 153.017 83.7694 153.924 84.7428 154.593C85.4489 154.21 85.9021 154.512 86.1024 155.499C86.4046 154.291 86.7065 154.291 87.0087 155.499C87.1977 154.93 87.5752 154.628 88.1417 154.593Z" fill="#0A0A0A"/>
<path fill-rule="evenodd" clip-rule="evenodd" d="M147.509 177.254C147.857 177.6 148.083 178.053 148.188 178.613C148.491 177.405 148.793 177.405 149.095 178.613C149.397 177.405 149.699 177.405 150.001 178.613C150.387 177.203 150.915 177.052 151.587 178.16C151.14 179.913 151.367 179.913 152.267 178.16C152.457 178.691 152.759 179.145 153.173 179.52C153.588 178.997 153.965 179.073 154.306 179.746C153.953 180.233 154.029 180.761 154.533 181.332C154.835 179.52 155.137 179.52 155.439 181.332C155.792 180.156 156.019 180.156 156.119 181.332C151.603 183.998 146.77 185.962 141.617 187.224C140.529 186.659 139.85 185.753 139.578 184.505C139.427 184.958 139.276 185.411 139.125 185.864C138.935 183.892 138.633 183.741 138.219 185.411C138.056 184.032 137.754 183.88 137.312 184.958C137.169 184.142 136.866 183.991 136.406 184.505C135.351 184.058 134.445 183.152 133.687 181.786C133.172 182.177 132.567 182.63 131.874 183.145C130.836 182.543 130.458 181.788 130.741 180.879C136.444 180.475 142.033 179.266 147.509 177.254Z" fill="#0A0A0A"/>
<path opacity="0.981" fill-rule="evenodd" clip-rule="evenodd" d="M175.605 181.783C176.819 181.862 177.877 182.315 178.777 183.143C179.043 183.048 179.269 182.897 179.457 182.69C180.149 183.469 180.602 184.376 180.817 185.409C181.084 184.338 181.763 183.885 182.856 184.049C179.661 187.395 176.187 190.417 172.433 193.113C172.102 192.563 171.649 192.11 171.073 191.753C171.168 191.488 171.319 191.261 171.526 191.073C170.845 190.398 170.467 189.567 170.394 188.581C170.318 190.399 169.94 190.625 169.261 189.261C169.247 188.613 169.398 187.933 169.714 187.221C171.666 185.421 173.63 183.609 175.605 181.783Z" fill="#0A0A0A"/>
<path fill-rule="evenodd" clip-rule="evenodd" d="M168.808 187.676C168.963 187.296 169.265 187.145 169.715 187.223C169.399 187.935 169.248 188.615 169.261 189.262C169.941 190.627 170.319 190.4 170.394 188.583C170.468 189.569 170.846 190.399 171.527 191.075C171.32 191.263 171.169 191.489 171.074 191.755C171.65 192.112 172.103 192.565 172.434 193.114C171.7 193.545 171.096 194.149 170.621 194.927C172.966 201.729 177.649 205.883 184.669 207.389C189.501 207.616 194.335 207.692 199.171 207.616C199.674 207.974 200.278 208.201 200.984 208.296C200.531 208.447 200.077 208.598 199.624 208.749C200.643 209.618 201.701 210.146 202.796 210.335C202.947 210.259 203.099 210.184 203.25 210.108C202.745 209.397 202.141 208.793 201.437 208.296C203.854 207.993 206.271 207.993 208.688 208.296C207.026 208.447 205.365 208.598 203.703 208.749C203.929 208.975 204.156 209.202 204.383 209.429C204.987 209.429 205.591 209.429 206.195 209.429C206.365 209.844 206.591 210.222 206.875 210.562C206.314 210.667 205.861 210.893 205.516 211.241C198.567 211.241 191.618 211.241 184.669 211.241C184.569 210.064 184.343 210.064 183.99 211.241C183.687 210.033 183.386 210.033 183.083 211.241C182.94 210.425 182.637 210.274 182.177 210.788C181.459 210.391 181.005 209.787 180.817 208.975C180.492 209.222 180.266 209.524 180.138 209.882C174.092 207.234 169.787 202.854 167.222 196.74C165.496 197.715 163.759 198.622 162.011 199.459C161.743 198.885 161.517 198.281 161.331 197.646C161.18 197.948 161.029 198.25 160.878 198.552C160.437 197.695 160.134 196.789 159.971 195.833C159.781 197.806 159.479 197.956 159.065 196.287C158.914 196.589 158.763 196.891 158.612 197.193C158.309 196.589 158.008 195.984 157.705 195.38C157.403 196.589 157.101 196.589 156.799 195.38C156.648 195.682 156.497 195.984 156.346 196.287C156.157 195.717 155.779 195.415 155.213 195.38C158.264 193.93 161.285 192.343 164.276 190.622C163.636 189.719 163.182 188.737 162.917 187.676C163.197 187.626 163.423 187.475 163.597 187.223C164.126 188.054 164.805 188.733 165.636 189.262C166.565 189.501 167.396 189.878 168.128 190.395C168.497 189.518 168.723 188.612 168.808 187.676Z" fill="#0A0A0A"/>
<path opacity="0.988" fill-rule="evenodd" clip-rule="evenodd" d="M106.722 203.084C101.811 201.648 97.2034 199.534 92.9 196.74C91.3329 201.093 88.6891 204.567 84.9694 207.163C85.003 206.297 85.4561 205.768 86.329 205.577C86.3947 204.708 86.1681 203.878 85.6492 203.084C84.5425 203.846 83.9384 204.752 83.8365 205.803C83.4667 205.204 82.9378 204.902 82.2504 204.897C85.7036 202.458 88.1204 199.21 89.5012 195.154C86.4142 192.747 83.3933 190.255 80.4377 187.676C80.1893 186.818 79.7361 186.063 79.0781 185.41C79.2177 185.044 79.4443 184.742 79.7579 184.504C80.5464 185.055 80.9996 185.81 81.1174 186.77C81.2683 186.468 81.4197 186.166 81.5706 185.863C82.0238 186.468 82.477 187.072 82.9301 187.676C83.3833 187.525 83.8365 187.374 84.2897 187.223C85.2581 187.915 85.787 188.67 85.8758 189.489C86.7472 189.43 87.5779 189.279 88.3683 189.036C88.4575 189.949 88.9107 190.856 89.7278 191.755C89.8787 191.452 90.0301 191.151 90.181 190.848C90.3708 191.38 90.6727 191.833 91.0873 192.208C92.0961 191.456 92.8515 191.758 93.3532 193.114C94.0629 192.86 94.667 193.162 95.1659 194.021C95.872 193.638 96.3251 193.94 96.5254 194.927C96.6763 194.776 96.8277 194.625 96.9786 194.474C97.7341 195.38 98.4891 196.287 99.2445 197.193C99.3954 196.891 99.5468 196.589 99.6977 196.287C99.995 197.874 100.599 197.874 101.51 196.287C101.43 197.166 101.883 197.921 102.87 198.552C103.323 198.401 103.776 198.25 104.229 198.099C106.086 199.393 106.917 201.055 106.722 203.084Z" fill="#0A0A0A"/>
<path fill-rule="evenodd" clip-rule="evenodd" d="M131.646 188.129C131.646 192.207 131.646 196.286 131.646 200.365C135.311 200.176 138.937 199.723 142.522 199.005C142.955 200.007 143.634 200.158 144.561 199.458C144.863 200.667 145.165 200.667 145.467 199.458C145.909 200.536 146.211 200.385 146.374 199.005C146.536 200.385 146.839 200.536 147.28 199.458C148.036 200.516 148.791 201.573 149.546 202.631C149.697 202.328 149.848 202.026 149.999 201.724C150.572 202.476 150.799 203.232 150.679 203.99C146.374 205.244 141.994 206.15 137.537 206.709C136.985 206.41 136.381 206.107 135.724 205.803C136.02 204.372 135.642 204.22 134.591 205.35C134.46 204.65 134.158 204.046 133.685 203.537C133.232 203.688 132.778 203.839 132.325 203.99C132.174 204.443 132.023 204.896 131.872 205.35C131.709 203.97 131.407 203.819 130.966 204.896C130.525 204.039 130.223 203.133 130.059 202.177C129.908 202.781 129.757 203.386 129.606 203.99C129.416 202.018 129.114 201.867 128.7 203.537C128.537 202.157 128.235 202.006 127.794 203.084C126.938 202.848 126.334 202.093 125.981 200.818C125.83 201.12 125.679 201.422 125.528 201.724C124.687 201.09 123.856 200.486 123.035 199.912C124.682 200.19 126.344 200.341 128.02 200.365C128.02 196.89 128.02 193.416 128.02 189.942C128.936 190.696 129.917 191.754 130.966 193.114C131.046 191.366 131.273 189.705 131.646 188.129Z" fill="#0A0A0A"/>
<path fill-rule="evenodd" clip-rule="evenodd" d="M45.0886 195.38C45.3909 196.589 46.1459 197.344 47.3545 197.646C49.2996 200.027 50.5082 202.746 50.9799 205.804C50.9799 206.559 50.9799 207.314 50.9799 208.069C55.5548 207.786 60.0108 208.088 64.3487 208.976C64.7901 207.898 65.0923 208.049 65.255 209.429C65.4739 208.999 65.5491 208.546 65.4816 208.069C66.7945 207.899 68.0026 208.126 69.107 208.749C68.5628 209.158 68.1848 209.687 67.9741 210.335C67.0736 208.583 66.847 208.583 67.2943 210.335C66.9168 210.486 66.5389 210.638 66.1614 210.788C61.2584 210.689 56.1983 210.689 50.9799 210.788C50.6527 210.978 50.4262 211.28 50.3002 211.695C49.3938 210.788 48.4875 209.882 47.5811 208.976C46.8442 209.635 46.3158 210.391 45.995 211.242C45.806 201.461 40.8211 196.702 31.0402 196.967C29.2742 197.428 27.6125 198.108 26.0552 199.006C25.5526 199.032 25.0995 199.183 24.6957 199.459C24.3477 199.113 24.1211 198.66 24.0159 198.1C23.4959 198.534 23.0427 198.383 22.6564 197.646C22.3465 197.064 22.422 196.536 22.883 196.06C22.4534 195.841 22.0002 195.766 21.5234 195.834C24.8142 192.594 28.8173 191.084 33.5326 191.302C37.8994 191.272 41.7514 192.631 45.0886 195.38Z" fill="#0A0A0A"/>
<path fill-rule="evenodd" clip-rule="evenodd" d="M242.22 219.399C240.972 219.041 239.99 218.436 239.275 217.587C238.861 218.11 238.483 218.034 238.142 217.36C238.444 217.209 238.746 217.058 239.048 216.907C238.401 216.645 237.796 216.72 237.235 217.134C241.37 209.66 240.01 203.391 233.157 198.327C225.432 195.186 219.54 197.226 215.483 204.445C215.135 204.099 214.908 203.646 214.803 203.085C214.652 203.387 214.501 203.689 214.35 203.991C213.863 203.485 213.335 203.032 212.764 202.632C212.749 201.957 212.522 201.353 212.084 200.819C211.78 201.16 211.403 201.311 210.951 201.272C215.063 193.476 221.559 190.228 230.438 191.529C241.768 194.77 246.526 202.248 244.713 213.961C244.232 215.978 243.401 217.791 242.22 219.399Z" fill="#0A0A0A"/>
<path fill-rule="evenodd" clip-rule="evenodd" d="M155.21 195.381C155.777 195.416 156.154 195.718 156.343 196.287C156.494 195.985 156.646 195.683 156.797 195.381C157.099 196.589 157.401 196.589 157.703 195.381C158.005 195.985 158.307 196.589 158.609 197.194C158.76 196.891 158.912 196.589 159.062 196.287C159.477 197.957 159.779 197.806 159.969 195.834C160.132 196.789 160.434 197.696 160.875 198.553C161.026 198.251 161.177 197.949 161.328 197.647C161.514 198.282 161.741 198.886 162.008 199.459C158.387 201.345 154.61 202.856 150.679 203.991C150.798 203.233 150.572 202.478 149.999 201.725C149.848 202.028 149.697 202.329 149.546 202.632C148.79 201.574 148.035 200.517 147.28 199.459C146.838 200.537 146.536 200.386 146.373 199.006C146.211 200.386 145.909 200.537 145.467 199.459C145.165 200.668 144.863 200.668 144.561 199.459C143.634 200.159 142.954 200.008 142.521 199.006C146.876 198.22 151.105 197.011 155.21 195.381Z" fill="#0A0A0A"/>
<path fill-rule="evenodd" clip-rule="evenodd" d="M21.5246 195.833C22.0014 195.765 22.4545 195.84 22.8842 196.059C22.4232 196.535 22.3477 197.063 22.6576 197.645C23.0439 198.382 23.4971 198.533 24.0171 198.098C24.1223 198.659 24.3489 199.112 24.6969 199.458C24.6969 199.609 24.6969 199.76 24.6969 199.911C19.9647 205.334 19.5116 211.075 23.3373 217.132C23.6395 218.34 24.3947 219.095 25.6032 219.398C31.9608 223.441 37.8521 222.837 43.2771 217.585C43.9143 217.371 44.2166 216.918 44.1835 216.225C44.9181 214.606 45.5222 212.945 45.9962 211.241C46.317 210.389 46.8454 209.634 47.5823 208.975C48.4887 209.881 49.395 210.787 50.3014 211.694C50.4273 211.279 50.6539 210.977 50.9811 210.787C50.9811 211.543 50.9811 212.298 50.9811 213.053C50.5094 216.11 49.3007 218.829 47.3557 221.21C46.3365 221.473 45.5815 222.077 45.0898 223.023C41.8677 226.214 37.9401 227.725 33.3072 227.555C23.4961 226.883 17.5292 221.747 15.4067 212.147C15.0816 209.552 15.2327 206.985 15.8599 204.443C16.227 202.5 17.0578 200.838 18.3524 199.458C18.9897 199.244 19.2918 198.79 19.2587 198.098C19.863 197.192 20.6183 196.437 21.5246 195.833Z" fill="#0A0A0A"/>
<path opacity="0.816" fill-rule="evenodd" clip-rule="evenodd" d="M45.0898 195.381C45.9962 195.985 46.7516 196.74 47.3557 197.647C46.1471 197.344 45.3921 196.589 45.0898 195.381Z" fill="#0A0A0A"/>
<path opacity="0.902" fill-rule="evenodd" clip-rule="evenodd" d="M19.2584 198.098C19.2915 198.79 18.9894 199.243 18.3521 199.457C18.319 198.765 18.6211 198.312 19.2584 198.098Z" fill="#0A0A0A"/>
<path opacity="0.063" fill-rule="evenodd" clip-rule="evenodd" d="M26.0568 199.004C25.8424 199.641 25.3892 199.943 24.6973 199.91C24.6973 199.759 24.6973 199.608 24.6973 199.457C25.101 199.181 25.5542 199.03 26.0568 199.004Z" fill="#0A0A0A"/>
<path opacity="0.975" fill-rule="evenodd" clip-rule="evenodd" d="M215.484 204.442C214.193 208.268 214.344 212.044 215.937 215.771C215.353 215.518 214.975 215.065 214.805 214.412C214.654 214.714 214.502 215.016 214.351 215.318C214.073 214.586 213.619 213.982 212.992 213.505C212.832 214.219 212.53 214.974 212.085 215.771C211.314 214.934 211.389 214.103 212.312 213.279C212.085 213.052 211.859 212.826 211.632 212.599C211.052 212.545 210.523 212.772 210.046 213.279C210.406 213.77 210.708 214.299 210.953 214.865C210.635 214.995 210.333 215.146 210.046 215.318C209.313 214.108 209.011 212.748 209.14 211.239C207.931 211.239 206.723 211.239 205.514 211.239C205.86 210.891 206.313 210.665 206.874 210.56C206.59 210.22 206.364 209.842 206.194 209.427C205.59 209.427 204.986 209.427 204.381 209.427C204.155 209.2 203.928 208.974 203.702 208.747C205.363 208.596 207.025 208.445 208.687 208.294C206.27 207.992 203.853 207.992 201.436 208.294C202.14 208.791 202.744 209.395 203.249 210.107C203.098 210.182 202.946 210.257 202.795 210.333C201.7 210.144 200.642 209.616 199.623 208.747C200.076 208.596 200.529 208.445 200.983 208.294C200.277 208.199 199.672 207.972 199.17 207.614C202.493 207.614 205.817 207.614 209.14 207.614C209.115 205.276 209.719 203.162 210.953 201.27C211.404 201.309 211.781 201.157 212.085 200.816C212.524 201.35 212.75 201.954 212.765 202.629C213.336 203.029 213.865 203.482 214.351 203.989C214.502 203.686 214.654 203.385 214.805 203.082C214.91 203.643 215.136 204.096 215.484 204.442Z" fill="#0A0A0A"/>
<path fill-rule="evenodd" clip-rule="evenodd" d="M31.0424 202.177C38.2942 201.649 41.3907 204.972 40.3326 212.147C37.7417 216.736 34.0407 217.869 29.2297 215.546C26.1829 213.051 25.3521 209.954 26.7373 206.256C27.8275 204.485 29.2625 203.125 31.0424 202.177Z" fill="#0A0A0A"/>
<path fill-rule="evenodd" clip-rule="evenodd" d="M232.705 213.959C232.58 212.898 232.203 212.898 231.572 213.959C231.269 212.146 230.968 212.146 230.665 213.959C230.224 213.102 229.922 212.195 229.759 211.24C229.708 212.361 229.255 213.268 228.399 213.959C227.849 213.257 227.17 212.729 226.36 212.373C226.662 212.222 226.964 212.071 227.267 211.92C226.436 211.693 225.907 211.164 225.68 210.334C225.529 210.636 225.378 210.938 225.227 211.24C224.623 210.334 224.019 209.427 223.415 208.521C223.112 209.73 222.81 209.73 222.508 208.521C222.357 208.823 222.206 209.125 222.055 209.427C221.614 208.57 221.312 207.664 221.149 206.708C220.927 207.294 220.851 207.899 220.922 208.521C220.469 208.521 220.016 208.521 219.562 208.521C221.531 202.478 225.458 200.741 231.345 203.309C234.788 206.556 235.242 210.106 232.705 213.959Z" fill="#0A0A0A"/>
<path fill-rule="evenodd" clip-rule="evenodd" d="M84.9707 207.163C83.3891 208.484 81.5764 209.466 79.5326 210.108C92.0538 218.386 105.801 223.296 120.772 224.836C121.227 225.373 121.605 225.977 121.905 226.649C122.43 225.608 122.883 225.759 123.264 227.102C123.74 226.641 124.268 226.566 124.85 226.876C123.642 227.178 123.642 227.48 124.85 227.782C124.513 228.253 124.06 228.48 123.491 228.462C105.684 227.41 89.5206 221.745 75.0008 211.468C67.1472 211.241 59.2923 211.165 51.4356 211.241C51.5571 211.966 51.4057 212.57 50.9824 213.054C50.9824 212.298 50.9824 211.543 50.9824 210.788C56.2008 210.689 61.2609 210.689 66.1638 210.788C66.5413 210.637 66.9193 210.486 67.2968 210.335C66.8495 208.582 67.0761 208.582 67.9766 210.335C68.1873 209.686 68.5652 209.158 69.1095 208.749C68.0051 208.126 66.7969 207.899 65.4841 208.069C65.5516 208.546 65.4764 208.999 65.2575 209.428C65.0948 208.049 64.7925 207.898 64.3511 208.975C60.0133 208.088 55.5572 207.785 50.9824 208.069C50.9824 207.313 50.9824 206.558 50.9824 205.803C51.4057 206.287 51.5571 206.891 51.4356 207.616C59.5941 207.691 67.7513 207.616 75.9072 207.389C78.1812 206.931 80.2962 206.1 82.2516 204.897C82.9391 204.902 83.468 205.203 83.8378 205.803C83.9397 204.752 84.5438 203.846 85.6505 203.084C86.1693 203.877 86.3959 204.708 86.3302 205.576C85.4574 205.768 85.0042 206.297 84.9707 207.163Z" fill="#0A0A0A"/>
<path opacity="0.988" fill-rule="evenodd" clip-rule="evenodd" d="M232.705 213.96C231.906 215.345 230.697 216.175 229.079 216.452C223.104 217.2 219.932 214.557 219.562 208.522C220.016 208.522 220.469 208.522 220.922 208.522C220.851 207.899 220.927 207.295 221.149 206.709C221.312 207.664 221.614 208.571 222.055 209.428C222.206 209.126 222.357 208.824 222.508 208.522C222.81 209.73 223.112 209.73 223.415 208.522C224.019 209.428 224.623 210.334 225.227 211.241C225.378 210.938 225.529 210.637 225.68 210.334C225.907 211.165 226.436 211.694 227.267 211.921C226.964 212.071 226.662 212.223 226.36 212.374C227.17 212.729 227.849 213.258 228.399 213.96C229.255 213.268 229.708 212.362 229.759 211.241C229.922 212.196 230.224 213.102 230.665 213.96C230.968 212.147 231.269 212.147 231.572 213.96C232.203 212.898 232.58 212.898 232.705 213.96Z" fill="#0A0A0A"/>
<path fill-rule="evenodd" clip-rule="evenodd" d="M184.67 211.24C181.365 213.954 177.74 216.22 173.793 218.038C173.76 217.172 173.307 216.643 172.434 216.452C172.585 216.301 172.736 216.15 172.887 215.999C172.209 215.769 171.68 215.996 171.301 216.679C171.091 216.409 171.015 216.107 171.074 215.772C174.25 214.034 177.271 212.07 180.138 209.881C180.266 209.523 180.493 209.221 180.818 208.975C181.006 209.786 181.459 210.39 182.177 210.787C182.638 210.273 182.94 210.424 183.083 211.24C183.386 210.032 183.688 210.032 183.99 211.24C184.343 210.064 184.569 210.064 184.67 211.24Z" fill="#0A0A0A"/>
<path opacity="0.995" fill-rule="evenodd" clip-rule="evenodd" d="M131.648 225.289C136.044 225.187 140.424 224.885 144.79 224.383C145.76 224.496 146.742 224.647 147.736 224.836C148.566 223.552 149.246 223.627 149.775 225.063C149.471 225.509 149.471 226.038 149.775 226.649C143.876 228.052 137.834 228.808 131.648 228.915C131.648 231.936 131.648 234.957 131.648 237.978C131.26 235.904 131.034 233.487 130.968 230.727C130.817 230.878 130.666 231.03 130.515 231.18C130.29 228.007 129.988 227.856 129.608 230.727C128.972 230.169 128.443 229.565 128.022 228.915C126.417 229.056 124.907 228.905 123.491 228.461C124.06 228.479 124.513 228.253 124.85 227.782C123.641 227.479 123.641 227.178 124.85 226.875C124.268 226.565 123.739 226.641 123.264 227.102C122.883 225.759 122.43 225.608 121.904 226.649C121.604 225.976 121.226 225.372 120.771 224.836C123.167 225.218 125.584 225.369 128.022 225.289C128.022 219.247 128.022 213.204 128.022 207.162C128.411 209.084 128.637 211.35 128.702 213.96C128.853 214.111 129.004 214.262 129.155 214.413C130.206 213.284 130.584 213.435 130.288 214.866C131.001 218.592 131.454 222.067 131.648 225.289Z" fill="#0A0A0A"/>
<path fill-rule="evenodd" clip-rule="evenodd" d="M215.936 215.774C218.919 220.287 223.149 222.401 228.625 222.118C229.231 222.803 229.759 223.558 230.211 224.384C230.514 223.176 230.815 223.176 231.118 224.384C231.425 225.335 231.349 226.241 230.891 227.103C223.576 228.466 217.458 226.352 212.537 220.759C211.334 219.107 210.503 217.295 210.045 215.321C210.332 215.148 210.634 214.997 210.951 214.867C210.707 214.302 210.404 213.773 210.045 213.281C210.522 212.774 211.051 212.548 211.631 212.602C211.858 212.828 212.084 213.055 212.311 213.281C211.388 214.106 211.312 214.937 212.084 215.774C212.528 214.977 212.831 214.221 212.991 213.508C213.618 213.984 214.071 214.588 214.35 215.321C214.501 215.018 214.652 214.717 214.803 214.414C214.974 215.068 215.352 215.521 215.936 215.774Z" fill="#0A0A0A"/>
<path fill-rule="evenodd" clip-rule="evenodd" d="M171.072 215.771C171.012 216.106 171.088 216.409 171.298 216.678C171.678 215.995 172.206 215.768 172.884 215.998C172.733 216.149 172.582 216.3 172.431 216.451C173.304 216.642 173.757 217.171 173.791 218.037C169.903 220.206 165.825 222.019 161.555 223.475C161.605 223.196 161.756 222.969 162.008 222.796C161.161 221.676 160.254 220.996 159.289 220.756C163.182 219.103 167.11 217.442 171.072 215.771Z" fill="#0A0A0A"/>
<path opacity="0.816" fill-rule="evenodd" clip-rule="evenodd" d="M44.1822 216.225C44.2153 216.917 43.9131 217.37 43.2759 217.584C43.2428 216.892 43.5451 216.439 44.1822 216.225Z" fill="#0A0A0A"/>
<path opacity="0.816" fill-rule="evenodd" clip-rule="evenodd" d="M23.3359 217.131C24.2423 217.735 24.9976 218.49 25.6018 219.397C24.3933 219.094 23.6381 218.339 23.3359 217.131Z" fill="#0A0A0A"/>
<path opacity="0.943" fill-rule="evenodd" clip-rule="evenodd" d="M242.222 219.399C239.564 223.56 235.788 226.128 230.893 227.103C231.351 226.241 231.427 225.335 231.119 224.384C230.817 223.175 230.515 223.175 230.213 224.384C229.761 223.558 229.232 222.803 228.627 222.118C231.982 221.272 234.852 219.61 237.237 217.133C237.798 216.72 238.403 216.644 239.05 216.907C238.748 217.058 238.446 217.209 238.144 217.36C238.485 218.034 238.862 218.109 239.277 217.586C239.992 218.436 240.974 219.04 242.222 219.399Z" fill="#0A0A0A"/>
<path opacity="0.981" fill-rule="evenodd" clip-rule="evenodd" d="M159.291 220.758C160.256 220.998 161.162 221.677 162.01 222.797C161.758 222.971 161.607 223.197 161.557 223.477C157.736 224.901 153.809 225.958 149.774 226.649C149.47 226.039 149.47 225.51 149.774 225.063C149.245 223.628 148.565 223.553 147.735 224.836C146.741 224.647 145.759 224.496 144.789 224.383C149.599 223.287 154.433 222.079 159.291 220.758Z" fill="#0A0A0A"/>
<path opacity="0.063" fill-rule="evenodd" clip-rule="evenodd" d="M47.3557 221.211C46.864 222.157 46.109 222.761 45.0898 223.024C45.5815 222.078 46.3365 221.474 47.3557 221.211Z" fill="#0A0A0A"/>
<path fill-rule="evenodd" clip-rule="evenodd" d="M84.9706 231.182C84.6434 231.372 84.4168 231.673 84.2909 232.088C83.5463 230.966 82.7156 229.909 81.7984 228.916C81.2564 229.073 81.2564 229.3 81.7984 229.596C81.2346 229.803 80.8571 229.576 80.6654 228.916C80.5145 229.218 80.3632 229.52 80.2123 229.823C79.7228 228.691 79.1183 227.634 78.3996 226.65C78.0973 227.859 77.7955 227.859 77.4932 226.65C77.3423 226.953 77.1909 227.254 77.04 227.557C76.1319 226.041 75.0746 224.984 73.8678 224.384C73.5655 225.593 73.2637 225.593 72.9614 224.384C72.8105 224.535 72.6592 224.687 72.5083 224.838C72.099 224.293 71.5706 223.915 70.9221 223.705C71.4641 223.408 71.4641 223.182 70.9221 223.025C70.4789 223.241 70.1014 223.543 69.7892 223.931C69.4851 223.59 69.1076 223.439 68.6562 223.478C74.3205 220.85 79.2298 221.907 83.3845 226.65C84.231 228.057 84.7599 229.568 84.9706 231.182Z" fill="#0A0A0A"/>
<path fill-rule="evenodd" clip-rule="evenodd" d="M193.278 240.697C192.347 240.148 192.347 239.392 193.278 238.431C192.595 237.869 192.066 238.021 191.691 238.884C191.389 236.467 191.087 236.467 190.785 238.884C190.483 236.467 190.181 236.467 189.879 238.884C189.689 236.912 189.387 236.761 188.972 238.431C188.568 236.867 187.813 235.507 186.706 234.352C186.556 234.655 186.404 234.956 186.253 235.259C185.496 233.893 184.589 232.986 183.534 232.54C183.232 233.748 182.93 233.748 182.628 232.54C182.326 233.748 182.024 233.748 181.722 232.54C181.571 232.842 181.419 233.144 181.268 233.446C180.932 232.081 180.328 230.873 179.456 229.821C178.667 230.372 178.214 231.127 178.096 232.086C177.945 231.633 177.794 231.18 177.643 230.727C177.451 231.387 177.074 231.613 176.51 231.407C176.661 231.256 176.812 231.104 176.963 230.954C176.65 230.47 176.423 229.941 176.283 229.367C176.132 229.821 175.981 230.274 175.83 230.727C175.481 230.229 175.104 230.229 174.697 230.727C177.539 222.737 182.977 220.245 191.012 223.25C196.885 227.725 198.018 233.239 194.41 239.79C194.09 240.19 193.712 240.492 193.278 240.697Z" fill="#0A0A0A"/>
<path fill-rule="evenodd" clip-rule="evenodd" d="M84.9684 231.181C85.7329 237.576 83.0138 241.731 76.8112 243.643C74.9985 243.945 73.1858 243.945 71.3731 243.643C69.9301 243.301 68.7215 242.622 67.7476 241.604C67.256 240.658 66.501 240.054 65.4818 239.791C62.547 235.344 62.4718 230.812 65.2552 226.196C65.726 225.647 66.2549 225.194 66.8413 224.836C67.5333 224.869 67.9865 224.567 68.2008 223.93C68.2008 223.628 68.3517 223.477 68.654 223.477C69.1054 223.438 69.4829 223.589 69.7869 223.93C70.0992 223.541 70.4767 223.24 70.9199 223.023C71.4619 223.18 71.4619 223.407 70.9199 223.703C71.5684 223.914 72.0968 224.292 72.506 224.836C72.6569 224.685 72.8083 224.534 72.9592 224.383C73.2615 225.592 73.5633 225.592 73.8655 224.383C75.0723 224.983 76.1296 226.04 77.0378 227.555C77.1887 227.253 77.34 226.951 77.491 226.649C77.7932 227.857 78.095 227.857 78.3973 226.649C79.116 227.632 79.7206 228.69 80.21 229.821C80.3609 229.519 80.5123 229.217 80.6632 228.915C80.8549 229.575 81.2324 229.801 81.7961 229.595C81.2541 229.298 81.2541 229.072 81.7961 228.915C82.7134 229.907 83.544 230.964 84.2886 232.087C84.4146 231.672 84.6412 231.37 84.9684 231.181Z" fill="#0A0A0A"/>
<path opacity="0.902" fill-rule="evenodd" clip-rule="evenodd" d="M68.2033 223.928C67.9889 224.565 67.5358 224.868 66.8438 224.835C67.0581 224.197 67.5113 223.895 68.2033 223.928Z" fill="#0A0A0A"/>
<path fill-rule="evenodd" clip-rule="evenodd" d="M131.648 237.977C139.63 240.348 142.349 245.483 139.805 253.385C139.872 252.908 139.797 252.455 139.578 252.025C138.802 251.401 138.197 250.645 137.766 249.759C137.615 250.061 137.463 250.363 137.312 250.666C136.96 249.449 136.356 248.392 135.5 247.493C135.085 247.869 134.783 248.322 134.593 248.853C135.079 247.64 134.777 246.583 133.687 245.681C132.977 245.935 132.373 245.633 131.874 244.774C131.46 245.15 131.158 245.603 130.968 246.134C129.746 245.603 128.991 244.696 128.702 243.415C128.539 244.794 128.237 244.946 127.796 243.868C127.493 245.077 127.192 245.077 126.889 243.868C126.738 244.17 126.587 244.472 126.436 244.774C125.963 243.77 125.661 242.713 125.53 241.602C125.319 244.174 125.017 244.325 124.623 242.055C124.472 242.659 124.321 243.264 124.17 243.868C124.013 243.089 123.787 242.334 123.49 241.602C124.683 240.92 124.531 240.618 123.037 240.696C123.035 242.395 122.582 242.697 121.678 241.602C123.248 239.831 125.212 238.623 127.569 237.977C128.021 234.97 128.172 231.949 128.022 228.913C128.443 229.564 128.972 230.168 129.608 230.726C129.988 227.854 130.289 228.005 130.515 231.179C130.666 231.028 130.817 230.877 130.968 230.726C131.034 233.485 131.26 235.902 131.648 237.977Z" fill="#0A0A0A"/>
<path opacity="0.991" fill-rule="evenodd" clip-rule="evenodd" d="M193.279 240.699C190.391 243.547 186.917 244.529 182.856 243.644C176.728 241.515 174.009 237.21 174.698 230.729C175.105 230.231 175.482 230.231 175.831 230.729C175.982 230.275 176.134 229.822 176.285 229.369C176.425 229.943 176.651 230.472 176.964 230.955C176.813 231.106 176.662 231.258 176.511 231.408C177.075 231.615 177.452 231.388 177.644 230.729C177.795 231.182 177.946 231.635 178.097 232.088C178.215 231.128 178.668 230.373 179.457 229.822C180.329 230.875 180.933 232.083 181.269 233.448C181.42 233.145 181.572 232.844 181.723 232.541C182.025 233.75 182.327 233.75 182.629 232.541C182.931 233.75 183.233 233.75 183.535 232.541C184.59 232.988 185.497 233.895 186.254 235.26C186.405 234.958 186.557 234.656 186.708 234.354C187.814 235.509 188.569 236.868 188.973 238.433C189.388 236.763 189.69 236.914 189.88 238.886C190.182 236.469 190.484 236.469 190.786 238.886C191.088 236.469 191.39 236.469 191.693 238.886C192.067 238.023 192.596 237.871 193.279 238.433C192.348 239.394 192.348 240.149 193.279 240.699Z" fill="#0A0A0A"/>
<path opacity="0.816" fill-rule="evenodd" clip-rule="evenodd" d="M65.4824 239.791C66.5016 240.054 67.2566 240.658 67.7483 241.604C66.7291 241.341 65.9741 240.737 65.4824 239.791Z" fill="#0A0A0A"/>
<path fill-rule="evenodd" clip-rule="evenodd" d="M139.805 253.386C136.322 259.659 131.186 261.396 124.397 258.598C119.986 255.59 118.249 251.435 119.185 246.136C119.677 244.393 120.508 242.882 121.678 241.604C122.582 242.699 123.035 242.397 123.037 240.697C124.531 240.62 124.683 240.922 123.49 241.604C123.787 242.336 124.013 243.091 124.17 243.87C124.321 243.266 124.472 242.661 124.623 242.057C125.017 244.326 125.319 244.176 125.53 241.604C125.661 242.715 125.963 243.772 126.436 244.776C126.587 244.474 126.738 244.172 126.889 243.87C127.191 245.078 127.493 245.078 127.796 243.87C128.237 244.947 128.539 244.796 128.702 243.416C128.991 244.698 129.746 245.604 130.968 246.136C131.158 245.604 131.459 245.151 131.874 244.776C132.373 245.634 132.977 245.937 133.687 245.682C134.777 246.585 135.079 247.642 134.593 248.855C134.783 248.323 135.085 247.87 135.5 247.495C136.356 248.394 136.96 249.451 137.312 250.667C137.463 250.365 137.615 250.063 137.765 249.761C138.197 250.647 138.802 251.402 139.578 252.027C139.797 252.456 139.872 252.91 139.805 253.386Z" fill="#0A0A0A"/>
<path fill-rule="evenodd" clip-rule="evenodd" d="M99.0196 253.385C99.4728 254.14 100.077 254.744 100.832 255.198C102.474 257.611 102.625 260.178 101.285 262.902C100.681 262.902 100.379 263.204 100.379 263.808C97.4122 266.516 94.2399 266.743 90.8624 264.488C88.7316 262.257 88.0518 259.614 88.8231 256.557C88.9491 256.142 89.1757 255.84 89.5029 255.651C90.14 255.436 90.4423 254.983 90.4092 254.291C91.1012 254.324 91.5544 254.022 91.7688 253.385C94.1856 251.572 96.6028 251.572 99.0196 253.385Z" fill="#0A0A0A"/>
<path fill-rule="evenodd" clip-rule="evenodd" d="M163.367 252.025C170.459 252.912 172.649 256.689 169.938 263.355C166.61 266.699 163.06 266.926 159.289 264.035C155.968 258.376 157.327 254.373 163.367 252.025Z" fill="#0A0A0A"/>
<path opacity="0.063" fill-rule="evenodd" clip-rule="evenodd" d="M99.0176 253.387C100.075 253.538 100.679 254.142 100.83 255.199C100.075 254.746 99.4708 254.142 99.0176 253.387Z" fill="#0A0A0A"/>
<path opacity="0.816" fill-rule="evenodd" clip-rule="evenodd" d="M91.7658 253.387C91.5514 254.024 91.0983 254.327 90.4062 254.294C90.6206 253.656 91.0738 253.354 91.7658 253.387Z" fill="#0A0A0A"/>
<path opacity="0.816" fill-rule="evenodd" clip-rule="evenodd" d="M90.4068 254.293C90.4399 254.985 90.1377 255.438 89.5005 255.652C89.4674 254.96 89.7697 254.507 90.4068 254.293Z" fill="#0A0A0A"/>
<path opacity="0.063" fill-rule="evenodd" clip-rule="evenodd" d="M101.283 262.904C101.132 263.357 100.83 263.66 100.377 263.811C100.377 263.207 100.679 262.904 101.283 262.904Z" fill="#0A0A0A"/>
</svg>
