<svg width="108" height="112" viewBox="0 0 108 112" fill="none" xmlns="http://www.w3.org/2000/svg">
<path d="M21.9567 23.6074L14.9271 22.0265C14.0908 21.8384 13.4101 22.0273 13.0861 22.5292C12.8072 22.9611 12.8176 23.5742 13.1158 24.255L13.9654 26.1942C14.1578 26.5887 13.8814 27.0841 13.7392 27.2148C5.53527 34.7484 0.829834 45.4663 0.829834 56.6201C0.829834 69.8338 7.31539 82.1435 18.1793 89.5494C18.6342 89.8594 19.1641 90.0236 19.7113 90.0236C20.6243 90.0236 21.4738 89.5683 21.9844 88.8059C22.2919 88.3469 22.4543 87.8125 22.4543 87.26C22.4543 86.3387 22.0032 85.4814 21.2474 84.9665C11.8945 78.5902 6.31067 67.9932 6.31067 56.6198C6.31067 47.6375 9.93667 38.8216 16.259 32.4334C16.4228 32.2678 16.5105 32.255 16.5333 32.255C16.5754 32.255 16.6366 32.3184 16.681 32.3964L17.4719 34.2029C17.8025 34.9577 18.2788 35.3734 18.8127 35.3734C19.336 35.3734 19.8137 34.9702 20.1573 34.2387L23.5767 26.9537C23.9108 26.2423 23.9246 25.4991 23.6157 24.8614C23.3076 24.2239 22.7183 23.7788 21.9567 23.6074Z" fill="white"/>
<path d="M107.585 55.3565C107.585 42.1429 101.099 29.8331 90.2349 22.4273C89.78 22.1173 89.2501 21.9531 88.7028 21.9531C87.7899 21.9531 86.9403 22.4081 86.43 23.1707C86.1225 23.6301 85.9598 24.1645 85.9598 24.7167C85.9598 25.638 86.411 26.4953 87.1668 27.0102C96.5197 33.3862 102.103 43.9832 102.103 55.3568C102.103 64.3392 98.4775 73.1551 92.1552 79.5433C91.9914 79.7086 91.9037 79.7217 91.8809 79.7217C91.8388 79.7217 91.7776 79.6583 91.7332 79.5802L90.9422 77.7738C90.6116 77.019 90.1354 76.6033 89.6014 76.6033C89.0781 76.6033 88.6004 77.0064 88.2572 77.7379L84.8368 85.023C84.5028 85.7344 84.489 86.4773 84.7976 87.1147C85.1063 87.7522 85.6956 88.1979 86.4572 88.3693L93.4868 89.9502C93.7043 89.9991 93.9122 90.0239 94.1046 90.0239C94.6536 90.0239 95.0883 89.8192 95.328 89.4475C95.607 89.0155 95.5966 88.4028 95.2983 87.722L94.4488 85.7827C94.2564 85.3883 94.5324 84.8929 94.6749 84.7622C102.879 77.2285 107.585 66.5104 107.585 55.3565Z" fill="white"/>
<path d="M55.3904 23.6514C52.5798 22.5144 51.7675 21.8269 51.7675 20.5851C51.7675 19.5913 52.5135 18.4308 54.6158 18.4308C56.4756 18.4308 57.902 19.1707 57.9144 19.1774C58.0647 19.258 58.2329 19.3011 58.3996 19.3011C58.8066 19.3011 59.1666 19.0525 59.3161 18.668L59.8269 17.35C60.0046 16.87 59.7352 16.4514 59.3908 16.3012C58.2456 15.7979 56.008 15.409 55.9849 15.4049C55.9488 15.3988 55.8233 15.3717 55.8233 15.2236L55.8164 13.312C55.8164 12.7362 55.3399 12.2676 54.7549 12.2676H53.8384C53.2543 12.2676 52.7777 12.7362 52.7777 13.3126L52.78 15.3222C52.78 15.4762 52.6147 15.5432 52.5545 15.5577C49.7298 16.2366 47.9641 18.3245 47.9641 20.9586C47.9641 24.242 50.6538 25.726 53.5577 26.8397C55.8793 27.7592 56.8263 28.6919 56.8263 30.06C56.8263 31.5483 55.4853 32.5881 53.5635 32.5881C51.9227 32.5881 49.7018 31.5387 49.6799 31.5279C49.538 31.4601 49.3874 31.4255 49.2325 31.4255C48.8099 31.4255 48.4418 31.6834 48.2944 32.0828L47.8069 33.4154C47.6332 33.9131 47.9004 34.3171 48.2422 34.4967C49.6058 35.2134 52.2449 35.6334 52.3621 35.6518C52.3938 35.6564 52.5545 35.7138 52.5545 35.8617V37.8629C52.5545 38.4389 53.0307 38.9073 53.616 38.9073H54.563C55.1483 38.9073 55.6249 38.4389 55.6249 37.8629V35.7572C55.6249 35.5601 55.7688 35.5429 55.7985 35.5356C58.8081 34.8533 60.6618 32.6315 60.6618 29.8417C60.662 26.9756 59.085 25.124 55.3904 23.6514Z" fill="white"/>
<path d="M54.2073 0.488281C40.4701 0.488281 29.3345 11.7254 29.3345 25.5873C29.3345 39.4488 40.4701 50.6869 54.2073 50.6869C67.944 50.6869 79.0802 39.4491 79.0802 25.5873C79.0802 11.7254 67.944 0.488281 54.2073 0.488281ZM54.2073 44.8695C43.6536 44.8695 35.0992 36.2364 35.0992 25.5873C35.0992 14.9381 43.6536 6.30537 54.2073 6.30537C64.7605 6.30537 73.3153 14.9381 73.3153 25.5873C73.3153 36.2364 64.7605 44.8695 54.2073 44.8695Z" fill="white"/>
<path d="M54.2076 61.2891C40.4701 61.2891 29.3345 72.5262 29.3345 86.3881C29.3345 100.25 40.4701 111.488 54.2076 111.488C67.9443 111.488 79.0802 100.25 79.0802 86.3881C79.0799 72.5262 67.9443 61.2891 54.2076 61.2891ZM54.2076 105.671C43.6539 105.671 35.0992 97.0372 35.0992 86.3881C35.0992 75.7392 43.6539 67.1061 54.2076 67.1061C64.7605 67.1061 73.3153 75.7392 73.3153 86.3881C73.315 97.0372 64.7605 105.671 54.2076 105.671Z" fill="white"/>
<path d="M61.5762 92.1674C61.0417 91.5512 60.1131 91.4886 59.5019 92.0286C58.1495 93.2235 56.7014 93.8816 54.9014 93.8816C52.3684 93.8816 50.4175 92.5941 49.077 90.6345C49.0205 90.5519 48.9337 90.3827 49.2221 90.3827H52.5839C53.3956 90.3827 54.0539 89.7188 54.0539 88.8994C54.0539 88.08 53.3959 87.416 52.5839 87.416H48.0801C47.8366 87.416 47.8112 87.2221 47.8017 87.1243C47.7775 86.8824 47.7645 86.6373 47.7645 86.389C47.7645 86.0942 47.7674 85.9498 47.8009 85.6639C47.8066 85.6118 47.8519 85.3624 48.1522 85.3624H53.2624C54.0741 85.3624 54.7324 84.6981 54.7324 83.879C54.7324 83.0599 54.0744 82.3953 53.2624 82.3953H49.4024C48.8976 82.3953 49.1341 82.0559 49.2553 81.8938C50.6111 80.0751 52.4775 78.8962 54.9011 78.8962C56.2082 78.8962 57.2042 79.2431 58.3272 79.8992C59.0296 80.3097 59.9291 80.0684 60.3361 79.3593C60.7428 78.6505 60.5034 77.7429 59.801 77.3324C58.2309 76.4146 56.7254 75.9297 54.9014 75.9297C50.7948 75.9297 47.5277 78.3527 45.8514 81.8562C45.7666 82.0332 45.6766 82.3953 45.316 82.3953H43.4303C42.6186 82.3953 41.9603 83.0596 41.9603 83.879C41.9603 84.6981 42.6183 85.3624 43.4303 85.3624H44.6791C44.9194 85.3624 44.8577 85.5717 44.8533 85.6241C44.8294 85.9108 44.8248 86.0962 44.8248 86.389C44.8248 86.6554 44.8352 86.9194 44.8548 87.1811C44.8608 87.2597 44.8977 87.4163 44.6364 87.4163H42.7516C41.9398 87.4163 41.2816 88.0802 41.2816 88.8997C41.2816 89.7191 41.9395 90.383 42.7516 90.383H45.3757C45.6884 90.383 45.6827 90.5527 45.7199 90.6369C47.3364 94.2932 50.6838 96.8487 54.9011 96.8487C57.4142 96.8487 59.5497 95.9297 61.4386 94.2606C62.0496 93.7209 62.1107 92.7836 61.5762 92.1674Z" fill="white"/>
</svg>
