<svg width="429" height="101" viewBox="0 0 429 101" fill="none" xmlns="http://www.w3.org/2000/svg">
<path d="M0 0.0996094C14.5 0.0996094 29 0.0996094 43.5 0.0996094C58.8 26.4996 74 52.9996 89.3 79.3996C87.5 82.4996 85.7 85.5996 83.9 88.6996C82 91.7996 79.7 94.6996 76.8 96.7996C74.4 98.4996 71.6 99.7996 68.6 99.9996C65.5 100.3 62.5 99.3996 59.8 97.7996C56.5 95.7996 53.9 92.8996 51.8 89.6996C50.2 87.1996 48.8 84.5996 47.3 81.9996C31.6 54.7996 15.8 27.4996 0 0.0996094Z" fill="#FFDD00"/>
<path d="M57.9004 0.100006C72.4004 0.100006 86.9004 0.100006 101.4 0.100006C111.8 18.2 122.3 36.3 132.8 54.3C134.2 56.9 137.1 58.6 140 58.6C143 58.6 145.8 56.9 147.3 54.3C136.9 36.2 126.4 18.1 116 0C130.5 0 145 0 159.5 0C165.1 9.7 170.7 19.4 176.3 29.1C166.2 46.6 156.1 64 146 81.5C144.5 84 143.1 86.5 141.6 89C139.7 92.1 137.3 94.9 134.4 97C131.9 98.7 129 99.9 125.9 99.9C122.8 100 119.8 99 117.3 97.3C114.1 95.2 111.6 92.3 109.6 89.1C108.1 86.7 106.7 84.2 105.3 81.7C89.4004 54.6 73.7004 27.4 57.9004 0.100006Z" fill="#FFDD00"/>
<path d="M193 0.100006C195.9 0.100006 198.7 0.100006 201.6 0.100006C203.2 6.50001 204.9 12.8 206.5 19.2C207.9 24.8 209.3 30.4 210.4 36.1C211.4 30.3 212.9 24.5 214.3 18.7C215.8 12.5 217.4 6.30001 219 0.100006C221.9 0.100006 224.8 0.100006 227.7 0.100006C230.1 9.10001 232.4 18.1 234.6 27.2C235.3 30 235.9 32.7 236.4 35.5C237.1 31.6 238 27.7 239 23.8C240.9 15.9 243 7.9 245.1 0C247.9 0 250.6 0 253.4 0C249.2 15.5 244.9 31.1 240.7 46.6C237.7 46.6 234.6 46.6 231.6 46.6C229.4 38.2 227.2 29.7 225.2 21.2C224.5 18.1 223.8 15 223.2 11.8C222.4 16.5 221.2 21.1 220 25.8C218.2 32.7 216.3 39.6 214.5 46.6C211.5 46.6 208.6 46.6 205.6 46.6C201.4 31.2 197.2 15.6 193 0.100006Z" fill="white"/>
<path d="M321.1 4.59921C323.6 3.99921 326.2 3.29922 328.7 2.69922C328.7 5.99922 328.7 9.19921 328.7 12.4992C330.4 12.4992 332.2 12.4992 333.9 12.4992C333.9 14.6992 334 16.8992 334 19.0992C332.2 19.0992 330.5 19.0992 328.7 19.0992C328.7 25.6992 328.7 32.1992 328.7 38.7992C328.7 39.6992 329.5 40.4992 330.4 40.4992C331.6 40.5992 332.8 40.3992 334 40.2992C334 42.4992 334 44.5992 334 46.7992C331.9 47.3992 329.8 47.3992 327.7 47.3992C326.1 47.3992 324.4 46.8992 323.2 45.6992C321.7 44.2992 321.1 42.2992 321.1 40.2992C321.1 33.1992 321.1 26.0992 321.1 18.9992C319.8 18.9992 318.4 18.9992 317.1 18.9992C317.1 16.7992 317.1 14.5992 317.1 12.3992C318.4 12.3992 319.8 12.3992 321.1 12.3992C321.1 9.79922 321.1 7.19921 321.1 4.59921Z" fill="white"/>
<path d="M258.2 14.0008C261.1 12.3008 264.6 11.6008 267.9 11.8008C271.2 11.9008 274.5 12.9008 277.1 14.9008C279.5 16.6008 281.3 19.1008 282.4 21.9008C283.8 25.2008 284.2 28.9008 284.1 32.5008C275.3 32.5008 266.4 32.5008 257.6 32.5008C258 35.7008 260.1 38.5008 263 39.7008C266.8 41.3008 271.7 40.7008 274.7 37.8008C275.5 37.1008 276.1 36.1008 276.6 35.2008C278.7 36.3008 280.8 37.3008 282.8 38.4008C281.2 41.8008 278.2 44.4008 274.7 45.9008C271.3 47.4008 267.4 47.8008 263.7 47.2008C260.2 46.7008 256.8 45.1008 254.3 42.6008C251.8 40.1008 250.1 36.8008 249.5 33.3008C248.8 29.2008 249.3 24.8008 251.2 21.1008C253 18.1008 255.4 15.6008 258.2 14.0008ZM260.6 20.7008C259 22.0008 258 24.0008 257.7 26.0008C263.8 26.0008 269.8 26.0008 275.9 26.0008C275.7 23.6008 274.4 21.4008 272.3 20.1008C268.9 17.8008 263.8 18.0008 260.6 20.7008Z" fill="white"/>
<path d="M297.3 12.0004C301.2 11.4004 305.5 11.9004 308.8 14.2004C311.6 16.1004 313.4 19.3004 313.4 22.7004C311 23.1004 308.7 23.6004 306.3 24.0004C306.1 22.8004 306 21.6004 305.4 20.6004C304.5 19.1004 302.7 18.3004 301 18.1004C299.4 18.0004 297.8 18.2004 296.4 19.0004C295.5 19.6004 294.9 20.6004 295 21.7004C295.1 22.7004 295.9 23.5004 296.8 24.0004C298.3 24.8004 299.9 25.2004 301.6 25.6004C304.6 26.4004 307.7 27.1004 310.4 28.7004C312.2 29.8004 313.7 31.4004 314.4 33.4004C315.5 36.8004 314.9 40.8004 312.4 43.4004C309.9 46.0004 306.2 47.0004 302.7 47.2004C298.3 47.5004 293.7 46.5004 290.1 43.7004C287.8 42.0004 286.3 39.2004 286.3 36.3004C288.7 35.8004 291.2 35.4004 293.6 34.9004C293.7 36.2004 294.1 37.5004 295 38.4004C296.5 40.0004 298.8 40.5004 300.9 40.5004C302.5 40.5004 304.3 40.3004 305.6 39.2004C306.7 38.3004 307.1 36.6004 306.3 35.4004C305.6 34.4004 304.3 33.9004 303.2 33.4004C300 32.3004 296.7 31.8004 293.6 30.4004C291.6 29.6004 289.8 28.4004 288.6 26.6004C286.5 23.4004 286.8 18.8004 289.3 15.8004C291.4 13.8004 294.3 12.5004 297.3 12.0004Z" fill="white"/>
<path d="M344.5 14.0996C347.4 12.3996 350.9 11.5996 354.3 11.7996C357.5 11.8996 360.8 12.8996 363.5 14.7996C366 16.5996 367.9 19.0996 369.1 21.9996C370.5 25.2996 370.9 28.8996 370.7 32.4996C361.9 32.4996 353 32.4996 344.2 32.4996C344.6 35.5996 346.6 38.3996 349.4 39.5996C353 41.1996 357.4 40.7996 360.6 38.4996C361.8 37.5996 362.7 36.4996 363.3 35.1996C365.4 36.1996 367.5 37.2996 369.6 38.3996C368.1 41.6996 365.2 44.1996 362 45.6996C355.8 48.5996 348 47.9996 342.5 43.7996C339.5 41.4996 337.5 38.0996 336.6 34.3996C335.6 30.0996 336 25.3996 337.9 21.3996C339.4 18.2996 341.7 15.7996 344.5 14.0996ZM350 19.0996C347 20.0996 344.7 22.8996 344.3 25.9996C350.4 25.9996 356.4 25.9996 362.5 25.9996C362.3 24.3996 361.7 22.8996 360.7 21.6996C358.1 18.5996 353.6 17.7996 350 19.0996Z" fill="white"/>
<path d="M410.7 12.1007C414.6 11.2007 418.8 11.6007 422.2 13.8007C424.6 15.3007 426.4 17.8007 427.3 20.5007C428 22.5007 428.2 24.7007 428.2 26.8007C428.2 33.4007 428.2 40.1008 428.2 46.7008C425.5 46.7008 422.8 46.7008 420.1 46.7008C420.1 40.5008 420.1 34.2007 420.1 28.0007C420.1 26.0007 419.9 23.9008 418.8 22.2008C418 20.8008 416.7 19.8007 415.1 19.3007C411.9 18.4007 407.9 19.0007 405.9 21.8007C404.5 23.6007 404 26.0008 404 28.2008C404 34.4008 404 40.5008 404 46.7008C401.3 46.7008 398.6 46.7008 395.9 46.7008C395.9 35.3008 395.9 23.8007 395.9 12.4007C398.2 12.4007 400.6 12.4007 402.9 12.4007C402.9 14.0007 402.9 15.6007 402.9 17.3007C404.6 14.6007 407.6 12.8007 410.7 12.1007Z" fill="white"/>
<path d="M374.2 12.4001C376.4 12.4001 378.7 12.4001 380.9 12.4001C380.9 13.8001 380.9 15.3001 380.9 16.7001C381.8 15.3001 383.1 14.1001 384.6 13.4001C387.1 12.2001 389.9 12.0001 392.6 12.4001C392.6 14.8001 392.6 17.2001 392.5 19.6001C390.3 19.3001 387.9 19.2001 385.7 20.1001C384.3 20.7001 383.1 21.9001 382.6 23.3001C381.9 25.0001 382.2 26.9001 382.1 28.6001C382.1 34.6001 382.1 40.7001 382.2 46.7001C379.5 46.7001 376.8 46.7001 374.1 46.7001C374.2 35.3001 374.2 23.9001 374.2 12.4001Z" fill="white"/>
<path d="M278.7 52.8008C280 52.4008 281.6 52.5008 282.7 53.3008C284.1 54.2008 285 55.8008 284.9 57.4008C284.8 59.5008 283.2 61.3008 281.1 61.7008C279.4 62.0008 277.5 61.3008 276.5 60.0008C275.6 58.8008 275.3 57.2008 275.8 55.8008C276.2 54.4008 277.3 53.2008 278.7 52.8008Z" fill="white"/>
<path d="M196.6 80.9008C196.6 71.5008 196.6 62.2008 196.6 52.8008C199.3 52.8008 202.1 52.8008 204.8 52.8008C204.8 62.1008 204.8 71.4008 204.8 80.6008C204.9 83.9008 205.7 87.5008 208.2 89.9008C210.4 92.0008 213.7 92.6008 216.7 92.3008C219.2 92.1008 221.7 91.0008 223.3 89.0008C225.3 86.6008 225.9 83.4008 225.9 80.4008C225.9 71.2008 225.9 62.0008 225.9 52.8008C228.6 52.8008 231.3 52.8008 234 52.8008C234 60.7008 234 68.6008 234 76.5008C234 79.1008 234.1 81.7008 233.7 84.3008C233.1 88.2008 231.6 92.1008 228.8 94.9008C226.3 97.5008 223 99.0008 219.5 99.6008C215.3 100.301 210.8 100.001 206.9 98.3008C204 97.0008 201.4 94.9008 199.8 92.1008C197.6 88.9008 196.8 84.9008 196.6 80.9008Z" fill="white"/>
<path d="M253.7 64.9008C257.5 64.1008 261.8 64.5008 265.1 66.6008C267.5 68.1008 269.2 70.5008 270.1 73.1008C270.8 75.2008 271.1 77.5008 271.1 79.7008C271.1 86.3008 271.1 92.9007 271.1 99.5007C268.4 99.5007 265.7 99.5007 263 99.5007C263 93.5007 263 87.5007 263 81.5007C263 79.5007 262.9 77.3008 262 75.4008C261.4 74.0008 260.2 72.9008 258.8 72.3008C257.2 71.6008 255.3 71.5008 253.6 71.8008C251.8 72.1008 250.1 73.0007 248.9 74.5007C247.5 76.3007 247 78.7008 247 80.9008C247 87.1008 247 93.3007 247 99.5007C244.3 99.5007 241.6 99.5007 238.9 99.5007C238.9 88.1007 238.9 76.6008 238.9 65.2008C241.2 65.2008 243.6 65.2008 245.9 65.2008C245.9 66.8008 245.9 68.4008 245.9 70.1008C247.6 67.3008 250.6 65.5008 253.7 64.9008Z" fill="white"/>
<path d="M304 64.6006C308.2 64.2006 312.5 65.0006 316.1 67.3006C319.1 69.1006 321.4 71.9006 322.7 75.1006C325.3 81.3006 324.4 89.0006 320 94.1006C317.4 97.1006 313.8 99.1006 309.9 99.8006C305.6 100.601 300.9 100.101 297 98.0006C293.9 96.4006 291.4 93.8006 289.9 90.8006C286.8 84.5006 287.4 76.4006 291.9 71.0006C294.9 67.2006 299.4 65.0006 304 64.6006ZM304.7 72.0006C302.1 72.3006 299.7 73.7006 298.1 75.7006C295.1 79.5006 295.2 85.3006 298.2 89.1006C300.1 91.5006 303.3 92.9006 306.4 92.7006C309.5 92.7006 312.6 91.1006 314.5 88.5006C317.3 84.6006 317.1 78.7006 313.8 75.2006C311.5 72.7006 308 71.5006 304.7 72.0006Z" fill="white"/>
<path d="M342.8 64.8997C346.6 64.0997 350.8 64.3997 354.1 66.4997C356.5 67.8997 358.2 70.1997 359.2 72.7997C360 74.8997 360.3 77.1997 360.3 79.4997C360.3 86.1997 360.3 92.8997 360.3 99.4997C357.6 99.4997 354.9 99.4997 352.2 99.4997C352.2 93.1997 352.2 86.7997 352.2 80.4997C352.2 78.3997 351.9 76.2997 350.7 74.4997C349.8 73.0997 348.3 72.1997 346.7 71.8997C345 71.4997 343.2 71.5997 341.6 72.0997C340 72.5997 338.6 73.5997 337.7 74.9997C336.5 76.6997 336.1 78.8997 336.1 80.8997C336.1 87.0997 336.1 93.2997 336.1 99.4997C333.4 99.4997 330.7 99.4997 328 99.4997C328 88.0997 328 76.5997 328 65.1997C330.3 65.1997 332.7 65.1997 335 65.1997C335 66.7997 335 68.3997 335 70.0997C336.7 67.2997 339.7 65.5997 342.8 64.8997Z" fill="white"/>
<path d="M276.2 65.1992C278.9 65.1992 281.6 65.1992 284.3 65.1992C284.3 76.5992 284.3 88.0992 284.3 99.4992C281.6 99.4992 278.9 99.4992 276.2 99.4992C276.2 87.9992 276.2 76.5992 276.2 65.1992Z" fill="white"/>
</svg>
