
<svg  viewBox="0 0 23 24" fill="none" xmlns="http://www.w3.org/2000/svg">
<mask id="path-1-outside-1_68_3190" maskUnits="userSpaceOnUse" x="0" y="0" width="24" height="24">
<rect   width="24" height="24"/>
<path d="M11.608 23.512C9.51733 23.512 7.61867 23.0213 5.912 22.04C4.22667 21.0587 2.89333 19.704 1.912 17.976C0.930667 16.248 0.44 14.296 0.44 12.12C0.44 10.008 0.92 8.088 1.88 6.36C2.84 4.61067 4.16267 3.23466 5.848 2.232C7.55467 1.22933 9.47467 0.727999 11.608 0.727999C13.6987 0.727999 15.5973 1.21867 17.304 2.2C19.0107 3.18133 20.3547 4.536 21.336 6.264C22.3173 7.992 22.808 9.944 22.808 12.12C22.808 14.232 22.328 16.1627 21.368 17.912C20.408 19.64 19.0747 21.0053 17.368 22.008C15.6613 23.0107 13.7413 23.512 11.608 23.512ZM11.608 19.864C12.9733 19.864 14.2 19.5333 15.288 18.872C16.376 18.2107 17.2187 17.2933 17.816 16.12C18.4347 14.9467 18.744 13.6133 18.744 12.12C18.744 10.6267 18.4347 9.29333 17.816 8.12C17.2187 6.94667 16.376 6.02933 15.288 5.368C14.2 4.70667 12.9733 4.376 11.608 4.376C10.2427 4.376 9.016 4.70667 7.928 5.368C6.84 6.02933 5.98667 6.94667 5.368 8.12C4.77067 9.29333 4.472 10.6267 4.472 12.12C4.472 13.6133 4.77067 14.9467 5.368 16.12C5.98667 17.2933 6.84 18.2107 7.928 18.872C9.016 19.5333 10.2427 19.864 11.608 19.864Z"/>
</mask>
<path d="M11.608 23.512C9.51733 23.512 7.61867 23.0213 5.912 22.04C4.22667 21.0587 2.89333 19.704 1.912 17.976C0.930667 16.248 0.44 14.296 0.44 12.12C0.44 10.008 0.92 8.088 1.88 6.36C2.84 4.61067 4.16267 3.23466 5.848 2.232C7.55467 1.22933 9.47467 0.727999 11.608 0.727999C13.6987 0.727999 15.5973 1.21867 17.304 2.2C19.0107 3.18133 20.3547 4.536 21.336 6.264C22.3173 7.992 22.808 9.944 22.808 12.12C22.808 14.232 22.328 16.1627 21.368 17.912C20.408 19.64 19.0747 21.0053 17.368 22.008C15.6613 23.0107 13.7413 23.512 11.608 23.512ZM11.608 19.864C12.9733 19.864 14.2 19.5333 15.288 18.872C16.376 18.2107 17.2187 17.2933 17.816 16.12C18.4347 14.9467 18.744 13.6133 18.744 12.12C18.744 10.6267 18.4347 9.29333 17.816 8.12C17.2187 6.94667 16.376 6.02933 15.288 5.368C14.2 4.70667 12.9733 4.376 11.608 4.376C10.2427 4.376 9.016 4.70667 7.928 5.368C6.84 6.02933 5.98667 6.94667 5.368 8.12C4.77067 9.29333 4.472 10.6267 4.472 12.12C4.472 13.6133 4.77067 14.9467 5.368 16.12C5.98667 17.2933 6.84 18.2107 7.928 18.872C9.016 19.5333 10.2427 19.864 11.608 19.864Z"  />
<path d="M5.912 22.04L5.76104 22.2993L5.76246 22.3001L5.912 22.04ZM1.88 6.36L2.14225 6.50569L2.143 6.50433L1.88 6.36ZM5.848 2.232L5.69603 1.97333L5.69461 1.97418L5.848 2.232ZM17.304 2.2L17.4535 1.93993L17.4535 1.93993L17.304 2.2ZM21.336 6.264L21.0751 6.41215L21.0751 6.41215L21.336 6.264ZM21.368 17.912L21.6303 18.0577L21.631 18.0563L21.368 17.912ZM17.368 22.008L17.216 21.7493L17.216 21.7493L17.368 22.008ZM15.288 18.872L15.1322 18.6156L15.1322 18.6156L15.288 18.872ZM17.816 16.12L17.5506 15.9801L17.5487 15.9839L17.816 16.12ZM17.816 8.12L17.5486 8.25612L17.5506 8.25992L17.816 8.12ZM15.288 5.368L15.1322 5.62436L15.1322 5.62436L15.288 5.368ZM7.928 5.368L8.08382 5.62436L8.08383 5.62436L7.928 5.368ZM5.368 8.12L5.1026 7.98006L5.10065 7.98389L5.368 8.12ZM5.368 16.12L5.10062 16.2561L5.10263 16.2599L5.368 16.12ZM11.608 23.212C9.56644 23.212 7.71988 22.7335 6.06154 21.7799L5.76246 22.3001C7.51746 23.3092 9.46822 23.812 11.608 23.812V23.212ZM6.06296 21.7807C4.42434 20.8266 3.12855 19.5107 2.17287 17.8279L1.65113 18.1241C2.65812 19.8973 4.029 21.2907 5.76104 22.2993L6.06296 21.7807ZM2.17287 17.8279C1.21957 16.1492 0.74 14.2491 0.74 12.12H0.14C0.14 14.3429 0.641759 16.3468 1.65113 18.1241L2.17287 17.8279ZM0.74 12.12C0.74 10.0554 1.2087 8.18608 2.14225 6.50569L1.61775 6.21431C0.631302 7.98992 0.14 9.96062 0.14 12.12H0.74ZM2.143 6.50433C3.07772 4.80106 4.3629 3.46461 6.00139 2.48982L5.69461 1.97418C3.96243 3.00472 2.60228 4.42027 1.617 6.21567L2.143 6.50433ZM5.99997 2.49066C7.65699 1.51716 9.5238 1.028 11.608 1.028V0.427999C9.42553 0.427999 7.45234 0.941505 5.69604 1.97334L5.99997 2.49066ZM11.608 1.028C13.6496 1.028 15.4961 1.50653 17.1545 2.46007L17.4535 1.93993C15.6985 0.930802 13.7478 0.427999 11.608 0.427999V1.028ZM17.1545 2.46007C18.8142 3.41444 20.12 4.73026 21.0751 6.41215L21.5969 6.11585C20.5893 4.34174 19.2071 2.94822 17.4535 1.93993L17.1545 2.46007ZM21.0751 6.41215C22.0284 8.09077 22.508 9.99087 22.508 12.12H23.108C23.108 9.89713 22.6062 7.89323 21.5969 6.11585L21.0751 6.41215ZM22.508 12.12C22.508 14.1846 22.0393 16.0652 21.105 17.7677L21.631 18.0563C22.6167 16.2602 23.108 14.2794 23.108 12.12H22.508ZM21.1058 17.7663C20.1718 19.4474 18.8766 20.7738 17.216 21.7493L17.52 22.2667C19.2728 21.2369 20.6442 19.8326 21.6302 18.0577L21.1058 17.7663ZM17.216 21.7493C15.559 22.7228 13.6922 23.212 11.608 23.212V23.812C13.7905 23.812 15.7637 23.2985 17.52 22.2667L17.216 21.7493ZM11.608 20.164C13.0242 20.164 14.3055 19.8203 15.4438 19.1284L15.1322 18.6156C14.0945 19.2464 12.9225 19.564 11.608 19.564V20.164ZM15.4438 19.1284C16.5811 18.4371 17.4616 17.4773 18.0833 16.2561L17.5487 15.9839C16.9757 17.1093 16.1709 17.9843 15.1322 18.6156L15.4438 19.1284ZM18.0814 16.2599C18.7255 15.0383 19.044 13.6559 19.044 12.12H18.444C18.444 13.5708 18.1438 14.8551 17.5506 15.9801L18.0814 16.2599ZM19.044 12.12C19.044 10.5841 18.7255 9.20172 18.0814 7.98008L17.5506 8.25992C18.1438 9.38494 18.444 10.6692 18.444 12.12H19.044ZM18.0833 7.98389C17.4616 6.76268 16.5811 5.80294 15.4438 5.11164L15.1322 5.62436C16.1709 6.25572 16.9757 7.13066 17.5487 8.2561L18.0833 7.98389ZM15.4438 5.11164C14.3055 4.41969 13.0242 4.076 11.608 4.076V4.676C12.9225 4.676 14.0945 4.99364 15.1322 5.62436L15.4438 5.11164ZM11.608 4.076C10.1918 4.076 8.91055 4.41969 7.77218 5.11164L8.08383 5.62436C9.12145 4.99364 10.2935 4.676 11.608 4.676V4.076ZM7.77218 5.11164C6.63582 5.80237 5.7455 6.76084 5.10263 7.98008L5.63337 8.25992C6.22783 7.13249 7.04419 6.25629 8.08382 5.62436L7.77218 5.11164ZM5.10065 7.98389C4.47913 9.20474 4.172 10.5858 4.172 12.12H4.772C4.772 10.6676 5.06221 9.38192 5.63535 8.2561L5.10065 7.98389ZM4.172 12.12C4.172 13.6542 4.47913 15.0353 5.10065 16.2561L5.63535 15.9839C5.06221 14.8581 4.772 13.5724 4.772 12.12H4.172ZM5.10263 16.2599C5.7455 17.4792 6.63581 18.4376 7.77218 19.1284L8.08383 18.6156C7.04419 17.9837 6.22783 17.1075 5.63337 15.9801L5.10263 16.2599ZM7.77218 19.1284C8.91055 19.8203 10.1918 20.164 11.608 20.164V19.564C10.2935 19.564 9.12145 19.2464 8.08383 18.6156L7.77218 19.1284Z"  mask="url(#path-1-outside-1_68_3190)"/>

<style>
        path { fill: #000; }
        @media (prefers-color-scheme: dark) {
            path { fill: #FFF; }
        }
    </style>

</svg>

