<svg width="49" height="64" viewBox="0 0 49 64" fill="none" xmlns="http://www.w3.org/2000/svg">
<path d="M32.5256 41.9174C30.9247 41.9174 29.6307 43.863 29.6307 46.2621C29.6307 48.6612 30.9247 50.6069 32.5256 50.6069C34.1266 50.6069 35.4206 48.6612 35.4206 46.2621C35.4206 43.863 34.1266 41.9174 32.5256 41.9174ZM35.9259 0H13.4182C6.37214 0 0.643677 5.73317 0.643677 12.7745V48.6186C0.643677 50.5549 1.60235 52.3542 3.2033 53.4357C4.80425 54.5171 6.83495 54.7296 8.61535 54.0118L12.9743 52.2881V58.1818C12.9743 60.0661 13.848 61.7804 15.3733 62.8855C16.384 63.6222 17.5646 64 18.7641 64C19.3686 64 19.9825 63.9008 20.5823 63.7072L44.8326 55.8017C47.1467 55.0508 48.6956 52.9067 48.6956 50.4746V12.7745C48.7004 5.73317 42.9719 0 35.9259 0ZM45.1679 50.4746C45.1679 51.3672 44.5918 52.1606 43.7417 52.4392L19.4867 60.3447C18.7877 60.5762 18.0416 60.4581 17.4465 60.0236C16.8515 59.5891 16.5067 58.9185 16.5067 58.1818L16.469 16.1369C16.587 13.1854 12.9271 13.3932 12.9696 16.0708V48.4911L7.29775 50.7344C6.58465 51.0177 5.81015 50.9421 5.1726 50.5124C4.53506 50.0826 4.17143 49.3932 4.17143 48.6281V12.7839C4.17143 7.67887 8.30838 3.54191 13.4135 3.54191H35.9212C41.0262 3.54191 45.1632 7.67887 45.1632 12.7839V50.4746H45.1679Z" fill="#0A0A0A"/>
</svg>
