<svg width="384" height="384" viewBox="0 0 384 384" fill="none" xmlns="http://www.w3.org/2000/svg">
<path d="M27.7847 192.028C27.7847 257.104 65.6032 313.342 120.443 339.993L42.0186 125.119C32.8964 145.566 27.7847 168.193 27.7847 192.028Z" fill="white"/>
<path d="M303.179 183.729C303.179 163.411 295.881 149.339 289.621 138.387C281.287 124.845 273.475 113.376 273.475 99.8335C273.475 84.7204 284.938 70.6522 301.083 70.6522C301.812 70.6522 302.503 70.743 303.213 70.7836C273.963 43.9862 234.994 27.625 192.192 27.625C134.755 27.625 84.223 57.094 54.8259 101.729C58.6832 101.845 62.3183 101.926 65.406 101.926C82.6025 101.926 109.222 99.8397 109.222 99.8397C118.084 99.3173 119.129 112.334 110.276 113.382C110.276 113.382 101.369 114.43 91.4588 114.95L151.329 293.031L187.308 185.125L161.693 114.943C152.84 114.424 144.453 113.376 144.453 113.376C135.594 112.857 136.632 99.311 145.492 99.8335C145.492 99.8335 172.642 101.92 188.797 101.92C205.991 101.92 232.613 99.8335 232.613 99.8335C241.482 99.311 242.523 112.328 233.667 113.376C233.667 113.376 224.742 114.424 214.85 114.943L274.264 291.676L290.662 236.877C297.77 214.137 303.179 197.804 303.179 183.729Z" fill="white"/>
<path d="M195.076 206.406L145.748 349.744C160.476 354.073 176.052 356.442 192.191 356.442C211.337 356.442 229.697 353.132 246.787 347.122C246.346 346.418 245.946 345.671 245.617 344.857L195.076 206.406Z" fill="white"/>
<path d="M336.452 113.148C337.159 118.385 337.56 124.007 337.56 130.054C337.56 146.737 334.444 165.492 325.059 188.942L274.839 334.138C323.717 305.635 356.592 252.682 356.592 192.03C356.596 163.446 349.294 136.567 336.452 113.148Z" fill="white"/>
<path d="M192.192 0.384766C86.5193 0.384766 0.542969 86.3548 0.542969 192.027C0.542969 297.712 86.5193 383.679 192.192 383.679C297.861 383.679 383.85 297.712 383.85 192.027C383.846 86.3548 297.861 0.384766 192.192 0.384766ZM192.192 374.895C91.3651 374.895 9.33049 292.86 9.33049 192.027C9.33049 91.2006 91.3619 9.17229 192.192 9.17229C293.015 9.17229 375.043 91.2006 375.043 192.027C375.043 292.86 293.015 374.895 192.192 374.895Z" fill="white"/>
</svg>
