<svg width="384" height="384" viewBox="0 0 384 384" fill="none" xmlns="http://www.w3.org/2000/svg">
<path d="M27.4547 191.788C27.4547 256.864 65.2733 313.102 120.113 339.752L41.6887 124.879C32.5664 145.326 27.4547 167.953 27.4547 191.788Z" fill="#0A0A0A"/>
<path d="M302.849 183.489C302.849 163.171 295.551 149.099 289.291 138.147C280.957 124.604 273.145 113.136 273.145 99.5932C273.145 84.4802 284.608 70.412 300.753 70.412C301.482 70.412 302.173 70.5027 302.884 70.5434C273.633 43.746 234.664 27.3848 191.862 27.3848C134.425 27.3848 83.8931 56.8538 54.4961 101.489C58.3533 101.605 61.9885 101.686 65.0762 101.686C82.2727 101.686 108.892 99.5995 108.892 99.5995C117.754 99.077 118.799 112.094 109.946 113.142C109.946 113.142 101.04 114.19 91.129 114.709L150.999 292.79L186.978 184.884L161.363 114.703C152.51 114.184 144.123 113.136 144.123 113.136C135.264 112.617 136.302 99.0708 145.162 99.5932C145.162 99.5932 172.313 101.68 188.467 101.68C205.661 101.68 232.283 99.5932 232.283 99.5932C241.152 99.0708 242.194 112.088 233.337 113.136C233.337 113.136 224.412 114.184 214.52 114.703L273.934 291.436L290.333 236.637C297.44 213.897 302.849 197.564 302.849 183.489Z" fill="#0A0A0A"/>
<path d="M194.746 206.166L145.418 349.504C160.146 353.833 175.722 356.201 191.862 356.201C211.007 356.201 229.367 352.892 246.457 346.882C246.016 346.178 245.616 345.431 245.287 344.617L194.746 206.166Z" fill="#0A0A0A"/>
<path d="M336.122 112.908C336.829 118.145 337.229 123.767 337.229 129.814C337.229 146.497 334.114 165.252 324.729 188.702L274.509 333.898C323.387 305.395 356.262 252.442 356.262 191.789C356.265 163.206 348.964 136.327 336.122 112.908Z" fill="#0A0A0A"/>
<path d="M191.862 0.144531C86.1893 0.144531 0.213013 86.1146 0.213013 191.787C0.213013 297.472 86.1893 383.439 191.862 383.439C297.531 383.439 383.52 297.472 383.52 191.787C383.517 86.1146 297.531 0.144531 191.862 0.144531ZM191.862 374.654C91.0351 374.654 9.00053 292.62 9.00053 191.787C9.00053 90.9604 91.032 8.93205 191.862 8.93205C292.685 8.93205 374.713 90.9604 374.713 191.787C374.713 292.62 292.685 374.654 191.862 374.654Z" fill="#0A0A0A"/>
</svg>
