<svg width="92" height="92" viewBox="0 0 92 92" fill="none" xmlns="http://www.w3.org/2000/svg">
<path fill-rule="evenodd" clip-rule="evenodd" d="M0.5 52.9609C0.5 42.7501 4.55624 32.9575 11.7764 25.7373C18.9965 18.5172 28.7892 14.4609 39 14.4609C39.9283 14.4609 40.8185 14.8297 41.4749 15.4861C42.1312 16.1424 42.5 17.0327 42.5 17.9609V49.4609H74C74.9283 49.4609 75.8185 49.8297 76.4749 50.4861C77.1313 51.1424 77.5 52.0327 77.5 52.9609C77.5 63.1718 73.4438 72.9644 66.2236 80.1845C59.0035 87.4047 49.2108 91.4609 39 91.4609C28.7892 91.4609 18.9965 87.4047 11.7764 80.1845C4.55624 72.9644 0.5 63.1718 0.5 52.9609Z" fill="white"/>
<path fill-rule="evenodd" clip-rule="evenodd" d="M49.5 3.96094C49.5 3.03268 49.8688 2.14244 50.5251 1.48606C51.1815 0.829686 52.0717 0.460938 53 0.460938C63.2108 0.460938 73.0035 4.51718 80.2236 11.7373C87.4438 18.9575 91.5 28.7501 91.5 38.9609C91.5 39.8892 91.1313 40.7794 90.4749 41.4358C89.8185 42.0922 88.9283 42.4609 88 42.4609H53C52.0717 42.4609 51.1815 42.0922 50.5251 41.4358C49.8688 40.7794 49.5 39.8892 49.5 38.9609V3.96094Z" fill="white"/>
</svg>
