<svg width="92" height="92" viewBox="0 0 92 92" fill="none" xmlns="http://www.w3.org/2000/svg">
<path fill-rule="evenodd" clip-rule="evenodd" d="M0.5 53.4043C0.5 43.1935 4.55624 33.4008 11.7764 26.1807C18.9965 18.9605 28.7892 14.9043 39 14.9043C39.9283 14.9043 40.8185 15.273 41.4749 15.9294C42.1312 16.5858 42.5 17.476 42.5 18.4043V49.9043H74C74.9283 49.9043 75.8185 50.273 76.4749 50.9294C77.1313 51.5858 77.5 52.476 77.5 53.4043C77.5 63.6151 73.4438 73.4078 66.2236 80.6279C59.0035 87.8481 49.2108 91.9043 39 91.9043C28.7892 91.9043 18.9965 87.8481 11.7764 80.6279C4.55624 73.4078 0.5 63.6151 0.5 53.4043Z" fill="#0A0A0A"/>
<path fill-rule="evenodd" clip-rule="evenodd" d="M49.5 4.4043C49.5 3.47604 49.8688 2.5858 50.5251 1.92942C51.1815 1.27305 52.0717 0.904297 53 0.904297C63.2108 0.904297 73.0035 4.96053 80.2236 12.1807C87.4438 19.4008 91.5 29.1935 91.5 39.4043C91.5 40.3326 91.1313 41.2228 90.4749 41.8792C89.8185 42.5355 88.9283 42.9043 88 42.9043H53C52.0717 42.9043 51.1815 42.5355 50.5251 41.8792C49.8688 41.2228 49.5 40.3326 49.5 39.4043V4.4043Z" fill="#0A0A0A"/>
</svg>
