<svg width="20" height="16" viewBox="0 0 20 16" fill="none" xmlns="http://www.w3.org/2000/svg">
<path fill-rule="evenodd" clip-rule="evenodd" d="M6.27995 3.21981C6.4204 3.36044 6.49929 3.55106 6.49929 3.74981C6.49929 3.94856 6.4204 4.13919 6.27995 4.27981L2.55995 7.99981L6.27995 11.7198C6.41243 11.862 6.48455 12.05 6.48113 12.2443C6.4777 12.4386 6.39899 12.624 6.26157 12.7614C6.12416 12.8988 5.93877 12.9776 5.74447 12.981C5.55017 12.9844 5.36213 12.9123 5.21995 12.7798L0.96995 8.52981C0.8295 8.38919 0.75061 8.19856 0.75061 7.99981C0.75061 7.80106 0.8295 7.61044 0.96995 7.46981L5.21995 3.21981C5.36058 3.07936 5.5512 3.00047 5.74995 3.00047C5.9487 3.00047 6.13933 3.07936 6.27995 3.21981ZM13.72 3.21981C13.8606 3.07936 14.0512 3.00047 14.25 3.00047C14.4487 3.00047 14.6393 3.07936 14.78 3.21981L19.03 7.46981C19.1704 7.61044 19.2493 7.80106 19.2493 7.99981C19.2493 8.19856 19.1704 8.38919 19.03 8.52981L14.78 12.7798C14.6378 12.9123 14.4497 12.9844 14.2554 12.981C14.0611 12.9776 13.8757 12.8988 13.7383 12.7614C13.6009 12.624 13.5222 12.4386 13.5188 12.2443C13.5153 12.05 13.5875 11.862 13.72 11.7198L17.44 7.99981L13.72 4.27981C13.5795 4.13919 13.5006 3.94856 13.5006 3.74981C13.5006 3.55106 13.5795 3.36044 13.72 3.21981ZM11.377 0.0108107C11.4741 0.0275036 11.567 0.0631787 11.6503 0.115796C11.7337 0.168414 11.8058 0.236942 11.8627 0.317463C11.9195 0.397984 11.9599 0.488918 11.9816 0.585067C12.0032 0.681215 12.0058 0.780692 11.989 0.877811L9.48895 15.3778C9.45259 15.5714 9.34152 15.743 9.17974 15.8553C9.01795 15.9677 8.81845 16.012 8.62432 15.9785C8.43019 15.945 8.25704 15.8365 8.14227 15.6763C8.0275 15.5162 7.98033 15.3174 8.01095 15.1228L10.511 0.622811C10.5447 0.426837 10.6548 0.252277 10.8172 0.137513C10.9796 0.0227483 11.181 -0.022826 11.377 0.0108107Z" fill="#A1A1AA"/>
</svg>
