<svg width="161" height="161" viewBox="0 0 161 161" fill="none" xmlns="http://www.w3.org/2000/svg">
<path fill-rule="evenodd" clip-rule="evenodd" d="M80.0232 0.404297C64.1875 0.404297 48.6961 5.13548 35.5284 13.9097C22.3607 22.6839 12.1191 35.157 6.09464 49.7806C0.0701854 64.4043 -1.56502 80.4903 1.53327 95.9742C4.63155 111.458 12.2051 125.738 23.4795 136.92C34.6677 148.103 48.9543 155.759 64.4457 158.856C79.9372 161.953 96.0311 160.318 110.662 154.297C125.293 148.275 137.772 137.953 146.55 124.791C155.329 111.716 160.062 96.2323 160.062 80.4043C160.062 59.157 151.628 38.8559 136.653 23.8021C121.592 8.83441 101.281 0.404297 80.0232 0.404297ZM80.0232 12.8774C64.3597 12.8774 49.2125 18.2968 37.1636 28.1892C25.0286 38.0817 16.7665 51.9312 13.7543 67.243C10.7421 82.5548 13.0658 98.4688 20.4673 112.232C27.8687 125.996 39.7455 136.834 54.2042 142.77C68.6629 148.705 84.7567 149.566 99.6457 145.006C114.621 140.447 127.53 130.899 136.223 117.91C144.915 104.92 148.788 89.3505 147.325 73.7806C145.776 58.2108 138.891 43.6731 127.875 32.6624C121.592 26.3828 114.19 21.3935 105.928 18.0387C97.6663 14.6839 88.8878 12.8774 80.0232 12.8774Z" fill="white"/>
<path fill-rule="evenodd" clip-rule="evenodd" d="M70.6423 18.2109C58.3352 18.2109 46.2863 21.8238 36.0448 28.7056C25.8032 35.5013 17.8854 45.2217 13.1519 56.5765C8.41837 67.9314 7.21348 80.4045 9.62326 92.5335C12.033 104.577 17.9714 115.673 26.6638 124.361C35.3563 133.05 46.4585 138.985 58.5074 141.394C70.5563 143.802 83.1216 142.598 94.4819 137.867C105.842 133.136 115.568 125.222 122.367 114.985C129.166 104.749 132.866 92.7056 132.866 80.4045C132.866 72.2324 131.231 64.1464 128.133 56.5765C125.034 49.0066 120.387 42.2109 114.621 36.4475C108.855 30.6841 101.969 26.1249 94.4819 22.9421C86.9083 19.8453 78.8184 18.2109 70.6423 18.2109ZM70.6423 30.6841C59.1098 30.6841 48.0076 34.641 39.057 41.9529C30.1925 49.2647 24.0819 59.4152 21.8443 70.684C19.6066 81.9529 21.3279 93.6518 26.7499 103.802C32.1719 113.953 40.9504 121.867 51.6223 126.34C62.2942 130.727 74.0849 131.329 85.101 127.974C96.1171 124.62 105.584 117.566 112.039 108.017C118.408 98.469 121.334 86.9421 120.215 75.5013C119.096 64.0604 114.018 53.3937 105.928 45.2217C101.281 40.5765 95.859 36.9636 89.8345 34.469C83.6379 31.9744 77.1832 30.6841 70.6423 30.6841Z" fill="white"/>
</svg>
