<svg width="161" height="161" viewBox="0 0 161 161" fill="none" xmlns="http://www.w3.org/2000/svg">
<path fill-rule="evenodd" clip-rule="evenodd" d="M80.7922 0.404297C64.9565 0.404297 49.465 5.13548 36.2973 13.9097C23.1296 22.6839 12.888 35.157 6.86356 49.7806C0.839106 64.4043 -0.796102 80.4903 2.30219 95.9742C5.40048 111.458 12.9741 125.738 24.2484 136.92C35.4367 148.103 49.7232 155.759 65.2147 158.856C80.7061 161.953 96.8 160.318 111.431 154.297C126.062 148.275 138.541 137.953 147.319 124.791C156.098 111.716 160.831 96.2323 160.831 80.4043C160.831 59.157 152.397 38.8559 137.422 23.8021C122.361 8.83441 102.05 0.404297 80.7922 0.404297ZM80.7922 12.8774C65.1286 12.8774 49.9814 18.2968 37.9325 28.1892C25.7975 38.0817 17.5354 51.9312 14.5232 67.243C11.511 82.5548 13.8347 98.4688 21.2362 112.232C28.6376 125.996 40.5144 136.834 54.9731 142.77C69.4318 148.705 85.5257 149.566 100.415 145.006C115.39 140.447 128.299 130.899 136.992 117.91C145.684 104.92 149.557 89.3505 148.094 73.7806C146.545 58.2108 139.66 43.6731 128.644 32.6624C122.361 26.3828 114.959 21.3935 106.697 18.0387C98.4352 14.6839 89.6567 12.8774 80.7922 12.8774Z" fill="#0A0A0A"/>
<path fill-rule="evenodd" clip-rule="evenodd" d="M71.4112 18.2109C59.1042 18.2109 47.0553 21.8238 36.8137 28.7056C26.5721 35.5013 18.6543 45.2217 13.9208 56.5765C9.18729 67.9314 7.9824 80.4045 10.3922 92.5335C12.802 104.577 18.7403 115.673 27.4328 124.361C36.1252 133.05 47.2274 138.985 59.2763 141.394C71.3252 143.802 83.8905 142.598 95.2509 137.867C106.611 133.136 116.336 125.222 123.135 114.985C129.934 104.749 133.635 92.7056 133.635 80.4045C133.635 72.2324 132 64.1464 128.902 56.5765C125.803 49.0066 121.156 42.2109 115.39 36.4475C109.623 30.6841 102.738 26.1249 95.2509 22.9421C87.6773 19.8453 79.5873 18.2109 71.4112 18.2109ZM71.4112 30.6841C59.8787 30.6841 48.7765 34.641 39.8259 41.9529C30.9614 49.2647 24.8509 59.4152 22.6132 70.684C20.3756 81.9529 22.0968 93.6518 27.5188 103.802C32.9408 113.953 41.7193 121.867 52.3912 126.34C63.0631 130.727 74.8538 131.329 85.8699 127.974C96.8861 124.62 106.353 117.566 112.808 108.017C119.177 98.469 122.103 86.9421 120.984 75.5013C119.865 64.0604 114.787 53.3937 106.697 45.2217C102.05 40.5765 96.6279 36.9636 90.6034 34.469C84.4069 31.9744 77.9521 30.6841 71.4112 30.6841Z" fill="#0A0A0A"/>
</svg>
