<svg width="381" height="382" viewBox="0 0 381 382" fill="none" xmlns="http://www.w3.org/2000/svg">
<path fill-rule="evenodd" clip-rule="evenodd" d="M7.02469 374.426H12.8053V356.42H19.3077V351.839H0.557129V356.42H7.02469V374.426Z" fill="white"/>
<path fill-rule="evenodd" clip-rule="evenodd" d="M20.8154 374.426H26.2526V365.502C26.2526 362.771 27.0327 361.479 29.0119 361.479C31.1833 361.479 31.3055 362.958 31.3055 366.037V374.426H36.7718V362.958C36.7718 359.25 34.8914 357.305 31.4045 357.305C29.14 357.305 27.5391 358.12 26.2817 359.907V351.839H20.8154V374.426Z" fill="white"/>
<path fill-rule="evenodd" clip-rule="evenodd" d="M49.5555 369.18C49.1829 370.374 48.2398 371.002 46.7612 371.002C44.811 371.002 43.7748 369.745 43.7748 367.387H55.0566C55.0857 367.073 55.0858 366.729 55.0858 366.415C55.0858 360.6 51.82 357.177 46.5749 357.177C41.4812 357.177 38.1864 360.57 38.1864 366.159C38.1864 371.596 41.423 374.932 46.5749 374.932C50.8478 374.932 53.8283 372.824 54.8063 369.18H49.5555ZM43.6177 364.308C43.8389 362.078 44.9683 360.885 46.7322 360.885C48.6124 360.885 49.8116 362.142 49.8407 364.308H43.6177Z" fill="white"/>
<path fill-rule="evenodd" clip-rule="evenodd" d="M71.1759 351.839V365.252C71.1759 368.611 71.7115 370.904 73.5918 372.633C75.3557 374.234 77.7075 375.061 80.6939 375.061C83.6802 375.061 86.032 374.234 87.7959 372.633C89.682 370.904 90.1826 368.611 90.1826 365.252V351.839H84.4312V365.944C84.4312 368.925 83.459 370.246 80.6647 370.246C77.8356 370.246 76.8634 368.925 76.8634 365.944V351.839H71.1759Z" fill="white"/>
<path fill-rule="evenodd" clip-rule="evenodd" d="M93.7568 374.426H99.3512V367.609C99.3512 365.787 99.2581 363.272 99.0369 360.129C100.451 362.83 101.674 365.065 102.681 366.788L107.111 374.426H113.363V351.839H107.775V357.614C107.775 359.5 107.833 362.422 108.025 366.352C106.925 364.058 105.667 361.671 104.282 359.25L100.009 351.839H93.7568V374.426Z" fill="white"/>
<path fill-rule="evenodd" clip-rule="evenodd" d="M130.297 374.426H136.049V365.973H139.914C141.894 365.973 142.866 366.73 143.058 368.517C143.273 370.531 142.994 372.54 143.681 374.426H149.746V373.64C148.646 373.075 148.932 371.474 148.774 368.709C148.617 366.037 148.332 364.593 145.916 363.65C148.332 362.422 149.461 360.664 149.461 358.12C149.461 353.754 146.76 351.839 141.108 351.839H130.297V374.426ZM136.049 361.514V356.362H140.508C142.679 356.362 143.745 357.142 143.745 358.813C143.745 360.693 142.679 361.514 140.351 361.514H136.049Z" fill="white"/>
<path fill-rule="evenodd" clip-rule="evenodd" d="M162.81 369.18C162.437 370.374 161.494 371.002 160.016 371.002C158.071 371.002 157.035 369.745 157.035 367.387H168.311C168.34 367.073 168.34 366.729 168.34 366.415C168.34 360.6 165.074 357.177 159.829 357.177C154.736 357.177 151.441 360.57 151.441 366.159C151.441 371.596 154.677 374.932 159.829 374.932C164.102 374.932 167.089 372.824 168.061 369.18H162.81ZM156.878 364.308C157.093 362.078 158.228 360.885 159.987 360.885C161.873 360.885 163.066 362.142 163.095 364.308H156.878Z" fill="white"/>
<path fill-rule="evenodd" clip-rule="evenodd" d="M170.663 374.426H176.129V361.514H178.83V358.149H176.129V357.678C176.129 355.92 176.478 355.355 178.044 355.355C178.265 355.355 178.551 355.355 178.83 355.384V351.74C177.858 351.676 177.043 351.647 176.443 351.647C172.263 351.647 170.633 353.155 170.633 357.049C170.633 357.398 170.633 357.771 170.663 358.149H168.276V361.514H170.663V374.426Z" fill="white"/>
<path fill-rule="evenodd" clip-rule="evenodd" d="M196.801 357.741H191.334V366.665C191.334 369.395 190.577 370.687 188.598 370.687C186.747 370.687 186.305 369.552 186.305 367.072V357.741H180.839V369.209C180.839 372.946 182.725 374.838 186.398 374.838C188.534 374.838 190.135 373.982 191.457 372.131V374.425H196.801V357.741Z" fill="white"/>
<path fill-rule="evenodd" clip-rule="evenodd" d="M204.648 366.001C204.648 363.085 205.812 361.542 207.884 361.542C209.957 361.542 211.057 363.05 211.057 366.001C211.057 368.737 209.835 370.274 207.791 370.274C205.876 370.274 204.648 368.708 204.648 366.001ZM199.938 375.81C200.439 379.454 203.047 381.119 208.071 381.119C211.622 381.119 214.136 379.99 215.423 377.981C216.401 376.474 216.43 374.366 216.43 371.479V357.741H211.307V359.97C209.957 358.119 208.327 357.304 206.033 357.304C201.918 357.304 198.995 360.756 198.995 366.036C198.995 371.217 201.976 374.588 205.969 374.588C208.228 374.553 209.928 373.668 211.121 371.881V373.639C211.121 376.188 210.428 377.289 207.919 377.289C206.505 377.289 205.684 376.817 205.404 375.81H199.938Z" fill="white"/>
<path fill-rule="evenodd" clip-rule="evenodd" d="M229.965 369.18C229.592 370.374 228.649 371.002 227.17 371.002C225.22 371.002 224.184 369.745 224.184 367.387H235.466C235.495 367.073 235.495 366.729 235.495 366.415C235.495 360.6 232.229 357.177 226.984 357.177C221.891 357.177 218.596 360.57 218.596 366.159C218.596 371.596 221.832 374.932 226.984 374.932C231.257 374.932 234.238 372.824 235.216 369.18H229.965ZM224.027 364.308C224.248 362.078 225.377 360.885 227.141 360.885C229.022 360.885 230.221 362.142 230.25 364.308H224.027Z" fill="white"/>
<path fill-rule="evenodd" clip-rule="evenodd" d="M248.028 369.18C247.65 370.374 246.707 371.002 245.228 371.002C243.284 371.002 242.248 369.745 242.248 367.387H253.524C253.559 367.073 253.559 366.729 253.559 366.415C253.559 360.6 250.287 357.177 245.042 357.177C239.954 357.177 236.653 360.57 236.653 366.159C236.653 371.596 239.89 374.932 245.042 374.932C249.315 374.932 252.301 372.824 253.273 369.18H248.028ZM242.091 364.308C242.312 362.078 243.441 360.885 245.199 360.885C247.085 360.885 248.279 362.142 248.314 364.308H242.091Z" fill="white"/>
<path fill-rule="evenodd" clip-rule="evenodd" d="M275.08 351.839L266.942 374.426H272.944L274.23 370.275H281.775L283.154 374.426H289.377L281.396 351.839H275.08ZM275.616 365.595L278.032 357.806L280.546 365.595H275.616Z" fill="white"/>
<path fill-rule="evenodd" clip-rule="evenodd" d="M295.339 366.001C295.339 363.085 296.503 361.542 298.575 361.542C300.648 361.542 301.748 363.05 301.748 366.001C301.748 368.737 300.525 370.274 298.482 370.274C296.567 370.274 295.339 368.708 295.339 366.001ZM290.629 375.81C291.13 379.454 293.738 381.119 298.767 381.119C302.318 381.119 304.827 379.99 306.114 377.981C307.092 376.474 307.121 374.366 307.121 371.479V357.741H301.998V359.97C300.648 358.119 299.018 357.304 296.724 357.304C292.608 357.304 289.686 360.756 289.686 366.036C289.686 371.217 292.672 374.588 296.66 374.588C298.925 374.553 300.619 373.668 301.812 371.881V373.639C301.812 376.188 301.119 377.289 298.61 377.289C297.196 377.289 296.375 376.817 296.095 375.81H290.629Z" fill="white"/>
<path fill-rule="evenodd" clip-rule="evenodd" d="M320.661 369.18C320.283 370.374 319.34 371.002 317.861 371.002C315.917 371.002 314.881 369.745 314.881 367.387H326.157C326.186 367.073 326.186 366.729 326.186 366.415C326.186 360.6 322.92 357.177 317.675 357.177C312.581 357.177 309.286 360.57 309.286 366.159C309.286 371.596 312.523 374.932 317.675 374.932C321.948 374.932 324.928 372.824 325.906 369.18H320.661ZM314.718 364.308C314.939 362.078 316.074 360.885 317.832 360.885C319.718 360.885 320.912 362.142 320.941 364.308H314.718Z" fill="white"/>
<path fill-rule="evenodd" clip-rule="evenodd" d="M328.287 374.426H333.724V365.502C333.724 362.771 334.51 361.479 336.49 361.479C338.655 361.479 338.783 362.958 338.783 366.037V374.426H344.249V363.586C344.249 359.314 342.742 357.334 338.69 357.334C336.396 357.334 334.761 358.213 333.631 360.035V357.742H328.287V374.426Z" fill="white"/>
<path fill-rule="evenodd" clip-rule="evenodd" d="M362.686 368.237H357.313C356.998 369.867 356.154 370.653 354.739 370.653C352.824 370.653 351.91 369.145 351.91 366.101C351.91 362.957 352.917 361.322 354.804 361.322C356.09 361.322 356.905 362.107 357.219 363.65H362.721C362.371 359.593 359.42 357.142 354.833 357.142C349.617 357.142 346.287 360.571 346.287 366.258C346.287 371.474 349.553 374.961 354.547 374.961C359.135 374.961 362.156 372.475 362.686 368.237Z" fill="white"/>
<path fill-rule="evenodd" clip-rule="evenodd" d="M373.897 376.282L380.557 357.741H374.747L371.545 369.116L368.402 357.741H362.522L368.152 372.51C368.623 373.704 368.967 374.553 368.967 375.217C368.967 376.597 368.117 376.911 366.33 376.911H365.259V381.248H366.702C368.559 381.248 370.003 381.248 371.074 380.777C372.361 380.212 373.018 378.704 373.897 376.282Z" fill="white"/>
<path fill-rule="evenodd" clip-rule="evenodd" d="M142.971 50.0132C137.237 56.1198 127.992 70.7314 133.907 82.9387C146.3 87.5609 145.375 43.9066 160.731 44.6459C168.13 51.6781 158.327 72.21 155.364 81.2739C151.481 92.5556 148.524 115.858 141.306 127.327C135.391 136.763 139.827 166.359 137.982 176.715C132.801 181.709 119.115 178.193 113.194 177.268C113.194 165.433 111.716 156.183 109.865 137.502C109.492 133.8 105.609 75.9066 108.753 68.8802C115.412 54.2687 151.481 26.524 156.476 21.1568C160.912 16.5346 176.082 0.811184 182.003 0.811184C186.252 3.58797 183.668 10.2476 182.742 12.8323C176.822 27.4439 151.481 41.8749 142.971 50.0132Z" fill="white"/>
<path fill-rule="evenodd" clip-rule="evenodd" d="M231.205 50.0132C236.933 56.1198 246.183 70.7314 240.263 82.9387C227.875 87.5609 228.795 43.9066 213.444 44.6459C206.045 51.6781 215.848 72.21 218.811 81.2739C222.694 92.5556 225.651 115.858 232.87 127.327C238.784 136.763 234.348 166.359 236.194 176.715C241.375 181.709 255.061 178.193 260.981 177.268C260.981 165.433 262.459 156.183 264.311 137.502C264.683 133.8 268.566 75.9066 265.423 68.8802C258.763 54.2687 222.694 26.524 217.699 21.1568C213.257 16.5346 198.093 0.811184 192.173 0.811184C187.917 3.58797 190.508 10.2476 191.433 12.8323C197.353 27.4439 222.694 41.8749 231.205 50.0132Z" fill="white"/>
<path fill-rule="evenodd" clip-rule="evenodd" d="M282.991 30.2199C286.135 33.3635 293.347 35.4009 298.162 42.0605C300.193 38.3582 295.199 29.6669 289.278 24.6722C285.029 20.9698 276.518 15.2358 273.928 14.4965C272.076 18.9382 278.922 25.5978 282.991 30.2199Z" fill="white"/>
<path fill-rule="evenodd" clip-rule="evenodd" d="M292.981 53.8966C298.342 59.0776 304.263 61.1093 311.848 70.3594C314.991 59.2639 314.252 49.4607 312.773 42.8011C310.183 34.104 305.741 24.4872 298.342 21.3436C300.007 26.3384 302.411 33.1784 302.97 42.4285C306.114 55.0085 307.965 55.3752 307.22 57.2263C306.481 57.2263 302.411 50.5668 297.236 45.3916C291.316 39.285 283.731 37.9927 278.736 34.4766C279.475 36.8808 283.917 44.6465 292.981 53.8966Z" fill="white"/>
<path fill-rule="evenodd" clip-rule="evenodd" d="M319.613 106.242C327.012 93.1087 327.752 83.4918 328.31 72.21C327.938 64.4385 324.055 46.4971 318.507 43.9066C320.172 60.1831 315.731 61.6675 317.582 75.1672C317.582 75.9065 319.433 89.7789 319.433 90.5182C317.209 90.1514 319.247 77.7578 293.348 59.8164C298.901 69.6195 296.31 72.5768 306.48 85.7097C318.507 97.364 320.172 109.018 319.613 106.242Z" fill="white"/>
<path fill-rule="evenodd" clip-rule="evenodd" d="M309.257 118.821C314.619 126.773 313.699 130.656 314.991 134.539C328.124 126.96 342.922 96.811 337.374 81.8268C334.045 93.2949 329.236 95.6991 325.906 105.135C319.986 119.374 320.912 123.63 317.209 126.96C317.949 119.561 315.358 110.864 312.954 104.39C309.444 98.8426 306.481 91.8162 303.896 89.2257C301.119 99.7682 303.151 108.279 309.257 118.821Z" fill="white"/>
<path fill-rule="evenodd" clip-rule="evenodd" d="M297.417 144.53C297.417 155.998 299.64 161.179 300.566 169.689C322.943 162.291 334.784 136.578 334.784 123.817C327.938 139.354 317.949 139.168 304.816 161.179C303.71 152.854 307.039 159.141 307.406 143.424C307.039 126.961 303.71 126.402 303.151 116.232C298.901 120.668 297.417 138.796 297.417 144.53Z" fill="white"/>
<path fill-rule="evenodd" clip-rule="evenodd" d="M278.736 177.269C277.071 185.78 276.332 195.769 275.04 203.168C287.8 198.354 290.943 202.056 306.3 192.439C313.327 188.556 325.906 172.647 325.167 161.365C309.997 178.194 307.22 176.343 300.007 182.45C293.167 187.998 287.614 196.136 282.625 195.03C282.252 190.402 293.907 180.599 292.428 152.301C289.279 155.445 280.96 168.391 278.736 177.269Z" fill="white"/>
<path fill-rule="evenodd" clip-rule="evenodd" d="M253.215 198.354C249.327 204.088 250.252 206.498 239.896 218.333C242.486 219.445 256.912 223.141 266.715 223.514C273.002 223.514 295.752 217.593 303.337 202.056C290.204 209.083 290.024 207.237 272.635 211.12C260.242 213.891 251.364 217.966 247.848 217.593C248.587 215.742 258.39 211.859 264.864 203.535C271.523 194.657 270.045 184.668 275.965 177.269C271.896 176.163 256.359 194.285 253.215 198.354Z" fill="white"/>
<path fill-rule="evenodd" clip-rule="evenodd" d="M154.811 251.811L151.109 249.779C151.109 249.779 174.971 220.55 216.221 222.774C257.465 224.992 254.694 234.795 276.891 233.13C279.295 232.944 274.853 236.273 274.853 236.273C274.853 236.273 253.396 244.598 226.763 235.534C200.13 226.47 182.928 220.922 154.811 251.811Z" fill="white"/>
<path fill-rule="evenodd" clip-rule="evenodd" d="M91.1838 30.2199C88.0403 33.3635 80.8218 35.4009 76.0134 42.0605C73.9817 38.3582 78.9764 29.6669 84.8968 24.6722C89.1463 20.9698 97.6571 15.2358 100.248 14.4965C102.093 18.9382 95.2529 25.5978 91.1838 30.2199Z" fill="white"/>
<path fill-rule="evenodd" clip-rule="evenodd" d="M81.1944 53.8966C75.833 59.0776 69.9127 61.1093 62.3275 70.3594C59.1839 59.2639 59.9232 49.4607 61.4018 42.8011C63.9923 34.104 68.434 24.4872 75.8329 21.3436C74.168 26.3384 71.7638 33.1784 71.205 42.4285C68.0615 55.0085 66.2102 55.3752 66.9496 57.2263C67.6947 57.2263 71.7638 50.5668 76.939 45.3916C82.8593 39.285 90.4445 37.9927 95.4392 34.4766C94.6999 36.8808 90.2583 44.6465 81.1944 53.8966Z" fill="white"/>
<path fill-rule="evenodd" clip-rule="evenodd" d="M54.5619 106.242C47.1629 93.1087 46.4236 83.4918 45.8647 72.21C46.2373 64.4385 50.1201 46.4971 55.6678 43.9066C54.0029 60.1831 58.4447 61.6675 56.5935 75.1672C56.5935 75.9065 54.7423 89.7789 54.7423 90.5182C56.966 90.1514 54.9285 77.7578 80.8219 59.8164C75.2741 69.6195 77.8647 72.5768 67.6948 85.7097C55.6679 97.364 54.003 109.018 54.5619 106.242Z" fill="white"/>
<path fill-rule="evenodd" clip-rule="evenodd" d="M64.918 118.821C59.5507 126.773 60.4763 130.656 59.184 134.539C46.051 126.96 31.2531 96.811 36.8009 81.8268C40.1307 93.2949 44.9391 95.6991 48.2689 105.135C54.1892 119.374 53.2637 123.63 56.966 126.96C56.2267 119.561 58.8114 110.864 61.2156 104.39C64.7317 98.8426 67.6948 91.8162 70.2795 89.2257C73.0563 99.7682 71.0188 108.279 64.918 118.821Z" fill="white"/>
<path fill-rule="evenodd" clip-rule="evenodd" d="M76.7528 144.53C76.7528 155.998 74.5348 161.179 73.6092 169.689C51.2319 162.291 39.3914 136.578 39.3914 123.817C46.2373 139.354 56.2267 139.168 69.3538 161.179C70.4657 152.854 67.1359 159.141 66.7692 143.424C67.1359 126.961 70.4657 126.402 71.0187 116.232C75.2741 120.668 76.7528 138.796 76.7528 144.53Z" fill="white"/>
<path fill-rule="evenodd" clip-rule="evenodd" d="M95.4392 177.269C97.1041 185.78 97.8434 195.769 99.1358 203.168C86.3754 198.354 83.2318 202.056 67.8751 192.439C60.8487 188.556 48.2688 172.647 49.0081 161.365C64.1785 178.194 66.9495 176.343 74.168 182.45C81.0081 187.998 86.5558 196.136 91.5505 195.03C91.9231 190.402 80.2688 180.599 81.7474 152.301C84.8968 155.445 93.2154 168.391 95.4392 177.269Z" fill="white"/>
<path fill-rule="evenodd" clip-rule="evenodd" d="M120.96 198.354C124.849 204.088 123.923 206.498 134.279 218.333C131.689 219.445 117.263 223.141 107.46 223.514C101.173 223.514 78.4175 217.593 70.8381 202.056C83.9711 209.083 84.1516 207.237 101.54 211.12C113.934 213.891 122.811 217.966 126.327 217.593C125.588 215.742 115.785 211.859 109.311 203.535C102.652 194.657 104.13 184.668 98.2101 177.269C102.279 176.163 117.816 194.285 120.96 198.354Z" fill="white"/>
<path fill-rule="evenodd" clip-rule="evenodd" d="M220.103 251.811L223.806 249.779C223.806 249.779 199.944 220.55 158.694 222.774C117.45 224.992 120.221 234.795 98.0238 233.13C95.6196 232.944 100.061 236.273 100.061 236.273C100.061 236.273 121.519 244.598 148.151 235.534C174.784 226.47 191.986 220.922 220.103 251.811Z" fill="white"/>
<path fill-rule="evenodd" clip-rule="evenodd" d="M173.894 154.14C165.202 154.14 165.656 150.705 165.656 147.375V88.5738C165.656 72.4836 176.868 75.3593 180.186 69.4332C182.76 64.8401 178.295 60.8759 175.949 55.9452C174.237 52.3476 174.185 48.1212 175.943 44.2792C177.689 40.4429 182.602 37.7709 187.085 37.7709C191.573 37.7709 196.486 40.4429 198.233 44.2792C199.985 48.1212 199.938 52.3476 198.227 55.9452C195.881 60.8759 191.416 64.8401 193.989 69.4332C197.307 75.3593 208.519 72.4836 208.519 88.5738V147.375C208.519 150.705 208.973 154.14 200.276 154.14C199.234 154.064 198.256 155.123 198.256 156.946V179.107H175.919V156.876C175.919 156.876 176.141 154.14 173.894 154.14Z" fill="white"/>
<path fill-rule="evenodd" clip-rule="evenodd" d="M1.09851 267.581V313.931C1.09851 332.029 13.1604 341.896 35.4794 341.896C57.7985 341.896 69.6623 332.029 69.6623 313.931V267.581H46.441V312.12C46.441 320.061 43.8272 323.583 35.4794 323.583C27.1374 323.583 24.3198 320.061 24.3198 312.12V267.581H1.09851Z" fill="white"/>
<path fill-rule="evenodd" clip-rule="evenodd" d="M80.2164 339.869H102.239V305.989C102.239 303.072 102.239 299.754 101.633 296.133C103.24 301.163 104.748 304.679 105.854 306.49L126.164 339.869H148.28V267.58H126.164V301.664C126.164 305.081 126.263 308.399 126.764 311.513C125.157 306.49 123.748 303.072 122.543 301.163L102.239 267.58H80.2164V339.869Z" fill="white"/>
<path fill-rule="evenodd" clip-rule="evenodd" d="M157.029 339.869H180.25V311.816H201.865V339.869H225.092V267.58H201.865V292.111H180.25V267.58H157.029V339.869Z" fill="white"/>
<path fill-rule="evenodd" clip-rule="evenodd" d="M283.603 311.818C282.898 319.56 278.474 323.78 271.337 323.78C261.988 323.78 257.057 316.946 257.057 303.778C257.057 290.407 261.586 283.77 270.732 283.77C278.171 283.77 282.293 287.589 282.997 294.93H305.217C303.809 276.232 291.444 265.672 270.429 265.672C247.813 265.672 233.638 280.149 233.638 303.778C233.638 327.302 247.708 341.896 270.935 341.896C291.747 341.896 304.309 330.818 305.619 311.818H283.603Z" fill="white"/>
<path fill-rule="evenodd" clip-rule="evenodd" d="M312.354 339.869H335.279V314.936H345.128C352.265 314.936 354.984 317.55 354.984 325.089V332.325C354.984 333.634 355.386 336.149 356.288 339.869H379.713V337.151C377.705 336.953 377.705 335.544 377.6 332.429L377.198 322.376C376.901 312.52 373.478 307.997 365.439 306.286C373.379 302.869 377.099 297.239 377.099 288.391C377.099 272.912 367.651 267.58 346.939 267.58H312.354V339.869ZM335.279 298.648V285.073H345.227C352.265 285.073 355.584 286.08 355.584 291.913C355.584 297.338 352.469 298.648 345.833 298.648H335.279Z" fill="white"/>
</svg>
